SplineFontDB: 3.0
FontName: NovaCut
FullName: Nova Cut
FamilyName: Nova Cut
Weight: Book
Copyright: Copyright (c) 2011, wmk69 (wmk69@o2.pl)\nwith Reserved Font Names 'NovaCut' and 'Nova Cut'.\n\nThis Font Software is licensed under the SIL Open Font License, Version 1.1.\nThis license is available with a FAQ at:\nhttp://scripts.sil.org/OFL
Version: 2.000
ItalicAngle: 0
UnderlinePosition: -81
UnderlineWidth: 122
Ascent: 1638
Descent: 410
LayerCount: 2
Layer: 0 1 "Warstwa t+AUIA-a"  1
Layer: 1 1 "Plan pierwszy"  0
XUID: [1021 783 23647091 8360855]
FSType: 0
OS2Version: 3
OS2_WeightWidthSlopeOnly: 0
OS2_UseTypoMetrics: 1
CreationTime: 1260698820
ModificationTime: 1313358340
PfmFamily: 33
TTFWeight: 400
TTFWidth: 5
LineGap: 0
VLineGap: 0
Panose: 2 12 5 4 2 4 4 6 2 4
OS2TypoAscent: 1966
OS2TypoAOffset: 0
OS2TypoDescent: -506
OS2TypoDOffset: 0
OS2TypoLinegap: 0
OS2WinAscent: 1966
OS2WinAOffset: 0
OS2WinDescent: 506
OS2WinDOffset: 0
HheadAscent: 1966
HheadAOffset: 0
HheadDescent: -506
HheadDOffset: 0
OS2SubXSize: 1434
OS2SubYSize: 1331
OS2SubXOff: 0
OS2SubYOff: 287
OS2SupXSize: 1434
OS2SupYSize: 1331
OS2SupXOff: 0
OS2SupYOff: 977
OS2StrikeYSize: 102
OS2StrikeYPos: 512
OS2Vendor: '    '
OS2CodePages: 20000093.00000000
OS2UnicodeRanges: 8000002f.4000204b.00000000.00000000
Lookup: 258 0 0 "'kern' Kerning poziomy w tablicy 0"  {"Podtablica 'kern' Kerning poziomy w tablicy 0"  } ['kern' ('DFLT' <'dflt' > 'grek' <'dflt' > 'latn' <'dflt' > ) ]
DEI: 91125
KernClass2: 25 16 "Podtablica 'kern' Kerning poziomy w tablicy 0" 
 380 A C G M N O Q S Agrave Aacute Acircumflex Atilde Adieresis Aring Ccedilla Ntilde Ograve Oacute Ocircumflex Otilde Odieresis Oslash Amacron Abreve Aogonek Cacute Ccircumflex Cdotaccent Ccaron Gcircumflex Gbreve Gdotaccent Gcommaaccent Nacute Ncommaaccent Ncaron Eng Omacron Obreve Ohungarumlaut OE Sacute Scircumflex Scedilla Scaron uni01E4 Scommaaccent uni1E60 uni1E40 Oslashacute
 20 B germandbls uni1E02
 27 D Eth Dcaron Dcroat uni1E0A

StartChar: .notdef
Encoding: 65536 -1 0
Width: 894
Flags: W
HStem: 0 118<268 626> 1392 118<268 626>
VStem: 150 118<118 1392> 626 118<118 1392>
LayerCount: 2
Fore
SplineSet
150 0 m 1,0,-1
 150 1510 l 1,1,-1
 744 1510 l 1,2,-1
 744 0 l 1,3,-1
 150 0 l 1,0,-1
268 1392 m 1,4,-1
 268 118 l 1,5,-1
 626 118 l 1,6,-1
 626 1392 l 1,7,-1
 268 1392 l 1,4,-1
EndSplineSet
Validated: 3073
EndChar

StartChar: exclam
Encoding: 33 33 4
Width: 600
GlyphClass: 2
Flags: W
HStem: -40 21G<200 252.222> 1530 20G<347.778 400>
VStem: 200 200<50 188 510 1460>
LayerCount: 2
Fore
SplineSet
200 -40 m 1,0,-1
 200 188 l 1,1,-1
 390 278 l 1,2,-1
 400 278 l 1,3,-1
 400 50 l 1,4,-1
 210 -40 l 1,5,-1
 200 -40 l 1,0,-1
390 1550 m 1,6,-1
 400 1550 l 1,7,-1
 400 510 l 1,8,-1
 210 420 l 1,9,-1
 200 420 l 1,10,-1
 200 1460 l 1,11,-1
 390 1550 l 1,6,-1
EndSplineSet
Validated: 3073
EndChar

StartChar: quotedbl
Encoding: 34 34 5
Width: 747
GlyphClass: 2
Flags: W
HStem: 992 558
VStem: 150 166<1066 1476> 431 166<1066 1476>
LayerCount: 2
Fore
SplineSet
587 1550 m 1,0,-1
 597 1550 l 1,1,-1
 597 1066 l 1,2,-1
 441 992 l 1,3,-1
 431 992 l 1,4,-1
 431 1476 l 1,5,-1
 587 1550 l 1,0,-1
306 1550 m 1,6,-1
 316 1550 l 1,7,-1
 316 1066 l 1,8,-1
 160 992 l 1,9,-1
 150 992 l 1,10,-1
 150 1476 l 1,11,-1
 306 1550 l 1,6,-1
EndSplineSet
Validated: 3073
EndChar

StartChar: numbersign
Encoding: 35 35 6
Width: 1368
GlyphClass: 2
Flags: W
HStem: 520 182<231 448 630 738 920 1137> 810 182<231 448 630 738 920 1137>
VStem: 448 182<303 520 702 810 992 1209> 738 182<303 520 702 810 992 1209>
LayerCount: 2
Fore
SplineSet
458 222 m 1,0,-1
 448 222 l 1,1,-1
 448 520 l 1,2,-1
 150 520 l 1,3,-1
 150 530 l 1,4,-1
 231 702 l 1,5,-1
 448 702 l 1,6,-1
 448 810 l 1,7,-1
 150 810 l 1,8,-1
 150 820 l 1,9,-1
 231 992 l 1,10,-1
 448 992 l 1,11,-1
 448 1209 l 1,12,-1
 620 1290 l 1,13,-1
 630 1290 l 1,14,-1
 630 992 l 1,15,-1
 738 992 l 1,16,-1
 738 1209 l 1,17,-1
 910 1290 l 1,18,-1
 920 1290 l 1,19,-1
 920 992 l 1,20,-1
 1218 992 l 1,21,-1
 1218 982 l 1,22,-1
 1137 810 l 1,23,-1
 920 810 l 1,24,-1
 920 702 l 1,25,-1
 1218 702 l 1,26,-1
 1218 692 l 1,27,-1
 1137 520 l 1,28,-1
 920 520 l 1,29,-1
 920 303 l 1,30,-1
 748 222 l 1,31,-1
 738 222 l 1,32,-1
 738 520 l 1,33,-1
 630 520 l 1,34,-1
 630 303 l 1,35,-1
 458 222 l 1,0,-1
630 702 m 1,36,-1
 738 702 l 1,37,-1
 738 810 l 1,38,-1
 630 810 l 1,39,-1
 630 702 l 1,36,-1
EndSplineSet
Validated: 3073
EndChar

StartChar: dollar
Encoding: 36 36 7
Width: 1330
GlyphClass: 2
Flags: W
HStem: -38 182<493.602 607> 748 181<723 854.003>
VStem: 160 200<282.778 460> 250 200<999.988 1230> 607 116<-190 -32.9773 145 748 936 1385 1536.53 1700> 880 200<1157 1315.12> 970 200<350 635.405>
LayerCount: 2
Fore
SplineSet
607 -240 m 1,0,-1
 607 -38 l 1,1,2
 414 -21 414 -21 295 105 c 0,3,4
 160 248 160 248 160 460 c 1,5,-1
 350 550 l 1,6,-1
 360 550 l 1,7,-1
 360 460 l 2,8,9
 360 329 360 329 432 243 c 0,10,11
 501 161 501 161 607 144 c 1,12,-1
 607 754 l 1,13,14
 459 770 459 770 350 871 c 0,15,16
 250 964 250 964 250 1134 c 2,17,-1
 250 1230 l 1,18,-1
 607 1505 l 1,19,-1
 607 1700 l 1,20,-1
 713 1750 l 1,21,-1
 723 1750 l 1,22,-1
 723 1544 l 1,23,24
 870 1524 870 1524 956 1454 c 0,25,26
 1080 1353 1080 1353 1080 1157 c 1,27,-1
 890 1067 l 1,28,-1
 880 1067 l 1,29,-1
 880 1157 l 2,30,31
 880 1280 880 1280 815 1337 c 0,32,33
 774 1373 774 1373 723 1385 c 1,34,-1
 723 929 l 1,35,36
 920 917 920 917 1035 817 c 0,37,38
 1170 700 1170 700 1170 462 c 2,39,-1
 1170 350 l 1,40,-1
 723 5 l 1,41,-1
 723 -190 l 1,42,-1
 617 -240 l 1,43,-1
 607 -240 l 1,0,-1
607 936 m 1,44,-1
 607 1386 l 1,45,46
 549 1373 549 1373 509 1331 c 0,47,48
 450 1269 450 1269 450 1157 c 0,49,50
 450 1048 450 1048 495 998 c 0,51,52
 538 950 538 950 607 936 c 1,44,-1
723 748 m 1,53,-1
 723 145 l 1,54,55
 827 162 827 162 898 243 c 0,56,57
 970 325 970 325 970 460 c 0,58,59
 970 590 970 590 911 657 c 0,60,61
 844 733 844 733 723 748 c 1,53,-1
EndSplineSet
Validated: 1
EndChar

StartChar: percent
Encoding: 37 37 8
Width: 1983
GlyphClass: 2
Flags: W
HStem: -40 158<1285.88 1418> 608 158<1422 1553.64> 744 158<428.88 561> 1392 158<565 696.638>
VStem: 150 198<982.436 1230> 778 198<1064 1311.56> 1007 198<198.436 446> 1635 198<280 527.564>
DStem2: 565 28 716 -40 0.422266 0.906472<2.12205 1679.04>
LayerCount: 2
Fore
SplineSet
565 1550 m 1,0,1
 739 1546 739 1546 854 1434 c 0,2,3
 974 1318 974 1318 976 1064 c 1,4,-1
 561 744 l 1,5,6
 386 748 386 748 272 860 c 0,7,8
 152 976 152 976 150 1230 c 1,9,-1
 565 1550 l 1,0,1
1418 -40 m 1,10,11
 1243 -36 1243 -36 1129 76 c 0,12,13
 1009 192 1009 192 1007 446 c 1,14,-1
 1422 766 l 1,15,16
 1596 762 1596 762 1711 650 c 0,17,18
 1831 534 1831 534 1833 280 c 1,19,-1
 1418 -40 l 1,10,11
1420 118 m 24,20,21
 1518 118 1518 118 1576 179 c 0,22,23
 1635 241 1635 241 1635 363 c 0,24,25
 1635 494 1635 494 1570 553 c 0,26,27
 1510 607 1510 607 1420 608 c 24,28,29
 1322 608 1322 608 1264 547 c 0,30,31
 1205 485 1205 485 1205 363 c 0,32,33
 1205 232 1205 232 1270 173 c 0,34,35
 1330 119 1330 119 1420 118 c 24,20,21
706 -40 m 1,36,-1
 565 28 l 1,37,-1
 1274 1550 l 1,38,-1
 1284 1550 l 1,39,-1
 1425 1482 l 1,40,-1
 716 -40 l 1,41,-1
 706 -40 l 1,36,-1
563 902 m 24,42,43
 661 902 661 902 719 963 c 0,44,45
 778 1025 778 1025 778 1147 c 0,46,47
 778 1278 778 1278 713 1337 c 0,48,49
 653 1391 653 1391 563 1392 c 24,50,51
 465 1392 465 1392 407 1331 c 0,52,53
 348 1269 348 1269 348 1147 c 0,54,55
 348 1016 348 1016 413 957 c 0,56,57
 473 903 473 903 563 902 c 24,42,43
EndSplineSet
Validated: 1
EndChar

StartChar: ampersand
Encoding: 38 38 9
Width: 1720
GlyphClass: 2
Flags: W
HStem: -40 188<489.589 665> 768 146<544.082 709> 1530 20G<639.062 759.5>
VStem: 160 200<286.63 528> 250 200<1000.48 1230> 880 200<1157 1315.12>
DStem2: 830 914 709 768 0.641913 -0.766778<3.4686 470.664 588.287 1081.99> 1132 553 1204 468 0.721208 0.692718<0 432.605>
LayerCount: 2
Fore
SplineSet
994 428 m 9,0,-1
 709 768 l 17,1,2
 552 766 552 766 432 649 c 24,3,4
 360 579 360 579 360 454 c 0,5,6
 360 330 360 330 432 243 c 0,7,8
 511 148 511 148 660 148 c 0,9,10
 765 148 765 148 994 428 c 9,0,-1
830 914 m 1,11,-1
 1132 553 l 1,12,-1
 1436 861 l 1,13,-1
 1446 861 l 1,14,-1
 1551 811 l 1,15,-1
 1204 468 l 1,16,-1
 1560 42 l 1,17,-1
 1386 -40 l 1,18,-1
 1376 -40 l 1,19,-1
 1062 341 l 1,20,-1
 665 -40 l 1,21,22
 429 -40 429 -40 292 121 c 0,23,24
 162 274 162 274 160 528 c 1,25,-1
 491 783 l 1,26,27
 412 813 412 813 350 871 c 0,28,29
 250 965 250 965 250 1134 c 2,30,-1
 250 1230 l 1,31,-1
 665 1550 l 1,32,33
 854 1537 854 1537 956 1454 c 0,34,35
 1080 1353 1080 1353 1080 1157 c 1,36,-1
 890 1067 l 1,37,-1
 880 1067 l 9,38,-1
 880 1165 l 18,39,40
 880 1278 880 1278 815 1337 c 0,41,42
 753 1392 753 1392 665 1392 c 0,43,44
 567 1392 567 1392 509 1331 c 0,45,46
 450 1270 450 1270 450 1157 c 0,47,48
 450 1046 450 1046 495 998 c 0,49,50
 557 932 557 932 653 923 c 128,-1,51
 749 914 749 914 830 914 c 1,11,-1
EndSplineSet
Validated: 1
EndChar

StartChar: quotesingle
Encoding: 39 39 10
Width: 466
GlyphClass: 2
Flags: W
HStem: 992 558
VStem: 150 166<1066 1476>
LayerCount: 2
Fore
SplineSet
306 1550 m 1,0,-1
 316 1550 l 1,1,-1
 316 1066 l 1,2,-1
 160 992 l 1,3,-1
 150 992 l 1,4,-1
 150 1476 l 1,5,-1
 306 1550 l 1,0,-1
EndSplineSet
Validated: 3073
EndChar

StartChar: parenleft
Encoding: 40 40 11
Width: 755
GlyphClass: 2
Flags: W
HStem: -240 180<539.998 705>
VStem: 200 200<85.2461 1360>
LayerCount: 2
Fore
SplineSet
705 -240 m 17,0,1
 477 -240 477 -240 335 -95 c 0,2,3
 200 43 200 43 200 260 c 2,4,-1
 200 1360 l 1,5,-1
 705 1750 l 17,6,-1
 705 1570 l 1,7,8
 555 1569 555 1569 472 1467 c 0,9,10
 400 1379 400 1379 400 1250 c 2,11,-1
 400 260 l 2,12,13
 400 128 400 128 472 43 c 0,14,15
 559 -59 559 -59 705 -60 c 9,16,-1
 705 -240 l 17,0,1
EndSplineSet
Validated: 1
EndChar

StartChar: parenright
Encoding: 41 41 12
Width: 755
GlyphClass: 2
Flags: W
HStem: 1570 180<50 215.002>
VStem: 355 200<150 1424.75>
LayerCount: 2
Fore
SplineSet
50 -240 m 17,0,-1
 50 -60 l 1,1,2
 200 -59 200 -59 283 43 c 0,3,4
 355 131 355 131 355 260 c 2,5,-1
 355 1250 l 2,6,7
 355 1382 355 1382 283 1467 c 0,8,9
 196 1569 196 1569 50 1570 c 9,10,-1
 50 1750 l 17,11,12
 278 1750 278 1750 420 1605 c 0,13,14
 555 1467 555 1467 555 1250 c 2,15,-1
 555 150 l 1,16,-1
 50 -240 l 17,0,-1
EndSplineSet
Validated: 1
EndChar

StartChar: asterisk
Encoding: 42 42 13
Width: 1183
GlyphClass: 2
Flags: W
HStem: 1530 20G<629.531 682>
VStem: 500 182<717 935 1251 1469>
DStem2: 311 1360 150 1243 0.865946 -0.500138<0 218.179 533.824 752.003> 150 943 311 826 0.865946 0.500138<80.9012 299.08 614.726 832.904>
LayerCount: 2
Fore
SplineSet
682 1550 m 1,0,-1
 682 1251 l 1,1,-1
 871 1360 l 1,2,-1
 1028 1251 l 1,3,-1
 1033 1243 l 1,4,-1
 773 1093 l 1,5,-1
 1033 943 l 1,6,-1
 1028 935 l 1,7,-1
 871 826 l 1,8,-1
 682 935 l 1,9,-1
 682 717 l 1,10,-1
 510 636 l 1,11,-1
 500 636 l 1,12,-1
 500 935 l 1,13,-1
 311 826 l 1,14,-1
 155 935 l 1,15,-1
 150 943 l 1,16,-1
 409 1093 l 1,17,-1
 150 1243 l 1,18,-1
 155 1251 l 1,19,-1
 311 1360 l 1,20,-1
 500 1251 l 1,21,-1
 500 1469 l 1,22,-1
 672 1550 l 1,23,-1
 682 1550 l 1,0,-1
EndSplineSet
Validated: 3073
EndChar

StartChar: plus
Encoding: 43 43 14
Width: 1214
GlyphClass: 2
Flags: W
HStem: 664 182<231 516 698 983>
VStem: 516 182<379 664 846 1131>
LayerCount: 2
Fore
SplineSet
698 1212 m 1,0,-1
 698 846 l 1,1,-1
 1064 846 l 1,2,-1
 1064 836 l 1,3,-1
 983 664 l 1,4,-1
 698 664 l 1,5,-1
 698 379 l 1,6,-1
 526 298 l 1,7,-1
 516 298 l 1,8,-1
 516 664 l 1,9,-1
 150 664 l 1,10,-1
 150 674 l 1,11,-1
 231 846 l 1,12,-1
 516 846 l 1,13,-1
 516 1131 l 1,14,-1
 688 1212 l 1,15,-1
 698 1212 l 1,0,-1
EndSplineSet
Validated: 3073
EndChar

StartChar: comma
Encoding: 44 44 15
Width: 596
GlyphClass: 2
Flags: W
HStem: -286 564
VStem: 150 296
LayerCount: 2
Fore
SplineSet
340 278 m 1,0,-1
 350 278 l 1,1,2
 433 176 433 176 446 -13 c 1,3,-1
 214 -286 l 1,4,-1
 171 -236 l 1,5,6
 258 -121 258 -121 258 6 c 0,7,8
 258 118 258 118 150 188 c 1,9,-1
 340 278 l 1,0,-1
EndSplineSet
Validated: 3073
EndChar

StartChar: hyphen
Encoding: 45 45 16
Width: 1214
GlyphClass: 2
Flags: W
HStem: 664 182<231 983>
LayerCount: 2
Fore
SplineSet
150 664 m 1,0,-1
 150 674 l 1,1,-1
 231 846 l 1,2,-1
 1064 846 l 1,3,-1
 1064 836 l 1,4,-1
 983 664 l 1,5,-1
 150 664 l 1,0,-1
EndSplineSet
Validated: 3073
EndChar

StartChar: period
Encoding: 46 46 17
Width: 600
GlyphClass: 2
Flags: W
HStem: -40 318
VStem: 200 200<50 188>
LayerCount: 2
Fore
SplineSet
200 -40 m 1,0,-1
 200 188 l 1,1,-1
 390 278 l 1,2,-1
 400 278 l 1,3,-1
 400 50 l 1,4,-1
 210 -40 l 1,5,-1
 200 -40 l 1,0,-1
EndSplineSet
Validated: 3073
EndChar

StartChar: slash
Encoding: 47 47 18
Width: 974
GlyphClass: 2
Flags: W
DStem2: 10 -72 161 -140 0.422626 0.906304<2.18787 1899.6>
LayerCount: 2
Fore
SplineSet
151 -140 m 1,0,-1
 10 -72 l 1,1,-1
 812 1650 l 1,2,-1
 822 1650 l 1,3,-1
 964 1582 l 1,4,-1
 161 -140 l 1,5,-1
 151 -140 l 1,0,-1
EndSplineSet
Validated: 3073
EndChar

StartChar: zero
Encoding: 48 48 19
Width: 1410
GlyphClass: 2
Flags: W
HStem: -40 180<539.998 705> 1370 180<705 870.002>
VStem: 200 200<285.246 1160> 1010 200<350 1224.75>
LayerCount: 2
Fore
SplineSet
705 140 m 0,0,1
 848 140 848 140 938 243 c 0,2,3
 1010 326 1010 326 1010 460 c 2,4,-1
 1010 1050 l 2,5,6
 1010 1184 1010 1184 938 1267 c 0,7,8
 849 1370 849 1370 705 1370 c 0,9,10
 560 1370 560 1370 472 1267 c 0,11,12
 400 1184 400 1184 400 1050 c 2,13,-1
 400 460 l 2,14,15
 400 328 400 328 472 243 c 0,16,17
 559 140 559 140 705 140 c 0,0,1
705 -40 m 1,18,19
 477 -40 477 -40 335 105 c 0,20,21
 200 243 200 243 200 460 c 2,22,-1
 200 1160 l 1,23,-1
 705 1550 l 1,24,25
 933 1550 933 1550 1075 1405 c 0,26,27
 1210 1267 1210 1267 1210 1050 c 2,28,-1
 1210 350 l 1,29,-1
 705 -40 l 1,18,19
EndSplineSet
Validated: 1
EndChar

StartChar: one
Encoding: 49 49 20
Width: 714
GlyphClass: 2
Flags: W
HStem: -40 21G<264 316.222> 1228 115<20 135> 1530 20G<412.068 464>
VStem: 264 200<50 1342>
DStem2: 20 1343 20 1228 0.902591 0.430499<0 219.802>
LayerCount: 2
Fore
SplineSet
264 -40 m 1,0,-1
 264 1342 l 1,1,-1
 20 1228 l 1,2,-1
 20 1343 l 1,3,-1
 454 1550 l 1,4,-1
 464 1550 l 1,5,-1
 464 50 l 1,6,-1
 274 -40 l 1,7,-1
 264 -40 l 1,0,-1
EndSplineSet
Validated: 1
EndChar

StartChar: two
Encoding: 50 50 21
Width: 1333
GlyphClass: 2
Flags: W
HStem: 0 130<375 1116> 1370 180<667 834.118>
VStem: 162 200<936.063 1160> 974 198<893.334 1222.98>
LayerCount: 2
Fore
SplineSet
150 0 m 9,0,-1
 150 10 l 17,1,-1
 208 130 l 1,2,-1
 738 650 l 17,3,4
 974 876 974 876 974 1051 c 0,5,6
 974 1177 974 1177 900 1267 c 0,7,8
 815 1370 815 1370 667 1370 c 0,9,10
 527 1370 527 1370 434 1267 c 0,11,12
 362 1187 362 1187 362 1067 c 0,13,14
 362 1000 362 1000 401 934 c 1,15,-1
 233 853 l 1,16,-1
 223 853 l 1,17,18
 162 961 162 961 162 1160 c 1,19,-1
 667 1550 l 1,20,21
 900 1550 900 1550 1037 1405 c 0,22,23
 1172 1261 1172 1261 1172 1071 c 0,24,25
 1172 804 1172 804 897 579 c 9,26,-1
 375 130 l 1,27,-1
 1173 130 l 1,28,-1
 1173 120 l 1,29,-1
 1116 0 l 1,30,-1
 150 0 l 9,0,-1
EndSplineSet
Validated: 1
EndChar

StartChar: three
Encoding: 51 51 22
Width: 1330
GlyphClass: 2
Flags: W
HStem: -40 180<503.75 665> 751 175<760 848.529> 1380 130<306 810>
VStem: 160 200<282.437 460> 970 200<350 632.993>
DStem2: 442 707 760 926 0.479765 0.877397<344.715 767.042>
LayerCount: 2
Fore
SplineSet
665 -40 m 1,0,1
 432 -40 432 -40 295 105 c 0,2,3
 160 248 160 248 160 460 c 1,4,-1
 350 550 l 1,5,-1
 360 550 l 9,6,-1
 360 460 l 18,7,8
 360 328 360 328 432 243 c 0,9,10
 519 140 519 140 665 140 c 0,11,12
 808 140 808 140 898 243 c 0,13,14
 970 324 970 324 970 460 c 0,15,16
 970 588 970 588 911 657 c 0,17,18
 829 751 829 751 664 751 c 0,19,20
 527 751 527 751 442 707 c 1,21,-1
 810 1380 l 1,22,-1
 249 1380 l 1,23,-1
 249 1390 l 1,24,-1
 306 1510 l 1,25,-1
 1084 1510 l 1,26,-1
 1084 1500 l 1,27,-1
 760 926 l 1,28,29
 914 926 914 926 1035 817 c 0,30,31
 1170 695 1170 695 1170 462 c 2,32,-1
 1170 350 l 1,33,-1
 665 -40 l 1,0,1
EndSplineSet
Validated: 1
EndChar

StartChar: four
Encoding: 52 52 23
Width: 1188
GlyphClass: 2
Flags: W
HStem: -40 21G<738 790.222> 522 130<234 738 938 1031> 1530 20G<885.778 938>
VStem: 738 200<50 522 652 1307>
LayerCount: 2
Fore
SplineSet
738 -40 m 1,0,-1
 738 522 l 1,1,-1
 5 522 l 1,2,-1
 5 532 l 1,3,-1
 62 652 l 1,4,-1
 738 1460 l 1,5,-1
 928 1550 l 1,6,-1
 938 1550 l 1,7,-1
 938 652 l 1,8,-1
 1088 652 l 1,9,-1
 1088 642 l 1,10,-1
 1031 522 l 1,11,-1
 938 522 l 1,12,-1
 938 50 l 1,13,-1
 748 -40 l 1,14,-1
 738 -40 l 1,0,-1
738 652 m 1,15,-1
 738 1307 l 1,16,-1
 234 652 l 1,17,-1
 738 652 l 1,15,-1
EndSplineSet
Validated: 1
EndChar

StartChar: five
Encoding: 53 53 24
Width: 1330
GlyphClass: 2
Flags: W
HStem: -40 180<503.75 665> 751 180<618.856 849.539> 1380 130<514 1026>
VStem: 160 200<282.437 460> 970 200<350 633.476>
DStem2: 250 838 436 843 0.147874 0.989006<32.4496 575.08>
LayerCount: 2
Fore
SplineSet
665 -40 m 1,0,1
 432 -40 432 -40 295 105 c 0,2,3
 160 248 160 248 160 460 c 1,4,-1
 350 550 l 1,5,-1
 360 550 l 9,6,-1
 360 460 l 18,7,8
 360 328 360 328 432 243 c 0,9,10
 519 140 519 140 665 140 c 0,11,12
 808 140 808 140 898 243 c 0,13,14
 970 326 970 326 970 460 c 0,15,16
 970 589 970 589 911 657 c 0,17,18
 829 751 829 751 664 751 c 0,19,20
 527 751 527 751 442 707 c 1,21,-1
 250 838 l 1,22,-1
 343 1460 l 1,23,-1
 449 1510 l 1,24,-1
 1083 1510 l 1,25,-1
 1083 1500 l 1,26,-1
 1026 1380 l 1,27,-1
 514 1380 l 1,28,-1
 436 843 l 17,29,30
 604 843 604 843 664 931 c 1,31,32
 909 930 909 930 1035 817 c 0,33,34
 1170 696 1170 696 1170 462 c 2,35,-1
 1170 350 l 1,36,-1
 665 -40 l 1,0,1
EndSplineSet
Validated: 1
EndChar

StartChar: six
Encoding: 54 54 25
Width: 1410
GlyphClass: 2
Flags: W
HStem: -40 180<543.75 705> 782 180<705 866.25> 1370 180<705 869.862>
VStem: 200 200<282.095 640.151 726 1160> 1010 200<350 639.81 1138 1226.54>
LayerCount: 2
Fore
SplineSet
705 -40 m 1,0,1
 472 -40 472 -40 335 105 c 0,2,3
 200 248 200 248 200 460 c 2,4,-1
 200 1160 l 1,5,-1
 705 1550 l 1,6,7
 946 1550 946 1550 1075 1415.5 c 128,-1,8
 1204 1281 1204 1281 1204 1138 c 1,9,-1
 1020 1050 l 1,10,-1
 1010 1050 l 1,11,12
 1010 1183 1010 1183 938 1267 c 0,13,14
 848 1370 848 1370 705 1370 c 128,-1,15
 562 1370 562 1370 472 1267 c 0,16,17
 400 1184 400 1184 400 1050 c 2,18,-1
 400 726 l 1,19,-1
 705 962 l 1,20,21
 938 962 938 962 1075 817 c 0,22,23
 1210 674 1210 674 1210 462 c 2,24,-1
 1210 350 l 1,25,-1
 705 -40 l 1,0,1
705 140 m 0,26,27
 846 140 846 140 938 243 c 0,28,29
 1010 324 1010 324 1010 460 c 0,30,31
 1010 595 1010 595 938 679 c 0,32,33
 850 782 850 782 705 782 c 0,34,35
 562 782 562 782 472 679 c 0,36,37
 400 596 400 596 400 460 c 0,38,39
 400 327 400 327 472 243 c 0,40,41
 560 140 560 140 705 140 c 0,26,27
EndSplineSet
Validated: 1
EndChar

StartChar: seven
Encoding: 55 55 26
Width: 1204
GlyphClass: 2
Flags: W
HStem: -40 21G<290 342.453> 522 130<194 495 741 1027> 1380 130<177 807>
DStem2: 290 -40 525 66 0.346099 0.938198<180.782 598.218 805.324 1511.17>
LayerCount: 2
Fore
SplineSet
290 -40 m 1,0,-1
 495 522 l 1,1,-1
 137 522 l 1,2,-1
 137 532 l 1,3,-1
 194 652 l 1,4,-1
 542 652 l 1,5,-1
 807 1380 l 1,6,-1
 120 1380 l 1,7,-1
 120 1390 l 1,8,-1
 177 1510 l 1,9,-1
 1054 1510 l 1,10,-1
 1054 1500 l 1,11,-1
 741 652 l 1,12,-1
 1084 652 l 1,13,-1
 1084 642 l 1,14,-1
 1027 522 l 1,15,-1
 693 522 l 1,16,-1
 525 66 l 1,17,-1
 300 -40 l 1,18,-1
 290 -40 l 1,0,-1
EndSplineSet
Validated: 1
EndChar

StartChar: eight
Encoding: 56 56 27
Width: 1330
GlyphClass: 2
Flags: W
HStem: -40 180<501.922 665> 751 180<519.979 802.872> 1530 20G<639.143 759.5>
VStem: 160 200<281.808 527> 250 200<1000.48 1229> 880 200<1106 1311.03> 970 200<350 633.958>
LayerCount: 2
Fore
SplineSet
665 140 m 0,0,1
 808 140 808 140 898 243 c 0,2,3
 970 326 970 326 970 460 c 0,4,5
 970 590 970 590 911 657 c 0,6,7
 826 751 826 751 664 751 c 0,8,9
 535 751 535 751 432 649 c 24,10,11
 360 579 360 579 360 454 c 0,12,13
 360 327 360 327 432 243 c 0,14,15
 519 140 519 140 665 140 c 0,0,1
665 -40 m 1,16,17
 429 -40 429 -40 292 121 c 0,18,19
 162 274 162 274 160 527 c 1,20,-1
 491 783 l 1,21,22
 412 813 412 813 350 871 c 0,23,24
 250 965 250 965 250 1134 c 2,25,-1
 250 1229 l 1,26,-1
 665 1550 l 1,27,28
 854 1537 854 1537 956 1454 c 0,29,30
 1080 1353 1080 1353 1080 1106 c 1,31,-1
 830 914 l 1,32,33
 956 887 956 887 1035 817 c 0,34,35
 1170 697 1170 697 1170 462 c 2,36,-1
 1170 350 l 1,37,-1
 665 -40 l 1,16,17
664 931 m 0,38,39
 765 931 765 931 823 992 c 0,40,41
 880 1053 880 1053 880 1165 c 0,42,43
 880 1279 880 1279 815 1337 c 0,44,45
 753 1392 753 1392 665 1392 c 0,46,47
 567 1392 567 1392 509 1331 c 0,48,49
 450 1270 450 1270 450 1157 c 0,50,51
 450 1046 450 1046 495 998 c 0,52,53
 557 931 557 931 664 931 c 0,38,39
EndSplineSet
Validated: 1
EndChar

StartChar: nine
Encoding: 57 57 28
Width: 1410
GlyphClass: 2
Flags: W
HStem: -40 180<540.138 705> 548 180<543.75 705> 1370 180<705 866.25>
VStem: 200 200<283.455 372 870.19 1160> 1010 200<350 784 869.849 1227.91>
LayerCount: 2
Fore
SplineSet
705 -40 m 1,0,1
 464 -40 464 -40 335 94.5 c 128,-1,2
 206 229 206 229 206 372 c 1,3,-1
 390 460 l 1,4,-1
 400 460 l 1,5,6
 400 327 400 327 472 243 c 0,7,8
 562 140 562 140 705 140 c 128,-1,9
 848 140 848 140 938 243 c 0,10,11
 1010 326 1010 326 1010 460 c 2,12,-1
 1010 784 l 1,13,-1
 705 548 l 1,14,15
 472 548 472 548 335 693 c 0,16,17
 200 836 200 836 200 1048 c 2,18,-1
 200 1160 l 1,19,-1
 705 1550 l 1,20,21
 938 1550 938 1550 1075 1405 c 0,22,23
 1210 1262 1210 1262 1210 1050 c 2,24,-1
 1210 350 l 1,25,-1
 705 -40 l 1,0,1
705 728 m 0,26,27
 848 728 848 728 938 831 c 0,28,29
 1010 914 1010 914 1010 1050 c 0,30,31
 1010 1183 1010 1183 938 1267 c 0,32,33
 850 1370 850 1370 705 1370 c 0,34,35
 564 1370 564 1370 472 1267 c 0,36,37
 400 1186 400 1186 400 1050 c 0,38,39
 400 915 400 915 472 831 c 0,40,41
 560 728 560 728 705 728 c 0,26,27
EndSplineSet
Validated: 1
EndChar

StartChar: colon
Encoding: 58 58 29
Width: 600
GlyphClass: 2
Flags: W
HStem: -40 21G<200 252.222>
VStem: 200 200<50 188 684 822>
LayerCount: 2
Fore
SplineSet
200 594 m 1,0,-1
 200 822 l 1,1,-1
 390 912 l 1,2,-1
 400 912 l 1,3,-1
 400 684 l 1,4,-1
 210 594 l 1,5,-1
 200 594 l 1,0,-1
200 -40 m 1,6,-1
 200 188 l 1,7,-1
 390 278 l 1,8,-1
 400 278 l 1,9,-1
 400 50 l 1,10,-1
 210 -40 l 1,11,-1
 200 -40 l 1,6,-1
EndSplineSet
Validated: 3073
EndChar

StartChar: semicolon
Encoding: 59 59 30
Width: 596
GlyphClass: 2
Flags: W
VStem: 200 200<684 822>
LayerCount: 2
Fore
SplineSet
340 278 m 1,0,-1
 350 278 l 1,1,2
 433 176 433 176 446 -13 c 1,3,-1
 214 -286 l 1,4,-1
 171 -236 l 1,5,6
 258 -121 258 -121 258 6 c 0,7,8
 258 118 258 118 150 188 c 1,9,-1
 340 278 l 1,0,-1
200 594 m 1,10,-1
 200 822 l 1,11,-1
 390 912 l 1,12,-1
 400 912 l 1,13,-1
 400 684 l 1,14,-1
 210 594 l 1,15,-1
 200 594 l 1,10,-1
EndSplineSet
Validated: 3073
EndChar

StartChar: less
Encoding: 60 60 31
Width: 1338
GlyphClass: 2
Flags: W
DStem2: 369 787 150 664 0.919983 -0.391958<0 831.535>
LayerCount: 2
Fore
SplineSet
150 664 m 1,0,-1
 150 674 l 1,1,-1
 232 847 l 1,2,-1
 1089 1215 l 1,3,-1
 1138 1112 l 1,4,-1
 1138 1102 l 1,5,-1
 369 787 l 1,6,-1
 1138 461 l 1,7,-1
 1138 451 l 1,8,-1
 1056 278 l 1,9,-1
 150 664 l 1,0,-1
EndSplineSet
Validated: 3073
EndChar

StartChar: equal
Encoding: 61 61 32
Width: 1214
GlyphClass: 2
Flags: W
HStem: 482 182<231 983> 846 182<231 983>
LayerCount: 2
Fore
SplineSet
150 846 m 1,0,-1
 150 856 l 1,1,-1
 231 1028 l 1,2,-1
 1064 1028 l 1,3,-1
 1064 1018 l 1,4,-1
 983 846 l 1,5,-1
 150 846 l 1,0,-1
150 482 m 1,6,-1
 150 492 l 1,7,-1
 231 664 l 1,8,-1
 1064 664 l 1,9,-1
 1064 654 l 1,10,-1
 983 482 l 1,11,-1
 150 482 l 1,6,-1
EndSplineSet
Validated: 3073
EndChar

StartChar: greater
Encoding: 62 62 33
Width: 1338
GlyphClass: 2
Flags: W
DStem2: 282 1215 200 1032 0.919983 -0.391958<0 831.535> 200 391 249 278 0.918868 0.394566<0.438527 830.897>
LayerCount: 2
Fore
SplineSet
1188 829 m 1,0,-1
 1188 819 l 1,1,-1
 1106 646 l 1,2,-1
 249 278 l 1,3,-1
 200 381 l 1,4,-1
 200 391 l 1,5,-1
 969 706 l 1,6,-1
 200 1032 l 1,7,-1
 200 1042 l 1,8,-1
 282 1215 l 1,9,-1
 1188 829 l 1,0,-1
EndSplineSet
Validated: 3073
EndChar

StartChar: question
Encoding: 63 63 34
Width: 1310
GlyphClass: 2
Flags: W
HStem: -40 21G<555 607.222> 1370 180<655 816.25>
VStem: 150 200<936.124 1160> 555 200<50 188> 573 168<454 549.75> 962 198<880.343 1223.1>
LayerCount: 2
Fore
SplineSet
655 1550 m 1,0,1
 888 1550 888 1550 1025 1405 c 0,2,3
 1160 1262 1160 1262 1160 1050 c 0,4,5
 1160 814 1160 814 831 591 c 24,6,7
 744 532 744 532 741 454 c 1,8,-1
 583 379 l 1,9,-1
 573 379 l 1,10,11
 574 570 574 570 736 680 c 0,12,13
 962 833 962 833 962 1051 c 0,14,15
 962 1180 962 1180 888 1267 c 0,16,17
 799 1370 799 1370 655 1370 c 0,18,19
 509 1370 509 1370 422 1267 c 0,20,21
 350 1183 350 1183 350 1067 c 0,22,23
 350 1002 350 1002 389 934 c 1,24,-1
 221 853 l 1,25,-1
 211 853 l 1,26,27
 150 961 150 961 150 1160 c 1,28,-1
 655 1550 l 1,0,1
555 -40 m 1,29,-1
 555 188 l 1,30,-1
 745 278 l 1,31,-1
 755 278 l 1,32,-1
 755 50 l 1,33,-1
 565 -40 l 1,34,-1
 555 -40 l 1,29,-1
EndSplineSet
Validated: 1
EndChar

StartChar: at
Encoding: 64 64 35
Width: 1220
GlyphClass: 2
Flags: W
HStem: -450 180<489.998 655> -40 158<733.874 870> 1120 20G<629.103 749.5>
VStem: 150 200<-124.754 750> 455 200<198.207 429> 870 200<118 591 749 905.119>
LayerCount: 2
Fore
SplineSet
870 -40 m 1,0,1
 684 -27 684 -27 579 56 c 0,2,3
 455 154 455 154 455 353 c 2,4,-1
 455 429 l 1,5,-1
 870 749 l 1,6,7
 870 871 870 871 805 927 c 0,8,9
 741 982 741 982 655 982 c 0,10,11
 547 982 547 982 447 887 c 0,12,13
 350 796 350 796 350 640 c 2,14,-1
 350 50 l 2,15,16
 350 -81 350 -81 422 -167 c 0,17,18
 508 -270 508 -270 655 -270 c 0,19,20
 799 -270 799 -270 888 -167 c 1,21,-1
 942 -227 l 1,22,-1
 655 -450 l 1,23,24
 427 -450 427 -450 285 -305 c 0,25,26
 150 -167 150 -167 150 50 c 2,27,-1
 150 750 l 1,28,-1
 655 1140 l 1,29,30
 844 1127 844 1127 946 1044 c 0,31,32
 1070 943 1070 943 1070 747 c 2,33,-1
 1070 50 l 1,34,-1
 880 -40 l 1,35,-1
 870 -40 l 1,0,1
870 118 m 9,36,-1
 870 591 l 17,37,38
 764 590 764 590 714 530 c 0,39,40
 655 459 655 459 655 356 c 0,41,42
 655 231 655 231 720 173 c 0,43,44
 782 118 782 118 870 118 c 9,36,-1
EndSplineSet
Validated: 1
EndChar

StartChar: A
Encoding: 65 65 36
Width: 1410
GlyphClass: 2
Flags: W
HStem: -40 21G<200 252.222 1010 1061.3> 522 130<107 200 400 813> 1370 180<705 870.002>
VStem: 200 200<50 522 652 1160> 1010 200<52 1224.75>
LayerCount: 2
Fore
SplineSet
50 522 m 1,0,-1
 50 532 l 1,1,-1
 107 652 l 1,2,-1
 200 652 l 1,3,-1
 200 1160 l 1,4,-1
 705 1550 l 1,5,6
 933 1550 933 1550 1075 1405 c 0,7,8
 1210 1267 1210 1267 1210 1050 c 2,9,-1
 1210 52 l 1,10,-1
 1020 -40 l 1,11,-1
 1010 -40 l 1,12,-1
 1010 1050 l 2,13,14
 1010 1184 1010 1184 938 1267 c 0,15,16
 849 1370 849 1370 705 1370 c 0,17,18
 558 1370 558 1370 472 1267 c 0,19,20
 400 1181 400 1181 400 1050 c 2,21,-1
 400 652 l 1,22,-1
 870 652 l 1,23,-1
 870 642 l 1,24,-1
 813 522 l 1,25,-1
 400 522 l 1,26,-1
 400 50 l 1,27,-1
 210 -40 l 1,28,-1
 200 -40 l 1,29,-1
 200 522 l 1,30,-1
 50 522 l 1,0,-1
EndSplineSet
Validated: 1
EndChar

StartChar: B
Encoding: 66 66 37
Width: 1302
GlyphClass: 2
Flags: W
HStem: -40 21G<200 420.5> 1530 20G<347.778 400 595.982 723>
VStem: 200 200<100 1460> 845 159<1076.12 1282.84> 996 186<427.489 706.174>
LayerCount: 2
Fore
SplineSet
200 -40 m 1,0,-1
 200 1460 l 1,1,-1
 390 1550 l 1,2,-1
 400 1550 l 1,3,-1
 400 100 l 1,4,5
 646 144 646 144 804 263 c 0,6,7
 996 408 996 408 996 575 c 0,8,9
 996 722 996 722 812 822 c 0,10,11
 713 876 713 876 627 900 c 1,12,13
 845 1023 845 1023 845 1181 c 0,14,15
 845 1282 845 1282 698 1354 c 0,16,17
 564 1421 564 1421 409 1441 c 1,18,-1
 638 1550 l 1,19,-1
 648 1550 l 1,20,21
 798 1513 798 1513 887 1438 c 0,22,23
 1004 1340 1004 1340 1004 1207 c 24,24,25
 1004 1090 1004 1090 870 985 c 1,26,27
 960 960 960 960 1038 897 c 0,28,29
 1182 781 1182 781 1182 618 c 0,30,31
 1182 376 1182 376 933 207 c 0,32,33
 631 4 631 4 210 -40 c 1,34,-1
 200 -40 l 1,0,-1
EndSplineSet
Validated: 3073
EndChar

StartChar: C
Encoding: 67 67 38
Width: 1410
GlyphClass: 2
Flags: W
HStem: -40 180<539.998 705> 1370 180<705 870.002>
VStem: 200 200<285.246 1160> 1010 200<350 460 1050 1224.75>
LayerCount: 2
Fore
SplineSet
705 -40 m 1,0,1
 477 -40 477 -40 335 105 c 0,2,3
 200 243 200 243 200 460 c 2,4,-1
 200 1160 l 1,5,-1
 705 1550 l 1,6,7
 933 1550 933 1550 1075 1405 c 0,8,9
 1210 1267 1210 1267 1210 1050 c 1,10,-1
 1020 960 l 1,11,-1
 1010 960 l 1,12,-1
 1010 1050 l 18,13,14
 1010 1184 1010 1184 938 1267 c 0,15,16
 849 1370 849 1370 705 1370 c 0,17,18
 560 1370 560 1370 472 1267 c 0,19,20
 400 1184 400 1184 400 1050 c 2,21,-1
 400 460 l 2,22,23
 400 328 400 328 472 243 c 0,24,25
 559 140 559 140 705 140 c 0,26,27
 848 140 848 140 938 243 c 0,28,29
 1010 326 1010 326 1010 460 c 1,30,-1
 1200 550 l 1,31,-1
 1210 550 l 1,32,-1
 1210 350 l 1,33,-1
 705 -40 l 1,0,1
EndSplineSet
Validated: 1
EndChar

StartChar: D
Encoding: 68 68 39
Width: 1338
GlyphClass: 2
Flags: W
HStem: -40 21G<200 399> 1530 20G<347.778 400 597.982 767>
VStem: 200 200<100 1460> 1026 192<591.665 1044.84>
LayerCount: 2
Fore
SplineSet
200 -40 m 1,0,-1
 200 1460 l 1,1,-1
 390 1550 l 1,2,-1
 400 1550 l 1,3,-1
 400 100 l 1,4,5
 638 189 638 189 797 326 c 0,6,7
 1026 522 1026 522 1026 816 c 0,8,9
 1026 1072 1026 1072 839 1245 c 0,10,11
 705 1369 705 1369 411 1441 c 1,12,-1
 640 1550 l 1,13,-1
 650 1550 l 1,14,15
 884 1488 884 1488 1023 1341 c 0,16,17
 1218 1137 1218 1137 1218 849 c 24,18,19
 1218 463 1218 463 870 220 c 0,20,21
 588 22 588 22 210 -40 c 1,22,-1
 200 -40 l 1,0,-1
EndSplineSet
Validated: 3073
EndChar

StartChar: E
Encoding: 69 69 40
Width: 1133
GlyphClass: 2
Flags: W
HStem: 0 130<107 200 400 1026> 522 130<107 200 400 813> 1380 130<400 883>
VStem: 200 200<130 522 652 1380>
LayerCount: 2
Fore
SplineSet
50 0 m 1,0,-1
 50 10 l 1,1,-1
 107 130 l 1,2,-1
 200 130 l 1,3,-1
 200 522 l 1,4,-1
 50 522 l 1,5,-1
 50 532 l 1,6,-1
 107 652 l 1,7,-1
 200 652 l 1,8,-1
 200 1460 l 1,9,-1
 306 1510 l 1,10,-1
 940 1510 l 1,11,-1
 940 1500 l 1,12,-1
 883 1380 l 1,13,-1
 400 1380 l 1,14,-1
 400 652 l 1,15,-1
 870 652 l 1,16,-1
 870 642 l 1,17,-1
 813 522 l 1,18,-1
 400 522 l 1,19,-1
 400 130 l 1,20,-1
 1083 130 l 1,21,-1
 1083 120 l 1,22,-1
 1026 0 l 1,23,-1
 50 0 l 1,0,-1
EndSplineSet
Validated: 1
EndChar

StartChar: F
Encoding: 70 70 41
Width: 1060
GlyphClass: 2
Flags: W
HStem: -40 21G<200 252.222> 522 130<107 200 400 813> 1380 130<400 883>
VStem: 200 200<50 522 652 1380>
LayerCount: 2
Fore
SplineSet
200 -40 m 1,0,-1
 200 522 l 1,1,-1
 50 522 l 1,2,-1
 50 532 l 1,3,-1
 107 652 l 1,4,-1
 200 652 l 1,5,-1
 200 1460 l 1,6,-1
 306 1510 l 1,7,-1
 940 1510 l 1,8,-1
 940 1500 l 1,9,-1
 883 1380 l 1,10,-1
 400 1380 l 1,11,-1
 400 652 l 1,12,-1
 870 652 l 1,13,-1
 870 642 l 1,14,-1
 813 522 l 1,15,-1
 400 522 l 1,16,-1
 400 50 l 1,17,-1
 210 -40 l 1,18,-1
 200 -40 l 1,0,-1
EndSplineSet
Validated: 1
EndChar

StartChar: G
Encoding: 71 71 42
Width: 1410
GlyphClass: 2
Flags: W
HStem: -40 180<539.998 705> 522 130<704 1010> 1370 180<705 870.002>
VStem: 200 200<285.246 1160> 1010 200<350 522 1050 1224.75>
LayerCount: 2
Fore
SplineSet
705 -40 m 1,0,1
 477 -40 477 -40 335 105 c 0,2,3
 200 243 200 243 200 460 c 2,4,-1
 200 1160 l 1,5,-1
 705 1550 l 1,6,7
 933 1550 933 1550 1075 1405 c 0,8,9
 1210 1267 1210 1267 1210 1050 c 1,10,-1
 1020 960 l 1,11,-1
 1010 960 l 1,12,-1
 1010 1050 l 18,13,14
 1010 1184 1010 1184 938 1267 c 0,15,16
 849 1370 849 1370 705 1370 c 0,17,18
 560 1370 560 1370 472 1267 c 0,19,20
 400 1184 400 1184 400 1050 c 2,21,-1
 400 460 l 2,22,23
 400 328 400 328 472 243 c 0,24,25
 559 140 559 140 705 140 c 0,26,27
 848 140 848 140 938 243 c 0,28,29
 1010 326 1010 326 1010 460 c 10,30,-1
 1010 522 l 17,31,-1
 647 522 l 1,32,-1
 647 532 l 1,33,-1
 704 652 l 1,34,-1
 1210 652 l 1,35,-1
 1210 350 l 1,36,-1
 705 -40 l 1,0,1
EndSplineSet
Validated: 1
EndChar

StartChar: H
Encoding: 72 72 43
Width: 1390
GlyphClass: 2
Flags: W
HStem: -40 21G<200 252.222 990 1042.22> 522 130<107 200 400 813> 1530 20G<347.778 400 1137.78 1190>
VStem: 200 200<50 522 652 1460> 990 200<50 1460>
LayerCount: 2
Fore
SplineSet
990 -40 m 1,0,-1
 990 1460 l 1,1,-1
 1180 1550 l 1,2,-1
 1190 1550 l 1,3,-1
 1190 50 l 1,4,-1
 1000 -40 l 1,5,-1
 990 -40 l 1,0,-1
200 -40 m 1,6,-1
 200 522 l 1,7,-1
 50 522 l 1,8,-1
 50 532 l 1,9,-1
 107 652 l 1,10,-1
 200 652 l 1,11,-1
 200 1460 l 1,12,-1
 390 1550 l 1,13,-1
 400 1550 l 1,14,-1
 400 652 l 1,15,-1
 870 652 l 1,16,-1
 870 642 l 1,17,-1
 813 522 l 1,18,-1
 400 522 l 1,19,-1
 400 50 l 1,20,-1
 210 -40 l 1,21,-1
 200 -40 l 1,6,-1
EndSplineSet
Validated: 1
EndChar

StartChar: I
Encoding: 73 73 44
Width: 600
GlyphClass: 2
Flags: W
HStem: -40 21G<200 252.222> 1530 20G<347.778 400>
VStem: 200 200<50 1460>
LayerCount: 2
Fore
SplineSet
200 -40 m 1,0,-1
 200 1460 l 1,1,-1
 390 1550 l 1,2,-1
 400 1550 l 1,3,-1
 400 50 l 1,4,-1
 210 -40 l 1,5,-1
 200 -40 l 1,0,-1
EndSplineSet
Validated: 3073
EndChar

StartChar: J
Encoding: 74 74 45
Width: 1290
GlyphClass: 2
Flags: W
HStem: -40 180<419.998 585> 1328 182<498 890>
VStem: 80 200<285.246 460> 890 200<350 1328>
LayerCount: 2
Fore
SplineSet
585 -40 m 1,0,1
 357 -40 357 -40 215 105 c 0,2,3
 80 243 80 243 80 460 c 1,4,-1
 270 550 l 1,5,-1
 280 550 l 1,6,-1
 280 460 l 18,7,8
 280 326 280 326 352 243 c 0,9,10
 441 140 441 140 585 140 c 0,11,12
 730 140 730 140 818 243 c 0,13,14
 890 326 890 326 890 460 c 2,15,-1
 890 1328 l 1,16,-1
 417 1328 l 1,17,-1
 417 1338 l 1,18,-1
 498 1510 l 1,19,-1
 1090 1510 l 1,20,-1
 1090 350 l 1,21,-1
 585 -40 l 1,0,1
EndSplineSet
Validated: 1
EndChar

StartChar: K
Encoding: 75 75 46
Width: 1364
GlyphClass: 2
Flags: W
HStem: -40 21G<200 252.222 1014 1080.41> 1530 20G<347.778 400 1107.78 1160>
VStem: 200 200<50 267.125 355 1460> 960 200<906.796 1460>
DStem2: 696 784 510 700 0.572943 -0.819596<0 220.538 339.275 865.564>
LayerCount: 2
Fore
SplineSet
200 -40 m 1,0,-1
 200 1460 l 1,1,-1
 390 1550 l 1,2,-1
 400 1550 l 1,3,-1
 400 355 l 1,4,5
 539 402 539 402 663 481 c 1,6,-1
 510 700 l 1,7,-1
 686 784 l 1,8,-1
 696 784 l 1,9,-1
 822 603 l 1,10,11
 960 777 960 777 960 1258 c 2,12,-1
 960 1460 l 1,13,-1
 1150 1550 l 1,14,-1
 1160 1550 l 1,15,-1
 1160 1262 l 2,16,17
 1160 766 1160 766 888 509 c 1,18,-1
 1214 43 l 1,19,-1
 1038 -40 l 1,20,-1
 1028 -40 l 1,21,-1
 729 387 l 1,22,23
 576 301 576 301 400 255 c 1,24,-1
 400 50 l 1,25,-1
 210 -40 l 1,26,-1
 200 -40 l 1,0,-1
EndSplineSet
Validated: 3073
EndChar

StartChar: L
Encoding: 76 76 47
Width: 1088
GlyphClass: 2
Flags: W
HStem: 0 130<107 200 400 1026> 1530 20G<347.778 400>
VStem: 200 200<130 1460>
LayerCount: 2
Fore
SplineSet
50 0 m 1,0,-1
 50 10 l 1,1,-1
 107 130 l 1,2,-1
 200 130 l 1,3,-1
 200 1460 l 1,4,-1
 390 1550 l 1,5,-1
 400 1550 l 1,6,-1
 400 130 l 1,7,-1
 1083 130 l 1,8,-1
 1083 120 l 1,9,-1
 1026 0 l 1,10,-1
 50 0 l 1,0,-1
EndSplineSet
Validated: 1
EndChar

StartChar: M
Encoding: 77 77 48
Width: 2220
GlyphClass: 2
Flags: W
HStem: -40 21G<200 252.222 1010 1062.22 1820 1871.3> 1370 180<705 870.313 1515 1680>
VStem: 200 200<50 1160> 1010 200<50 1227.22> 1820 200<52 1224.75>
CounterMasks: 1 38
LayerCount: 2
Fore
SplineSet
200 -40 m 1,0,-1
 200 1160 l 1,1,-1
 705 1550 l 1,2,3
 935 1550 935 1550 1075 1405 c 0,4,5
 1130 1348 1130 1348 1163 1278 c 1,6,-1
 1515 1550 l 1,7,8
 1743 1550 1743 1550 1885 1405 c 0,9,10
 2020 1267 2020 1267 2020 1050 c 2,11,-1
 2020 52 l 1,12,-1
 1830 -40 l 1,13,-1
 1820 -40 l 1,14,-1
 1820 1050 l 2,15,16
 1820 1184 1820 1184 1748 1267 c 0,17,18
 1659 1370 1659 1370 1515 1370 c 0,19,20
 1368 1370 1368 1370 1282 1267 c 0,21,22
 1210 1181 1210 1181 1210 1050 c 2,23,-1
 1210 52 l 1,24,-1
 1210 50 l 1,25,-1
 1020 -40 l 1,26,-1
 1010 -40 l 1,27,-1
 1010 1050 l 2,28,29
 1010 1184 1010 1184 938 1267 c 0,30,31
 849 1370 849 1370 705 1370 c 0,32,33
 558 1370 558 1370 472 1267 c 0,34,35
 400 1181 400 1181 400 1050 c 2,36,-1
 400 50 l 1,37,-1
 210 -40 l 1,38,-1
 200 -40 l 1,0,-1
EndSplineSet
Validated: 1
EndChar

StartChar: N
Encoding: 78 78 49
Width: 1410
GlyphClass: 2
Flags: W
HStem: -40 21G<200 252.222 1010 1061.3> 1370 180<705 870.002>
VStem: 200 200<50 1160> 1010 200<52 1224.75>
LayerCount: 2
Fore
SplineSet
200 -40 m 9,0,-1
 200 1160 l 1,1,-1
 705 1550 l 1,2,3
 933 1550 933 1550 1075 1405 c 0,4,5
 1210 1267 1210 1267 1210 1050 c 2,6,-1
 1210 52 l 1,7,-1
 1020 -40 l 1,8,-1
 1010 -40 l 9,9,-1
 1010 1050 l 2,10,11
 1010 1184 1010 1184 938 1267 c 0,12,13
 849 1370 849 1370 705 1370 c 0,14,15
 558 1370 558 1370 472 1267 c 0,16,17
 400 1181 400 1181 400 1050 c 2,18,-1
 400 50 l 17,19,-1
 210 -40 l 1,20,-1
 200 -40 l 9,0,-1
EndSplineSet
Validated: 1
EndChar

StartChar: O
Encoding: 79 79 50
Width: 1410
GlyphClass: 2
Flags: W
HStem: -40 180<539.998 705> 1370 180<705 870.002>
VStem: 200 200<285.246 1160> 1010 200<350 1224.75>
LayerCount: 2
Fore
SplineSet
705 140 m 0,0,1
 848 140 848 140 938 243 c 0,2,3
 1010 326 1010 326 1010 460 c 2,4,-1
 1010 1050 l 2,5,6
 1010 1184 1010 1184 938 1267 c 0,7,8
 849 1370 849 1370 705 1370 c 0,9,10
 560 1370 560 1370 472 1267 c 0,11,12
 400 1184 400 1184 400 1050 c 2,13,-1
 400 460 l 2,14,15
 400 328 400 328 472 243 c 0,16,17
 559 140 559 140 705 140 c 0,0,1
705 -40 m 1,18,19
 477 -40 477 -40 335 105 c 0,20,21
 200 243 200 243 200 460 c 2,22,-1
 200 1160 l 1,23,-1
 705 1550 l 1,24,25
 933 1550 933 1550 1075 1405 c 0,26,27
 1210 1267 1210 1267 1210 1050 c 2,28,-1
 1210 350 l 1,29,-1
 705 -40 l 1,18,19
EndSplineSet
Validated: 1
EndChar

StartChar: P
Encoding: 80 80 51
Width: 1279
GlyphClass: 2
Flags: W
HStem: -40 21G<200 252.222> 255 100<400 516.938> 1441 109<640 679>
VStem: 200 200<50 268.134 355 1460> 973 186<755.155 1129.97>
LayerCount: 2
Fore
SplineSet
200 -40 m 1,0,-1
 200 1460 l 1,1,-1
 390 1550 l 1,2,-1
 400 1550 l 1,3,-1
 400 355 l 1,4,5
 593 414 593 414 772 556 c 0,6,7
 973 715 973 715 973 951 c 0,8,9
 973 1135 973 1135 819 1267 c 0,10,11
 679 1387 679 1387 411 1441 c 1,12,-1
 640 1550 l 1,13,-1
 650 1550 l 1,14,15
 847 1511 847 1511 988 1371 c 0,16,17
 1159 1202 1159 1202 1159 952 c 0,18,19
 1159 669 1159 669 837 454 c 0,20,21
 639 322 639 322 400 255 c 1,22,-1
 400 50 l 1,23,-1
 210 -40 l 1,24,-1
 200 -40 l 1,0,-1
EndSplineSet
Validated: 3073
EndChar

StartChar: Q
Encoding: 81 81 52
Width: 1410
GlyphClass: 2
Flags: W
HStem: -40 180<539.998 705> 1370 180<705 870.002>
VStem: 200 200<285.246 1160> 1010 200<350 1224.75>
DStem2: 849 497 663 413 0.572492 -0.81991<0 229.14 347.181 515.288>
LayerCount: 2
Fore
SplineSet
705 -40 m 1,0,1
 477 -40 477 -40 335 105 c 0,2,3
 200 243 200 243 200 460 c 2,4,-1
 200 1160 l 1,5,-1
 705 1550 l 1,6,7
 933 1550 933 1550 1075 1405 c 0,8,9
 1210 1267 1210 1267 1210 1050 c 2,10,-1
 1210 350 l 1,11,-1
 1042 220 l 1,12,-1
 1166 43 l 1,13,-1
 990 -40 l 1,14,-1
 980 -40 l 1,15,-1
 884 98 l 1,16,-1
 705 -40 l 1,0,1
980 309 m 1,17,18
 1010 374 1010 374 1010 460 c 2,19,-1
 1010 1050 l 2,20,21
 1010 1184 1010 1184 938 1267 c 0,22,23
 849 1370 849 1370 705 1370 c 128,-1,24
 561 1370 561 1370 472 1267 c 0,25,26
 400 1183 400 1183 400 1050 c 2,27,-1
 400 460 l 2,28,29
 400 328 400 328 472 243 c 0,30,31
 559 140 559 140 705 140 c 0,32,33
 777 140 777 140 836 166 c 1,34,-1
 663 413 l 1,35,-1
 839 497 l 1,36,-1
 849 497 l 1,37,-1
 980 309 l 1,17,18
EndSplineSet
Validated: 1
EndChar

StartChar: R
Encoding: 82 82 53
Width: 1334
GlyphClass: 2
Flags: W
HStem: -40 21G<200 252.222 1013.98 1080.41> 1441 109<640 687>
VStem: 200 200<50 267.797 355 1460> 973 186<753.525 1127.74>
DStem2: 696 784 510 700 0.572943 -0.819596<0 220.538 347.801 865.564>
LayerCount: 2
Fore
SplineSet
200 -40 m 1,0,-1
 200 1460 l 1,1,-1
 390 1550 l 1,2,-1
 400 1550 l 1,3,-1
 400 355 l 1,4,5
 533 397 533 397 663 481 c 1,6,-1
 510 700 l 1,7,-1
 686 784 l 1,8,-1
 696 784 l 1,9,-1
 822 603 l 1,10,11
 973 750 973 750 973 951 c 0,12,13
 973 1127 973 1127 819 1267 c 0,14,15
 687 1385 687 1385 411 1441 c 1,16,-1
 640 1550 l 1,17,-1
 650 1550 l 1,18,19
 847 1511 847 1511 988 1371 c 0,20,21
 1159 1201 1159 1201 1159 952 c 0,22,23
 1159 698 1159 698 897 497 c 1,24,-1
 1214 43 l 1,25,-1
 1038 -40 l 1,26,-1
 1028 -40 l 1,27,-1
 728 388 l 1,28,29
 575 304 575 304 400 255 c 1,30,-1
 400 50 l 1,31,-1
 210 -40 l 1,32,-1
 200 -40 l 1,0,-1
EndSplineSet
Validated: 3073
EndChar

StartChar: S
Encoding: 83 83 54
Width: 1330
GlyphClass: 2
Flags: W
HStem: -40 180<503.75 665> 751 180<522.93 851.645> 1530 20G<639.062 759.5>
VStem: 160 200<282.437 460> 250 200<999.988 1230> 880 200<1157 1315.12> 970 200<350 635.405>
LayerCount: 2
Fore
SplineSet
665 -40 m 1,0,1
 432 -40 432 -40 295 105 c 0,2,3
 160 248 160 248 160 460 c 1,4,-1
 350 550 l 1,5,-1
 360 550 l 9,6,-1
 360 460 l 18,7,8
 360 328 360 328 432 243 c 0,9,10
 519 140 519 140 665 140 c 0,11,12
 808 140 808 140 898 243 c 0,13,14
 970 326 970 326 970 460 c 0,15,16
 970 589 970 589 911 657 c 0,17,18
 829 751 829 751 664 751 c 0,19,20
 479 751 479 751 350 871 c 0,21,22
 250 964 250 964 250 1134 c 2,23,-1
 250 1230 l 1,24,-1
 665 1550 l 1,25,26
 854 1537 854 1537 956 1454 c 0,27,28
 1080 1353 1080 1353 1080 1157 c 1,29,-1
 890 1067 l 1,30,-1
 880 1067 l 9,31,-1
 880 1157 l 18,32,33
 880 1280 880 1280 815 1337 c 0,34,35
 752 1392 752 1392 665 1392 c 0,36,37
 568 1392 568 1392 509 1331 c 128,-1,38
 450 1270 450 1270 450 1157 c 0,39,40
 450 1048 450 1048 495 998 c 0,41,42
 555 931 555 931 664 931 c 0,43,44
 903 931 903 931 1035 817 c 0,45,46
 1170 700 1170 700 1170 462 c 2,47,-1
 1170 350 l 1,48,-1
 665 -40 l 1,0,1
EndSplineSet
Validated: 1
EndChar

StartChar: T
Encoding: 84 84 55
Width: 1066
GlyphClass: 2
Flags: W
HStem: -40 21G<433 485.222> 1380 130<62 433 633 1004>
VStem: 433 200<50 1380>
LayerCount: 2
Fore
SplineSet
433 -40 m 1,0,-1
 433 1380 l 1,1,-1
 5 1380 l 1,2,-1
 5 1390 l 1,3,-1
 62 1510 l 1,4,-1
 1061 1510 l 1,5,-1
 1061 1500 l 1,6,-1
 1004 1380 l 1,7,-1
 633 1380 l 1,8,-1
 633 50 l 1,9,-1
 443 -40 l 1,10,-1
 433 -40 l 1,0,-1
EndSplineSet
Validated: 1
EndChar

StartChar: U
Encoding: 85 85 56
Width: 1410
GlyphClass: 2
Flags: W
HStem: -40 180<539.998 705> 1530 20G<348.696 400 1157.78 1210>
VStem: 200 200<285.246 1458> 1010 200<350 1460>
LayerCount: 2
Fore
SplineSet
705 -40 m 1,0,1
 477 -40 477 -40 335 105 c 0,2,3
 200 243 200 243 200 460 c 2,4,-1
 200 1458 l 1,5,-1
 390 1550 l 1,6,-1
 400 1550 l 9,7,-1
 400 460 l 2,8,9
 400 326 400 326 472 243 c 0,10,11
 561 140 561 140 705 140 c 0,12,13
 852 140 852 140 938 243 c 0,14,15
 1010 329 1010 329 1010 460 c 2,16,-1
 1010 1460 l 17,17,-1
 1200 1550 l 1,18,-1
 1210 1550 l 9,19,-1
 1210 350 l 1,20,-1
 705 -40 l 1,0,1
EndSplineSet
Validated: 1
EndChar

StartChar: V
Encoding: 86 86 57
Width: 1191
GlyphClass: 2
Flags: W
HStem: -40 21G<508.236 567.195> 1530 20G<135.805 194.717 1062.33 1120.96>
DStem2: 188 1550 5 1468 0.320371 -0.947292<19.0501 1388.24> 630 234 698 42 0.317594 0.948227<0 1376.09>
LayerCount: 2
Fore
SplineSet
515 -40 m 1,0,-1
 5 1468 l 1,1,-1
 178 1550 l 1,2,-1
 188 1550 l 1,3,-1
 630 234 l 1,4,-1
 1069 1550 l 1,5,-1
 1079 1550 l 1,6,-1
 1186 1499 l 1,7,-1
 698 42 l 1,8,-1
 525 -40 l 1,9,-1
 515 -40 l 1,0,-1
EndSplineSet
Validated: 3073
EndChar

StartChar: W
Encoding: 87 87 58
Width: 2220
GlyphClass: 2
Flags: W
HStem: -40 180<539.998 705 1349.69 1515> 1530 20G<348.696 400 1157.78 1210 1967.78 2020>
VStem: 200 200<285.246 1458> 1010 200<282.778 1460> 1820 200<350 1460>
CounterMasks: 1 38
LayerCount: 2
Fore
SplineSet
705 -40 m 1,0,1
 477 -40 477 -40 335 105 c 0,2,3
 200 243 200 243 200 460 c 2,4,-1
 200 1458 l 1,5,-1
 390 1550 l 1,6,-1
 400 1550 l 1,7,-1
 400 460 l 2,8,9
 400 326 400 326 472 243 c 0,10,11
 561 140 561 140 705 140 c 0,12,13
 852 140 852 140 938 243 c 0,14,15
 1010 329 1010 329 1010 460 c 2,16,-1
 1010 1458 l 1,17,-1
 1010 1460 l 1,18,-1
 1200 1550 l 1,19,-1
 1210 1550 l 1,20,-1
 1210 460 l 2,21,22
 1210 326 1210 326 1282 243 c 0,23,24
 1371 140 1371 140 1515 140 c 0,25,26
 1662 140 1662 140 1748 243 c 0,27,28
 1820 329 1820 329 1820 460 c 2,29,-1
 1820 1460 l 1,30,-1
 2010 1550 l 1,31,-1
 2020 1550 l 1,32,-1
 2020 350 l 1,33,-1
 1515 -40 l 1,34,35
 1285 -40 1285 -40 1145 105 c 0,36,37
 1090 162 1090 162 1057 232 c 1,38,-1
 705 -40 l 1,0,1
EndSplineSet
Validated: 1
EndChar

StartChar: X
Encoding: 88 88 59
Width: 1278
GlyphClass: 2
Flags: W
HStem: -40 21G<163 227.52 982.138 1046.44> 1530 20G<232.831 296.831 1050.48 1115>
DStem2: 285 1550 100 1467 0.509537 -0.860449<0 742.432 986.434 1729.38> 100 10 215 -40 0.530197 0.847875<18.5789 772.45 1062.44 1816.31>
LayerCount: 2
Fore
SplineSet
215 -40 m 1,0,-1
 205 -40 l 1,1,-1
 100 10 l 1,2,-1
 544 719 l 1,3,-1
 100 1467 l 1,4,-1
 275 1550 l 1,5,-1
 285 1550 l 1,6,-1
 663 911 l 1,7,-1
 1063 1550 l 1,8,-1
 1073 1550 l 1,9,-1
 1178 1500 l 1,10,-1
 735 791 l 1,11,-1
 1178 42 l 1,12,-1
 1004 -40 l 1,13,-1
 994 -40 l 1,14,-1
 615 599 l 1,15,-1
 215 -40 l 1,0,-1
EndSplineSet
Validated: 3073
EndChar

StartChar: Y
Encoding: 89 89 60
Width: 1278
GlyphClass: 2
Flags: W
HStem: -40 21G<516 568.222> 522 130<286 466 772 992> 1530 20G<232.831 293.814 1053.72 1115>
VStem: 516 200<50 522>
DStem2: 285 1550 100 1467 0.403273 -0.91508<1.34602 894.734> 664 690 772 652 0.420863 0.907124<10.9825 948.051>
LayerCount: 2
Fore
SplineSet
516 -40 m 1,0,-1
 516 522 l 1,1,-1
 229 522 l 1,2,-1
 229 532 l 1,3,-1
 286 652 l 1,4,-1
 466 652 l 1,5,-1
 100 1467 l 1,6,-1
 275 1550 l 1,7,-1
 285 1550 l 1,8,-1
 664 690 l 1,9,-1
 1063 1550 l 1,10,-1
 1073 1550 l 1,11,-1
 1178 1500 l 1,12,-1
 772 652 l 1,13,-1
 1049 652 l 1,14,-1
 1049 642 l 1,15,-1
 992 522 l 1,16,-1
 716 522 l 1,17,-1
 716 50 l 1,18,-1
 526 -40 l 1,19,-1
 516 -40 l 1,0,-1
EndSplineSet
Validated: 1
EndChar

StartChar: Z
Encoding: 90 90 61
Width: 1267
GlyphClass: 2
Flags: W
HStem: 0 130<420 1060> 522 130<207 401 678 1040> 1380 130<220 822>
DStem2: 150 10 420 130 0.443021 0.896511<227.197 570.212 809.475 1525.93>
LayerCount: 2
Fore
SplineSet
150 0 m 1,0,-1
 150 10 l 1,1,-1
 401 522 l 1,2,-1
 150 522 l 1,3,-1
 150 532 l 1,4,-1
 207 652 l 1,5,-1
 465 652 l 1,6,-1
 822 1380 l 1,7,-1
 163 1380 l 1,8,-1
 163 1390 l 1,9,-1
 220 1510 l 1,10,-1
 1097 1510 l 1,11,-1
 1097 1500 l 1,12,-1
 678 652 l 1,13,-1
 1097 652 l 1,14,-1
 1097 642 l 1,15,-1
 1040 522 l 1,16,-1
 614 522 l 1,17,-1
 420 130 l 1,18,-1
 1117 130 l 1,19,-1
 1117 120 l 1,20,-1
 1060 0 l 1,21,-1
 150 0 l 1,0,-1
EndSplineSet
Validated: 1
EndChar

StartChar: bracketleft
Encoding: 91 91 62
Width: 864
GlyphClass: 2
Flags: W
HStem: -240 140<400 753> 1610 140<400 753>
VStem: 200 200<-100 1610>
LayerCount: 2
Fore
SplineSet
200 -240 m 1,0,-1
 200 1660 l 1,1,-1
 390 1750 l 1,2,-1
 814 1750 l 1,3,-1
 814 1740 l 1,4,-1
 753 1610 l 1,5,-1
 400 1610 l 1,6,-1
 400 -100 l 1,7,-1
 814 -100 l 1,8,-1
 814 -110 l 1,9,-1
 753 -240 l 1,10,-1
 200 -240 l 1,0,-1
EndSplineSet
Validated: 3073
EndChar

StartChar: backslash
Encoding: 92 92 63
Width: 974
GlyphClass: 2
Flags: W
DStem2: 161 1650 10 1582 0.422626 -0.906304<0 1897.41>
LayerCount: 2
Fore
SplineSet
812 -140 m 1,0,-1
 10 1582 l 1,1,-1
 151 1650 l 1,2,-1
 161 1650 l 1,3,-1
 964 -72 l 1,4,-1
 822 -140 l 1,5,-1
 812 -140 l 1,0,-1
EndSplineSet
Validated: 3073
EndChar

StartChar: bracketright
Encoding: 93 93 64
Width: 864
GlyphClass: 2
Flags: W
HStem: -240 140<111 464> 1610 140<111 464>
VStem: 464 200<-100 1610>
LayerCount: 2
Fore
SplineSet
50 -240 m 1,0,-1
 50 -230 l 1,1,-1
 111 -100 l 1,2,-1
 464 -100 l 1,3,-1
 464 1610 l 1,4,-1
 50 1610 l 1,5,-1
 50 1620 l 1,6,-1
 111 1750 l 1,7,-1
 664 1750 l 1,8,-1
 664 -150 l 1,9,-1
 474 -240 l 1,10,-1
 50 -240 l 1,0,-1
EndSplineSet
Validated: 3073
EndChar

StartChar: asciicircum
Encoding: 94 94 65
Width: 1382
GlyphClass: 2
Flags: W
HStem: 1006 544
DStem2: 150 1054 263 1005 0.727518 0.686088<48.5913 602.785> 772 1550 673 1378 0.705571 -0.708639<52.0343 580.943>
LayerCount: 2
Fore
SplineSet
772 1550 m 1,0,-1
 1232 1088 l 1,1,-1
 1059 1006 l 1,2,-1
 1049 1006 l 1,3,-1
 673 1378 l 1,4,-1
 263 1005 l 1,5,-1
 253 1005 l 1,6,-1
 150 1054 l 1,7,-1
 589 1468 l 1,8,-1
 762 1550 l 1,9,-1
 772 1550 l 1,0,-1
EndSplineSet
Validated: 3073
EndChar

StartChar: underscore
Encoding: 95 95 66
Width: 1214
GlyphClass: 2
Flags: W
HStem: -410 182<231 983>
LayerCount: 2
Fore
SplineSet
150 -410 m 1,0,-1
 150 -400 l 1,1,-1
 231 -228 l 1,2,-1
 1064 -228 l 1,3,-1
 1064 -238 l 1,4,-1
 983 -410 l 1,5,-1
 150 -410 l 1,0,-1
EndSplineSet
Validated: 3073
EndChar

StartChar: grave
Encoding: 96 96 67
Width: 648
GlyphClass: 2
Flags: W
HStem: 1150 400
VStem: 150 348
LayerCount: 2
Fore
SplineSet
326 1550 m 1,0,-1
 336 1550 l 1,1,-1
 498 1205 l 1,2,-1
 381 1150 l 1,3,-1
 371 1150 l 1,4,-1
 150 1466 l 1,5,-1
 326 1550 l 1,0,-1
EndSplineSet
Validated: 3073
EndChar

StartChar: a
Encoding: 97 97 68
Width: 1080
GlyphClass: 2
Flags: W
HStem: -40 21G<422 540.748 730 782.222> 1120 20G<489.11 609.5>
VStem: 100 200<198.207 428> 730 200<50 127 199.661 514.172 699 904.887>
LayerCount: 2
Fore
SplineSet
515 118 m 0,0,1
 620 118 620 118 671 179 c 0,2,3
 730 250 730 250 730 356 c 0,4,5
 730 478 730 478 665 536 c 0,6,7
 603 591 603 591 515 591 c 0,8,9
 410 591 410 591 359 530 c 0,10,11
 300 459 300 459 300 356 c 0,12,13
 300 231 300 231 365 173 c 0,14,15
 428 118 428 118 515 118 c 0,0,1
515 -40 m 1,16,17
 329 -27 329 -27 224 56 c 0,18,19
 100 154 100 154 100 353 c 2,20,-1
 100 428 l 1,21,-1
 515 749 l 1,22,23
 641 740 641 740 730 699 c 1,24,-1
 730 747 l 2,25,26
 730 868 730 868 665 927 c 0,27,28
 603 982 603 982 515 982 c 0,29,30
 417 982 417 982 359 921 c 1,31,-1
 304 977 l 1,32,-1
 515 1140 l 1,33,34
 704 1127 704 1127 806 1044 c 0,35,36
 930 943 930 943 930 747 c 2,37,-1
 930 50 l 1,38,-1
 740 -40 l 1,39,-1
 730 -40 l 1,40,-1
 730 127 l 1,41,-1
 515 -40 l 1,16,17
EndSplineSet
Validated: 1
EndChar

StartChar: b
Encoding: 98 98 69
Width: 1180
GlyphClass: 2
Flags: W
HStem: -40 21G<519.5 640.857> 1120 20G<589.252 709.5> 1530 20G<347.778 400>
VStem: 200 200<195.872 902.815 973 1460> 830 200<281 904.887>
LayerCount: 2
Fore
SplineSet
615 118 m 0,0,1
 710 118 710 118 770 179 c 128,-1,2
 830 240 830 240 830 353 c 2,3,-1
 830 747 l 2,4,5
 830 868 830 868 765 927 c 0,6,7
 704 982 704 982 615 982 c 0,8,9
 518 982 518 982 459 921 c 128,-1,10
 400 860 400 860 400 747 c 2,11,-1
 400 353 l 2,12,13
 400 228 400 228 463 173 c 128,-1,14
 526 118 526 118 615 118 c 0,0,1
615 -40 m 1,15,16
 424 -27 424 -27 324 56 c 0,17,18
 200 159 200 159 200 353 c 2,19,-1
 200 1460 l 1,20,-1
 390 1550 l 1,21,-1
 400 1550 l 1,22,-1
 400 973 l 1,23,-1
 615 1140 l 1,24,25
 804 1127 804 1127 906 1044 c 0,26,27
 1030 943 1030 943 1030 747 c 2,28,-1
 1030 281 l 1,29,-1
 615 -40 l 1,15,16
EndSplineSet
Validated: 1
EndChar

StartChar: c
Encoding: 99 99 70
Width: 1130
GlyphClass: 2
Flags: W
HStem: -40 21G<470.5 590.857> 1120 20G<539.143 659.5>
VStem: 150 200<195.376 819> 780 200<281 353 747 904.887>
LayerCount: 2
Fore
SplineSet
565 -40 m 1,0,1
 376 -27 376 -27 274 56 c 0,2,3
 150 158 150 158 150 353 c 2,4,-1
 150 819 l 1,5,-1
 565 1140 l 1,6,7
 754 1127 754 1127 856 1044 c 0,8,9
 980 943 980 943 980 747 c 1,10,-1
 790 657 l 1,11,-1
 780 657 l 9,12,-1
 780 747 l 18,13,14
 780 868 780 868 715 927 c 0,15,16
 653 982 653 982 565 982 c 0,17,18
 467 981 467 981 409 921 c 0,19,20
 350 860 350 860 350 747 c 2,21,-1
 350 353 l 2,22,23
 350 232 350 232 415 173 c 0,24,25
 477 118 477 118 565 118 c 0,26,27
 663 119 663 119 721 179 c 0,28,29
 780 240 780 240 780 353 c 1,30,-1
 970 443 l 1,31,-1
 980 443 l 1,32,-1
 980 281 l 1,33,-1
 565 -40 l 1,0,1
EndSplineSet
Validated: 1
EndChar

StartChar: d
Encoding: 100 100 71
Width: 1180
GlyphClass: 2
Flags: W
HStem: -40 21G<470.5 590.857> 1120 20G<539.143 628.5> 1530 20G<927.778 980>
VStem: 150 200<195.376 819> 780 200<281 903.749 1091 1460>
LayerCount: 2
Fore
SplineSet
565 118 m 0,0,1
 661 118 661 118 720.5 179 c 128,-1,2
 780 240 780 240 780 353 c 2,3,-1
 780 747 l 2,4,5
 780 864 780 864 715 927 c 0,6,7
 658 982 658 982 565 982 c 0,8,9
 470 982 470 982 410 921 c 128,-1,10
 350 860 350 860 350 747 c 2,11,-1
 350 353 l 2,12,13
 350 228 350 228 415 173 c 128,-1,14
 480 118 480 118 565 118 c 0,0,1
565 -40 m 1,15,16
 376 -27 376 -27 274 56 c 0,17,18
 150 158 150 158 150 353 c 2,19,-1
 150 819 l 1,20,-1
 565 1140 l 1,21,22
 692 1131 692 1131 780 1091 c 1,23,-1
 780 1460 l 1,24,-1
 970 1550 l 1,25,-1
 980 1550 l 1,26,-1
 980 281 l 1,27,-1
 565 -40 l 1,15,16
EndSplineSet
Validated: 1
EndChar

StartChar: e
Encoding: 101 101 72
Width: 1130
GlyphClass: 2
Flags: W
HStem: -40 21G<470.5 590.857> 1120 20G<539.143 659.5>
VStem: 150 200<397 819> 780 200<281 353 747 905.119>
DStem2: 350 397 365 250 0.777775 0.628543<0 583.88>
LayerCount: 2
Fore
SplineSet
565 -40 m 1,0,1
 376 -27 376 -27 274 56 c 0,2,3
 150 158 150 158 150 353 c 2,4,-1
 150 819 l 1,5,-1
 565 1140 l 1,6,7
 754 1127 754 1127 856 1044 c 0,8,9
 980 943 980 943 980 747 c 1,10,-1
 365 250 l 1,11,12
 383 200 383 200 415 173 c 0,13,14
 480 118 480 118 563 118 c 0,15,16
 650 118 650 118 721 179 c 0,17,18
 780 230 780 230 780 353 c 1,19,-1
 970 443 l 1,20,-1
 980 443 l 1,21,-1
 980 281 l 1,22,-1
 565 -40 l 1,0,1
350 397 m 1,23,-1
 780 746 l 1,24,25
 780 872 780 872 714.5 927 c 128,-1,26
 649 982 649 982 565 982 c 0,27,28
 468 982 468 982 409 921 c 128,-1,29
 350 860 350 860 350 747 c 2,30,-1
 350 397 l 1,23,-1
EndSplineSet
Validated: 1
EndChar

StartChar: f
Encoding: 102 102 73
Width: 911
GlyphClass: 2
Flags: W
HStem: -40 21G<200 252.222> 756 130<107 200 400 703> 1530 20G<589.143 711>
VStem: 200 200<50 756 886 1229>
LayerCount: 2
Fore
SplineSet
200 -40 m 1,0,-1
 200 756 l 1,1,-1
 50 756 l 1,2,-1
 50 766 l 1,3,-1
 107 886 l 1,4,-1
 200 886 l 1,5,-1
 200 1229 l 1,6,-1
 615 1550 l 1,7,8
 807 1536 807 1536 906 1454 c 1,9,-1
 765 1337 l 1,10,11
 697 1392 697 1392 615 1392 c 0,12,13
 519 1392 519 1392 459 1331 c 0,14,15
 400 1271 400 1271 400 1157 c 2,16,-1
 400 886 l 1,17,-1
 760 886 l 1,18,-1
 760 876 l 1,19,-1
 703 756 l 1,20,-1
 400 756 l 1,21,-1
 400 50 l 1,22,-1
 210 -40 l 1,23,-1
 200 -40 l 1,0,-1
EndSplineSet
Validated: 1
EndChar

StartChar: g
Encoding: 103 103 74
Width: 1130
GlyphClass: 2
Flags: W
HStem: -450 21G<460.5 590.857> -40 21G<470.5 590.904> 1120 20G<539.143 659.5>
VStem: 150 200<195.376 819> 780 200<-129 126 194.284 905.615>
LayerCount: 2
Fore
SplineSet
562.5 118 m 128,-1,1
 644 118 644 118 721 179 c 0,2,3
 780 228 780 228 780 353 c 2,4,-1
 780 747 l 2,5,6
 780 872 780 872 714.5 927 c 128,-1,7
 649 982 649 982 565 982 c 0,8,9
 468 982 468 982 409 921 c 128,-1,10
 350 860 350 860 350 747 c 2,11,-1
 350 353 l 2,12,13
 350 227 350 227 415 173 c 0,14,0
 481 118 481 118 562.5 118 c 128,-1,1
565 -40 m 1,15,16
 376 -27 376 -27 274 56 c 0,17,18
 150 158 150 158 150 353 c 2,19,-1
 150 819 l 1,20,-1
 565 1140 l 1,21,22
 754 1127 754 1127 856 1044 c 0,23,24
 980 944 980 944 980 747 c 2,25,-1
 980 -129 l 1,26,-1
 565 -450 l 1,27,28
 356 -436 356 -436 276 -356 c 1,29,-1
 415 -237 l 1,30,31
 474 -292 474 -292 564 -292 c 0,32,33
 657 -292 657 -292 721 -231 c 0,34,35
 780 -175 780 -175 780 -57 c 2,36,-1
 780 126 l 1,37,-1
 565 -40 l 1,15,16
EndSplineSet
Validated: 1
EndChar

StartChar: h
Encoding: 104 104 75
Width: 1180
GlyphClass: 2
Flags: W
HStem: -40 21G<200 252.222 830 882.222> 1120 20G<589.252 709.5> 1530 20G<347.778 400>
VStem: 200 200<50 902.204 973 1460> 830 200<50 900.316>
LayerCount: 2
Fore
SplineSet
200 -40 m 1,0,-1
 200 1460 l 1,1,-1
 390 1550 l 1,2,-1
 400 1550 l 1,3,-1
 400 973 l 1,4,-1
 615 1140 l 1,5,6
 804 1127 804 1127 906 1044 c 0,7,8
 1030 943 1030 943 1030 747 c 2,9,-1
 1030 50 l 1,10,-1
 840 -40 l 1,11,-1
 830 -40 l 1,12,-1
 830 747 l 2,13,14
 830 863 830 863 765 927 c 0,15,16
 709 982 709 982 615 982 c 0,17,18
 518 982 518 982 459 920.5 c 128,-1,19
 400 859 400 859 400 747 c 2,20,-1
 400 50 l 1,21,-1
 210 -40 l 1,22,-1
 200 -40 l 1,0,-1
EndSplineSet
Validated: 1
EndChar

StartChar: i
Encoding: 105 105 76
Width: 600
GlyphClass: 2
Flags: W
HStem: -40 21G<200 252.222> 1120 20G<347.778 400> 1530 20G<347.778 400>
VStem: 200 200<50 1050 1322 1460>
LayerCount: 2
Fore
SplineSet
200 -40 m 1,0,-1
 200 1050 l 1,1,-1
 390 1140 l 1,2,-1
 400 1140 l 1,3,-1
 400 50 l 1,4,-1
 210 -40 l 1,5,-1
 200 -40 l 1,0,-1
400 1550 m 1,6,-1
 400 1322 l 1,7,-1
 210 1232 l 1,8,-1
 200 1232 l 1,9,-1
 200 1460 l 1,10,-1
 390 1550 l 1,11,-1
 400 1550 l 1,6,-1
EndSplineSet
Validated: 3073
EndChar

StartChar: j
Encoding: 106 106 77
Width: 600
GlyphClass: 2
Flags: W
HStem: 1120 20G<347.778 400> 1530 20G<347.778 400>
VStem: 200 200<-122 1050 1322 1460>
LayerCount: 2
Fore
SplineSet
63 -383 m 1,0,1
 -15 -294 -15 -294 -15 -292 c 1,2,3
 81 -291 81 -291 141 -231 c 0,4,5
 200 -171 200 -171 200 -57 c 2,6,-1
 200 1050 l 1,7,-1
 390 1140 l 1,8,-1
 400 1140 l 1,9,-1
 400 -122 l 1,10,-1
 63 -383 l 1,0,1
400 1550 m 1,11,-1
 400 1322 l 1,12,-1
 210 1232 l 1,13,-1
 200 1232 l 1,14,-1
 200 1460 l 1,15,-1
 390 1550 l 1,16,-1
 400 1550 l 1,11,-1
EndSplineSet
Validated: 1
EndChar

StartChar: k
Encoding: 107 107 78
Width: 1180
GlyphClass: 2
Flags: W
HStem: -40 21G<200 252.222 830 882.222> 1120 20G<905.593 961.222> 1530 20G<347.778 400>
VStem: 200 200<50 634.815 688 1460> 830 200<50 632.809>
DStem2: 929 1140 776 844 0.76027 0.649607<-308.605 0>
LayerCount: 2
Fore
SplineSet
200 -40 m 1,0,-1
 200 1460 l 1,1,-1
 390 1550 l 1,2,-1
 400 1550 l 1,3,-1
 400 688 l 1,4,-1
 929 1140 l 1,5,-1
 939 1140 l 1,6,-1
 1029 1059 l 1,7,-1
 776 844 l 1,8,9
 850 820 850 820 906 776 c 0,10,11
 1030 676 1030 676 1030 479 c 2,12,-1
 1030 50 l 1,13,-1
 840 -40 l 1,14,-1
 830 -40 l 1,15,-1
 830 479 l 2,16,17
 830 599 830 599 765 659 c 0,18,19
 705 714 705 714 615 714 c 0,20,21
 519 714 519 714 459.5 653 c 128,-1,22
 400 592 400 592 400 479 c 2,23,-1
 400 50 l 1,24,-1
 210 -40 l 1,25,-1
 200 -40 l 1,0,-1
EndSplineSet
Validated: 1
EndChar

StartChar: l
Encoding: 108 108 79
Width: 600
GlyphClass: 2
Flags: W
HStem: -40 21G<200 252.222> 1530 20G<347.778 400>
VStem: 200 200<50 1460>
LayerCount: 2
Fore
SplineSet
200 -40 m 1,0,-1
 200 1460 l 1,1,-1
 390 1550 l 1,2,-1
 400 1550 l 1,3,-1
 400 50 l 1,4,-1
 210 -40 l 1,5,-1
 200 -40 l 1,0,-1
EndSplineSet
Validated: 3073
EndChar

StartChar: m
Encoding: 109 109 80
Width: 1760
GlyphClass: 2
Flags: W
HStem: -40 21G<150 202.222 780 832.222 1410 1462.22> 1120 20G<539.143 660.5 1169.14 1289.5>
VStem: 150 200<50 819> 780 200<50 903.541> 1410 200<50 905.119>
CounterMasks: 1 38
LayerCount: 2
Fore
SplineSet
150 -40 m 1,0,-1
 150 819 l 1,1,-1
 565 1140 l 1,2,3
 756 1127 756 1127 856 1044 c 0,4,5
 908 1001 908 1001 939 942 c 1,6,-1
 1195 1140 l 1,7,8
 1384 1127 1384 1127 1486 1044 c 0,9,10
 1610 943 1610 943 1610 747 c 2,11,-1
 1610 50 l 1,12,-1
 1420 -40 l 1,13,-1
 1410 -40 l 1,14,-1
 1410 747 l 2,15,16
 1410 872 1410 872 1345 927 c 128,-1,17
 1280 982 1280 982 1195 982 c 0,18,19
 1101 982 1101 982 1039 921 c 0,20,21
 980 863 980 863 980 747 c 2,22,-1
 980 50 l 1,23,-1
 790 -40 l 1,24,-1
 780 -40 l 1,25,-1
 780 747 l 2,26,27
 780 872 780 872 715 927 c 128,-1,28
 650 982 650 982 565 982 c 0,29,30
 471 982 471 982 409 921 c 0,31,32
 350 863 350 863 350 747 c 2,33,-1
 350 50 l 1,34,-1
 160 -40 l 1,35,-1
 150 -40 l 1,0,-1
EndSplineSet
Validated: 1
EndChar

StartChar: n
Encoding: 110 110 81
Width: 1130
GlyphClass: 2
Flags: W
HStem: -40 21G<150 202.222 780 832.222> 1120 20G<539.143 659.5>
VStem: 150 200<50 819> 780 200<50 905.119>
LayerCount: 2
Fore
SplineSet
150 -40 m 9,0,-1
 150 819 l 1,1,-1
 565 1140 l 1,2,3
 754 1127 754 1127 856 1044 c 0,4,5
 980 943 980 943 980 747 c 2,6,-1
 980 50 l 1,7,-1
 790 -40 l 1,8,-1
 780 -40 l 9,9,-1
 780 747 l 2,10,11
 780 872 780 872 715 927 c 128,-1,12
 650 982 650 982 565 982 c 0,13,14
 471 982 471 982 409 921 c 0,15,16
 350 863 350 863 350 747 c 2,17,-1
 350 50 l 17,18,-1
 160 -40 l 1,19,-1
 150 -40 l 9,0,-1
EndSplineSet
Validated: 1
EndChar

StartChar: o
Encoding: 111 111 82
Width: 1130
GlyphClass: 2
Flags: W
HStem: -40 21G<470.5 590.857> 1120 20G<539.143 659.5>
VStem: 150 200<195.376 819> 780 200<281 905.119>
LayerCount: 2
Fore
SplineSet
565 -40 m 1,0,1
 376 -27 376 -27 274 56 c 0,2,3
 150 158 150 158 150 353 c 2,4,-1
 150 819 l 1,5,-1
 565 1140 l 1,6,7
 754 1127 754 1127 856 1044 c 0,8,9
 980 943 980 943 980 747 c 2,10,-1
 980 281 l 1,11,-1
 565 -40 l 1,0,1
565 118 m 0,12,13
 660 118 660 118 720 179 c 128,-1,14
 780 240 780 240 780 353 c 10,15,-1
 780 747 l 2,16,17
 780 872 780 872 714.5 927 c 128,-1,18
 649 982 649 982 565 982 c 0,19,20
 470 982 470 982 410 921 c 128,-1,21
 350 860 350 860 350 747 c 2,22,-1
 350 353 l 2,23,24
 350 228 350 228 415 173 c 128,-1,25
 480 118 480 118 565 118 c 0,12,13
EndSplineSet
Validated: 1
EndChar

StartChar: p
Encoding: 112 112 83
Width: 1180
GlyphClass: 2
Flags: W
HStem: -450 21G<200 252.222> -40 21G<551.5 640.857> 1120 20G<589.143 709.5>
VStem: 200 200<-360 9 193.974 819> 830 200<281 904.624>
LayerCount: 2
Fore
SplineSet
615 118 m 128,-1,1
 699 118 699 118 771 179 c 0,2,3
 830 231 830 231 830 353 c 2,4,-1
 830 747 l 2,5,6
 830 872 830 872 764.5 927 c 128,-1,7
 699 982 699 982 615 982 c 0,8,9
 519 982 519 982 459.5 921 c 128,-1,10
 400 860 400 860 400 747 c 2,11,-1
 400 353 l 2,12,13
 400 228 400 228 465.5 173 c 128,-1,0
 531 118 531 118 615 118 c 128,-1,1
615 -40 m 1,14,15
 488 -31 488 -31 400 9 c 1,16,-1
 400 -360 l 1,17,-1
 210 -450 l 1,18,-1
 200 -450 l 1,19,-1
 200 819 l 1,20,-1
 615 1140 l 1,21,22
 804 1127 804 1127 906 1044 c 0,23,24
 1030 942 1030 942 1030 747 c 2,25,-1
 1030 281 l 1,26,-1
 615 -40 l 1,14,15
EndSplineSet
Validated: 1
EndChar

StartChar: q
Encoding: 113 113 84
Width: 1180
GlyphClass: 2
Flags: W
HStem: -450 21G<780 832.222> -40 21G<470.5 590.748> 1120 20G<539.143 660.5>
VStem: 150 200<198.699 819> 780 200<-360 127 197.185 904.128>
LayerCount: 2
Fore
SplineSet
565 118 m 0,0,1
 661 118 661 118 720.5 179 c 128,-1,2
 780 240 780 240 780 353 c 2,3,-1
 780 747 l 2,4,5
 780 872 780 872 715 927 c 128,-1,6
 650 982 650 982 565 982 c 0,7,8
 468 982 468 982 409 921 c 128,-1,9
 350 860 350 860 350 747 c 2,10,-1
 350 353 l 2,11,12
 350 234 350 234 415 173 c 0,13,14
 474 118 474 118 565 118 c 0,0,1
565 -40 m 1,15,16
 376 -27 376 -27 274 56 c 0,17,18
 150 155 150 155 150 353 c 2,19,-1
 150 819 l 1,20,-1
 565 1140 l 1,21,22
 756 1127 756 1127 856 1044 c 0,23,24
 980 941 980 941 980 747 c 2,25,-1
 980 -360 l 1,26,-1
 790 -450 l 1,27,-1
 780 -450 l 1,28,-1
 780 127 l 1,29,-1
 565 -40 l 1,15,16
EndSplineSet
Validated: 1
EndChar

StartChar: r
Encoding: 114 114 85
Width: 1030
GlyphClass: 2
Flags: W
HStem: -40 21G<150 202.222> 1120 20G<539.143 659.5>
VStem: 150 200<50 819> 780 200<747 905.119>
LayerCount: 2
Fore
SplineSet
150 -40 m 9,0,-1
 150 819 l 1,1,-1
 565 1140 l 1,2,3
 754 1127 754 1127 856 1044 c 0,4,5
 980 943 980 943 980 747 c 1,6,-1
 790 657 l 1,7,-1
 780 657 l 9,8,-1
 780 747 l 2,9,10
 780 872 780 872 714.5 927 c 128,-1,11
 649 982 649 982 564 982 c 0,12,13
 477 982 477 982 409 921 c 0,14,15
 350 868 350 868 350 747 c 2,16,-1
 350 50 l 17,17,-1
 160 -40 l 1,18,-1
 150 -40 l 9,0,-1
EndSplineSet
Validated: 1
EndChar

StartChar: s
Encoding: 115 115 86
Width: 1070
GlyphClass: 2
Flags: W
HStem: -40 21G<440.5 560.857> 543 166<406.954 693.871> 982 158<535 629.821>
VStem: 120 200<195.113 353> 162 190<738.073 851> 750 200<281 487.321>
LayerCount: 2
Fore
SplineSet
535 -40 m 1,0,1
 346 -27 346 -27 244 56 c 0,2,3
 120 157 120 157 120 353 c 1,4,-1
 310 443 l 1,5,-1
 320 443 l 9,6,-1
 320 353 l 18,7,8
 320 232 320 232 385 173 c 0,9,10
 447 118 447 118 535 118 c 0,11,12
 631 118 631 118 690.5 179 c 128,-1,13
 750 240 750 240 750 352 c 0,14,15
 750 465 750 465 683 507 c 0,16,17
 625 543 625 543 534 543 c 0,18,19
 300 543 300 543 208 651 c 0,20,21
 162 706 162 706 162 851 c 1,22,-1
 535 1140 l 1,23,24
 681 1137 681 1137 780 1052 c 0,25,26
 860 983 860 983 879 872 c 1,27,-1
 689 782 l 1,28,-1
 679 782 l 9,29,-1
 679 811 l 2,30,31
 679 883 679 883 649 920 c 0,32,33
 599 982 599 982 512 982 c 0,34,35
 426 982 426 982 383 928 c 0,36,37
 352 889 352 889 352 832 c 0,38,39
 352 768 352 768 406 730 c 0,40,41
 436 709 436 709 534 709 c 24,42,43
 749 709 749 709 843 626 c 0,44,45
 950 532 950 532 950 281 c 9,46,-1
 535 -40 l 1,0,1
EndSplineSet
Validated: 1
EndChar

StartChar: t
Encoding: 116 116 87
Width: 750
GlyphClass: 2
Flags: W
HStem: -40 21G<275 327.222> 970 130<62 275 475 688> 1530 20G<422.778 475>
VStem: 275 200<50 970 1100 1460>
LayerCount: 2
Fore
SplineSet
275 -40 m 1,0,-1
 275 970 l 1,1,-1
 5 970 l 1,2,-1
 5 980 l 1,3,-1
 62 1100 l 1,4,-1
 275 1100 l 1,5,-1
 275 1460 l 1,6,-1
 465 1550 l 1,7,-1
 475 1550 l 1,8,-1
 475 1100 l 1,9,-1
 745 1100 l 1,10,-1
 745 1090 l 1,11,-1
 688 970 l 1,12,-1
 475 970 l 1,13,-1
 475 50 l 1,14,-1
 285 -40 l 1,15,-1
 275 -40 l 1,0,-1
EndSplineSet
Validated: 1
EndChar

StartChar: u
Encoding: 117 117 88
Width: 1130
GlyphClass: 2
Flags: W
HStem: -40 21G<470.5 590.857> 1120 20G<297.778 350 927.778 980>
VStem: 150 200<194.881 1050> 780 200<281 1050>
LayerCount: 2
Fore
SplineSet
565 -40 m 1,0,1
 376 -27 376 -27 274 56 c 0,2,3
 150 157 150 157 150 353 c 2,4,-1
 150 1050 l 1,5,-1
 340 1140 l 1,6,-1
 350 1140 l 9,7,-1
 350 353 l 2,8,9
 350 228 350 228 415 173 c 128,-1,10
 480 118 480 118 565 118 c 0,11,12
 659 118 659 118 721 179 c 0,13,14
 780 237 780 237 780 353 c 2,15,-1
 780 1050 l 17,16,-1
 970 1140 l 1,17,-1
 980 1140 l 9,18,-1
 980 281 l 1,19,-1
 565 -40 l 1,0,1
EndSplineSet
Validated: 1
EndChar

StartChar: v
Encoding: 118 118 89
Width: 947
GlyphClass: 2
Flags: W
HStem: -40 21G<383.969 443.195> 1120 20G<135.805 194.971 822.051 881.041>
DStem2: 188 1140 5 1058 0.331651 -0.943402<16.6668 975.333> 509 219 574 42 0.331032 0.94362<0 966.173>
LayerCount: 2
Fore
SplineSet
391 -40 m 1,0,-1
 5 1058 l 1,1,-1
 178 1140 l 1,2,-1
 188 1140 l 1,3,-1
 509 219 l 1,4,-1
 829 1140 l 1,5,-1
 839 1140 l 1,6,-1
 942 1091 l 1,7,-1
 574 42 l 1,8,-1
 401 -40 l 1,9,-1
 391 -40 l 1,0,-1
EndSplineSet
Validated: 3073
EndChar

StartChar: w
Encoding: 119 119 90
Width: 1760
GlyphClass: 2
Flags: W
HStem: -40 21G<470.5 590.859 1099.5 1220.86> 1120 20G<297.778 350 927.778 980 1557.78 1610>
VStem: 150 200<194.881 1050> 780 200<196.459 1050> 1410 200<281 1050>
CounterMasks: 1 38
LayerCount: 2
Fore
SplineSet
565 -40 m 1,0,1
 376 -27 376 -27 274 56 c 0,2,3
 150 157 150 157 150 353 c 2,4,-1
 150 1050 l 1,5,-1
 340 1140 l 1,6,-1
 350 1140 l 1,7,-1
 350 353 l 2,8,9
 350 228 350 228 415 173 c 128,-1,10
 480 118 480 118 565 118 c 0,11,12
 659 118 659 118 721 179 c 0,13,14
 780 237 780 237 780 353 c 2,15,-1
 780 1050 l 1,16,-1
 970 1140 l 1,17,-1
 980 1140 l 1,18,-1
 980 353 l 2,19,20
 980 228 980 228 1045 173 c 128,-1,21
 1110 118 1110 118 1195 118 c 0,22,23
 1289 118 1289 118 1351 179 c 0,24,25
 1410 237 1410 237 1410 353 c 2,26,-1
 1410 1050 l 1,27,-1
 1600 1140 l 1,28,-1
 1610 1140 l 1,29,-1
 1610 281 l 1,30,-1
 1195 -40 l 1,31,32
 1004 -27 1004 -27 904 56 c 0,33,34
 852 99 852 99 821 158 c 1,35,-1
 565 -40 l 1,0,1
EndSplineSet
Validated: 1
EndChar

StartChar: x
Encoding: 120 120 91
Width: 995
GlyphClass: 2
Flags: W
HStem: -40 21G<143 207.752 719.165 783.439> 1120 20G<212.831 276.862 787.264 852>
DStem2: 265 1140 80 1057 0.509416 -0.860521<0 505.756 746.186 1252.8> 80 10 195 -40 0.537358 0.843354<19.6285 536.716 824.181 1339.89>
LayerCount: 2
Fore
SplineSet
185 -40 m 1,0,-1
 80 10 l 1,1,-1
 402 515 l 1,2,-1
 80 1057 l 1,3,-1
 255 1140 l 1,4,-1
 265 1140 l 1,5,-1
 523 705 l 1,6,-1
 800 1140 l 1,7,-1
 810 1140 l 1,8,-1
 915 1090 l 1,9,-1
 593 585 l 1,10,-1
 915 42 l 1,11,-1
 741 -40 l 1,12,-1
 731 -40 l 1,13,-1
 473 396 l 1,14,-1
 195 -40 l 1,15,-1
 185 -40 l 1,0,-1
EndSplineSet
Validated: 3073
EndChar

StartChar: y
Encoding: 121 121 92
Width: 1180
GlyphClass: 2
Flags: W
HStem: -450 21G<460.5 590.857> -40 21G<470.5 590.748> 1120 20G<297.778 350 927.778 980>
VStem: 150 200<194.881 1050> 780 200<-129 127 194.768 1050>
LayerCount: 2
Fore
SplineSet
565 -40 m 1,0,1
 376 -27 376 -27 274 56 c 0,2,3
 150 157 150 157 150 353 c 2,4,-1
 150 1050 l 1,5,-1
 340 1140 l 1,6,-1
 350 1140 l 1,7,-1
 350 353 l 2,8,9
 350 228 350 228 415 173 c 128,-1,10
 480 118 480 118 564 118 c 0,11,12
 650 118 650 118 721 179 c 0,13,14
 780 230 780 230 780 353 c 2,15,-1
 780 1050 l 1,16,-1
 970 1140 l 1,17,-1
 980 1140 l 1,18,-1
 980 -129 l 1,19,-1
 565 -450 l 1,20,21
 356 -436 356 -436 276 -356 c 1,22,-1
 415 -237 l 1,23,24
 475 -292 475 -292 563 -292 c 0,25,26
 653 -292 653 -292 721 -231 c 0,27,28
 780 -178 780 -178 780 -57 c 2,29,-1
 780 127 l 1,30,-1
 565 -40 l 1,0,1
EndSplineSet
Validated: 1
EndChar

StartChar: z
Encoding: 122 122 93
Width: 1079
GlyphClass: 2
Flags: W
HStem: 0 130<402 902> 390 130<177 333 621 883> 970 130<197 659>
DStem2: 333 390 402 130 0.489571 0.871963<-192.93 0 254.352 665.339>
LayerCount: 2
Fore
SplineSet
120 0 m 1,0,-1
 120 10 l 1,1,-1
 333 390 l 1,2,-1
 120 390 l 1,3,-1
 120 400 l 1,4,-1
 177 520 l 1,5,-1
 407 520 l 1,6,-1
 659 970 l 1,7,-1
 140 970 l 1,8,-1
 140 980 l 1,9,-1
 197 1100 l 1,10,-1
 940 1100 l 1,11,-1
 940 1090 l 1,12,-1
 621 520 l 1,13,-1
 940 520 l 1,14,-1
 940 510 l 1,15,-1
 883 390 l 1,16,-1
 548 390 l 1,17,-1
 402 130 l 1,18,-1
 959 130 l 1,19,-1
 959 120 l 1,20,-1
 902 0 l 1,21,-1
 120 0 l 1,0,-1
EndSplineSet
Validated: 1
EndChar

StartChar: braceleft
Encoding: 123 123 94
Width: 825
GlyphClass: 2
Flags: W
HStem: -240 180<609.998 775> 664 182<131 270>
VStem: 270 200<85.2461 664 846 1360>
LayerCount: 2
Fore
SplineSet
775 -240 m 1,0,1
 547 -240 547 -240 405 -95 c 0,2,3
 270 43 270 43 270 260 c 2,4,-1
 270 664 l 1,5,-1
 50 664 l 1,6,-1
 50 674 l 1,7,-1
 131 846 l 1,8,-1
 270 846 l 1,9,-1
 270 1360 l 1,10,-1
 775 1750 l 1,11,-1
 775 1570 l 1,12,13
 625 1569 625 1569 542 1467 c 0,14,15
 470 1379 470 1379 470 1250 c 2,16,-1
 470 260 l 2,17,18
 470 128 470 128 542 43 c 0,19,20
 629 -59 629 -59 775 -60 c 1,21,-1
 775 -240 l 1,0,1
EndSplineSet
Validated: 1
EndChar

StartChar: bar
Encoding: 124 124 95
Width: 666
GlyphClass: 2
Flags: W
VStem: 250 166<-166 1676>
LayerCount: 2
Fore
SplineSet
250 -240 m 1,0,-1
 250 1676 l 1,1,-1
 406 1750 l 1,2,-1
 416 1750 l 1,3,-1
 416 -166 l 1,4,-1
 260 -240 l 1,5,-1
 250 -240 l 1,0,-1
EndSplineSet
Validated: 3073
EndChar

StartChar: braceright
Encoding: 125 125 96
Width: 825
GlyphClass: 2
Flags: W
HStem: 664 182<555 694> 1570 180<50 215.002>
VStem: 355 200<150 664 846 1424.75>
LayerCount: 2
Fore
SplineSet
50 -240 m 1,0,-1
 50 -60 l 1,1,2
 200 -59 200 -59 283 43 c 0,3,4
 355 131 355 131 355 260 c 2,5,-1
 355 1250 l 2,6,7
 355 1382 355 1382 283 1467 c 0,8,9
 196 1569 196 1569 50 1570 c 1,10,-1
 50 1750 l 1,11,12
 278 1750 278 1750 420 1605 c 0,13,14
 555 1467 555 1467 555 1250 c 2,15,-1
 555 846 l 1,16,-1
 775 846 l 1,17,-1
 775 836 l 1,18,-1
 694 664 l 1,19,-1
 555 664 l 1,20,-1
 555 150 l 1,21,-1
 50 -240 l 1,0,-1
EndSplineSet
Validated: 1
EndChar

StartChar: asciitilde
Encoding: 126 126 97
Width: 1268
GlyphClass: 2
Flags: W
HStem: 566 88<823.078 881> 856 88<387 444.922>
VStem: 150 174<667.015 762> 944 174<749 842.985>
LayerCount: 2
Fore
SplineSet
204 583 m 1,0,-1
 194 583 l 1,1,2
 150 643 150 643 150 762 c 1,3,-1
 387 944 l 17,4,5
 628 944 628 944 720 818 c 24,6,7
 839 654 839 654 889 654 c 0,8,9
 944 654 944 654 944 735 c 0,10,11
 944 798 944 798 896 846 c 1,12,-1
 1064 927 l 1,13,-1
 1074 927 l 1,14,15
 1118 867 1118 867 1118 749 c 1,16,-1
 881 566 l 17,17,18
 640 566 640 566 548 692 c 24,19,20
 429 856 429 856 379 856 c 0,21,22
 324 856 324 856 324 775 c 0,23,24
 324 712 324 712 372 664 c 1,25,-1
 204 583 l 1,0,-1
EndSplineSet
Validated: 1
EndChar

StartChar: exclamdown
Encoding: 161 161 99
Width: 600
GlyphClass: 2
Flags: W
HStem: -40 21G<200 252.222> 1530 20G<347.778 400>
VStem: 200 200<50 1000 1322 1460>
LayerCount: 2
Fore
SplineSet
400 1550 m 1,0,-1
 400 1322 l 1,1,-1
 210 1232 l 1,2,-1
 200 1232 l 1,3,-1
 200 1460 l 1,4,-1
 390 1550 l 1,5,-1
 400 1550 l 1,0,-1
200 -40 m 1,6,-1
 200 1000 l 1,7,-1
 390 1090 l 1,8,-1
 400 1090 l 1,9,-1
 400 50 l 1,10,-1
 210 -40 l 1,11,-1
 200 -40 l 1,6,-1
EndSplineSet
Validated: 3073
EndChar

StartChar: cent
Encoding: 162 162 100
Width: 1130
GlyphClass: 2
Flags: W
VStem: 150 200<195.113 819> 507 116<-190 -26.5293 125 975 1126.53 1290> 780 200<281 353 747 904.887>
CounterMasks: 1 e0
LayerCount: 2
Fore
SplineSet
507 -240 m 1,0,-1
 507 -34 l 1,1,2
 360 -14 360 -14 274 56 c 0,3,4
 150 157 150 157 150 353 c 2,5,-1
 150 819 l 1,6,-1
 507 1095 l 1,7,-1
 507 1290 l 1,8,-1
 613 1340 l 1,9,-1
 623 1340 l 1,10,-1
 623 1134 l 1,11,12
 770 1114 770 1114 856 1044 c 0,13,14
 980 943 980 943 980 747 c 1,15,-1
 790 657 l 1,16,-1
 780 657 l 1,17,-1
 780 747 l 2,18,19
 780 868 780 868 715 927 c 0,20,21
 675 963 675 963 623 975 c 1,22,-1
 623 125 l 1,23,24
 681 138 681 138 721 179 c 0,25,26
 780 239 780 239 780 353 c 1,27,-1
 970 443 l 1,28,-1
 980 443 l 1,29,-1
 980 281 l 1,30,-1
 623 5 l 1,31,-1
 623 -190 l 1,32,-1
 517 -240 l 1,33,-1
 507 -240 l 1,0,-1
507 125 m 1,34,-1
 507 975 l 1,35,36
 449 962 449 962 409 921 c 0,37,38
 350 860 350 860 350 747 c 2,39,-1
 350 353 l 2,40,41
 350 232 350 232 415 173 c 0,42,43
 455 137 455 137 507 125 c 1,34,-1
EndSplineSet
Validated: 1
EndChar

StartChar: sterling
Encoding: 163 163 101
Width: 1283
GlyphClass: 2
Flags: W
HStem: 0 130<157 250 450 1076> 522 130<157 250 450 863> 1530 20G<639.062 759.5>
VStem: 250 200<130 522 652 1230> 880 200<1157 1315.12>
LayerCount: 2
Fore
SplineSet
100 0 m 1,0,-1
 100 10 l 1,1,-1
 157 130 l 1,2,-1
 250 130 l 1,3,-1
 250 522 l 1,4,-1
 100 522 l 1,5,-1
 100 532 l 1,6,-1
 157 652 l 1,7,-1
 250 652 l 1,8,-1
 250 1230 l 1,9,-1
 665 1550 l 1,10,11
 854 1537 854 1537 956 1454 c 0,12,13
 1080 1353 1080 1353 1080 1157 c 1,14,-1
 890 1067 l 1,15,-1
 880 1067 l 1,16,-1
 880 1157 l 2,17,18
 880 1282 880 1282 814.5 1337 c 128,-1,19
 749 1392 749 1392 665 1392 c 0,20,21
 570 1392 570 1392 510 1331 c 128,-1,22
 450 1270 450 1270 450 1157 c 2,23,-1
 450 652 l 1,24,-1
 920 652 l 1,25,-1
 920 642 l 1,26,-1
 863 522 l 1,27,-1
 450 522 l 1,28,-1
 450 130 l 1,29,-1
 1133 130 l 1,30,-1
 1133 120 l 1,31,-1
 1076 0 l 1,32,-1
 100 0 l 1,0,-1
EndSplineSet
Validated: 1
EndChar

StartChar: currency
Encoding: 164 164 102
Width: 1395
GlyphClass: 2
Flags: W
HStem: 246 180<534.75 697> 1068 180<697 862.949>
VStem: 192 200<567.165 858> 1002 200<636 923.513>
DStem2: 336 1245 150 1174 0.707107 -0.707107<0 195.869 1019.65 1204.2>
LayerCount: 2
Fore
SplineSet
697 426 m 0,0,1
 834 426 834 426 930 529 c 0,2,3
 1002 608 1002 608 1002 748 c 0,4,5
 1002 874 1002 874 930 965 c 0,6,7
 846 1068 846 1068 696 1068 c 0,8,9
 557 1068 557 1068 464 965 c 0,10,11
 392 885 392 885 392 748 c 0,12,13
 392 610 392 610 464 529 c 0,14,15
 556 426 556 426 697 426 c 0,0,1
697 1248 m 1,16,17
 867 1248 867 1248 985 1172 c 1,18,-1
 1059 1245 l 1,19,-1
 1238 1181 l 1,20,-1
 1245 1174 l 1,21,-1
 1115 1044 l 1,22,23
 1202 918 1202 918 1202 748 c 2,24,-1
 1202 636 l 1,25,-1
 1057 524 l 1,26,-1
 1245 336 l 1,27,-1
 1238 329 l 1,28,-1
 1059 265 l 1,29,-1
 911 411 l 1,30,-1
 697 246 l 1,31,32
 521 246 521 246 400 329 c 1,33,-1
 336 265 l 1,34,-1
 157 329 l 1,35,-1
 150 336 l 1,36,-1
 273 459 l 1,37,38
 192 575 192 575 192 746 c 2,39,-1
 192 858 l 1,40,-1
 344 976 l 1,41,-1
 150 1174 l 1,42,-1
 157 1181 l 1,43,-1
 336 1245 l 1,44,-1
 492 1090 l 1,45,-1
 697 1248 l 1,16,17
EndSplineSet
Validated: 1
EndChar

StartChar: yen
Encoding: 165 165 103
Width: 1278
GlyphClass: 2
Flags: W
HStem: -40 21G<516 568.222> 522 130<286 466 772 992> 754 130<286 362 636 694 883 992> 1530 20G<232.831 293.829 1053.72 1115>
VStem: 516 200<50 522>
DStem2: 285 1550 100 1467 0.403273 -0.91508<1.34602 640.495 869.952 894.734> 664 690 772 652 0.420863 0.907124<10.9825 70.6818 268.151 948.051>
LayerCount: 2
Fore
SplineSet
516 -40 m 1,0,-1
 516 522 l 1,1,-1
 229 522 l 1,2,-1
 229 532 l 1,3,-1
 286 652 l 1,4,-1
 466 652 l 1,5,-1
 420 754 l 1,6,-1
 229 754 l 1,7,-1
 229 764 l 1,8,-1
 286 884 l 1,9,-1
 362 884 l 1,10,-1
 100 1467 l 1,11,-1
 275 1550 l 1,12,-1
 285 1550 l 1,13,-1
 579 884 l 1,14,-1
 754 884 l 1,15,-1
 1063 1550 l 1,16,-1
 1073 1550 l 1,17,-1
 1178 1500 l 1,18,-1
 883 884 l 1,19,-1
 1049 884 l 1,20,-1
 1049 874 l 1,21,-1
 992 754 l 1,22,-1
 821 754 l 1,23,-1
 772 652 l 1,24,-1
 1049 652 l 1,25,-1
 1049 642 l 1,26,-1
 992 522 l 1,27,-1
 716 522 l 1,28,-1
 716 50 l 1,29,-1
 526 -40 l 1,30,-1
 516 -40 l 1,0,-1
694 754 m 1,31,-1
 636 754 l 1,32,-1
 664 690 l 1,33,-1
 694 754 l 1,31,-1
EndSplineSet
Validated: 1
EndChar

StartChar: brokenbar
Encoding: 166 166 104
Width: 666
GlyphClass: 2
Flags: W
VStem: 250 166<-166 587 923 1676>
LayerCount: 2
Fore
SplineSet
250 -240 m 1,0,-1
 250 587 l 1,1,-1
 406 661 l 1,2,-1
 416 661 l 1,3,-1
 416 -166 l 1,4,-1
 260 -240 l 1,5,-1
 250 -240 l 1,0,-1
406 1750 m 1,6,-1
 416 1750 l 1,7,-1
 416 923 l 1,8,-1
 260 849 l 1,9,-1
 250 849 l 1,10,-1
 250 1676 l 1,11,-1
 406 1750 l 1,6,-1
EndSplineSet
Validated: 3073
EndChar

StartChar: section
Encoding: 167 167 105
Width: 1130
GlyphClass: 2
Flags: W
HStem: -40 158<470.179 565> 391 166<406.129 693.046> 953 166<436.954 723.871> 1392 158<565 659.821>
VStem: 150 200<611.976 797> 192 190<1148.37 1262> 748 190<248 361.628> 780 200<711 897.46>
LayerCount: 2
Fore
SplineSet
565 -40 m 1,0,1
 419 -37 419 -37 320 48 c 0,2,3
 240 117 240 117 221 228 c 1,4,-1
 411 318 l 1,5,-1
 421 318 l 9,6,-1
 421 289 l 2,7,8
 421 217 421 217 451 180 c 0,9,10
 501 118 501 118 573 118 c 0,11,12
 673 118 673 118 717 172 c 0,13,14
 748 210 748 210 748 268 c 0,15,16
 748 332 748 332 694 370 c 0,17,18
 664 391 664 391 566 391 c 24,19,20
 351 391 351 391 257 474 c 0,21,22
 150 568 150 568 150 797 c 1,23,-1
 328 935 l 1,24,-1
 409 921 l 1,25,26
 350 860 350 860 350 748 c 0,27,28
 351 634 351 634 417 593 c 0,29,30
 475 557 475 557 566 557 c 0,31,32
 806 557 806 557 892 449 c 0,33,34
 936 394 936 394 938 248 c 1,35,-1
 565 -40 l 1,0,1
565 1550 m 1,36,37
 711 1547 711 1547 810 1462 c 0,38,39
 890 1393 890 1393 909 1282 c 1,40,-1
 719 1192 l 1,41,-1
 709 1192 l 9,42,-1
 709 1221 l 2,43,44
 709 1293 709 1293 679 1330 c 0,45,46
 629 1392 629 1392 557 1392 c 0,47,48
 457 1392 457 1392 413 1338 c 0,49,50
 382 1300 382 1300 382 1242 c 0,51,52
 382 1178 382 1178 436 1140 c 0,53,54
 466 1119 466 1119 564 1119 c 24,55,56
 779 1119 779 1119 873 1036 c 0,57,58
 980 942 980 942 980 711 c 1,59,-1
 802 573 l 1,60,-1
 721 589 l 1,61,62
 780 650 780 650 780 762 c 0,63,64
 779 876 779 876 713 917 c 0,65,66
 655 953 655 953 564 953 c 0,67,68
 324 953 324 953 238 1061 c 0,69,70
 194 1116 194 1116 192 1262 c 1,71,-1
 565 1550 l 1,36,37
EndSplineSet
Validated: 1
EndChar

StartChar: dieresis
Encoding: 168 168 106
Width: 773
GlyphClass: 2
Flags: W
HStem: 1232 318
VStem: 150 200<1322 1460> 423 200<1322 1460>
LayerCount: 2
Fore
SplineSet
613 1550 m 1,0,-1
 623 1550 l 1,1,-1
 623 1322 l 1,2,-1
 433 1232 l 1,3,-1
 423 1232 l 1,4,-1
 423 1460 l 1,5,-1
 613 1550 l 1,0,-1
340 1550 m 1,6,-1
 350 1550 l 1,7,-1
 350 1322 l 1,8,-1
 160 1232 l 1,9,-1
 150 1232 l 1,10,-1
 150 1460 l 1,11,-1
 340 1550 l 1,6,-1
EndSplineSet
Validated: 3073
EndChar

StartChar: copyright
Encoding: 169 169 107
Width: 1401
GlyphClass: 2
Flags: W
HStem: 180 79<514.499 887.229> 332 140<608.255 714> 1038 140<696 801.807> 1251 80<511.931 889.969>
VStem: 150 74<566.018 943.982> 428 150<515.976 970> 832 150<539 623 887 993.962> 1176 75<560.265 949.908>
LayerCount: 2
Fore
SplineSet
696 1178 m 1,0,1
 832 1178 832 1178 908 1097 c 0,2,3
 982 1018 982 1018 982 887 c 1,4,-1
 868 832 l 1,5,-1
 832 832 l 1,6,-1
 832 902 l 2,7,8
 832 962 832 962 803 995 c 0,9,10
 765 1038 765 1038 706 1038 c 0,11,12
 649 1038 649 1038 607 995 c 0,13,14
 578 965 578 965 578 902 c 2,15,-1
 578 608 l 2,16,17
 578 546 578 546 607 515 c 0,18,19
 647 472 647 472 706 472 c 128,-1,20
 765 472 765 472 803 515 c 0,21,22
 832 549 832 549 832 608 c 2,23,-1
 832 623 l 1,24,-1
 947 678 l 1,25,-1
 982 678 l 1,26,-1
 982 539 l 1,27,-1
 714 332 l 1,28,29
 579 332 579 332 502 413 c 0,30,31
 428 492 428 492 428 608 c 2,32,-1
 428 970 l 1,33,-1
 696 1178 l 1,0,1
701 1331 m 0,34,35
 811 1331 811 1331 911 1288 c 0,36,37
 1007 1247 1007 1247 1090 1161 c 0,38,39
 1170 1078 1170 1078 1211 975 c 0,40,41
 1251 874 1251 874 1251 754 c 0,42,43
 1251 638 1251 638 1211 535 c 0,44,45
 1173 437 1173 437 1090 350 c 0,46,47
 1011 267 1011 267 911 223 c 0,48,49
 813 180 813 180 701 180 c 0,50,51
 590 180 590 180 490 223 c 0,52,53
 394 264 394 264 311 350 c 0,54,55
 230 434 230 434 190 535 c 128,-1,56
 150 636 150 636 150 754 c 0,57,58
 150 873 150 873 190 975 c 128,-1,59
 230 1077 230 1077 311 1161 c 0,60,61
 392 1246 392 1246 490 1288.5 c 128,-1,62
 588 1331 588 1331 701 1331 c 0,34,35
701 1251 m 0,63,64
 603 1251 603 1251 520 1215 c 128,-1,65
 437 1179 437 1179 366 1105 c 0,66,67
 296 1032 296 1032 260 944 c 128,-1,68
 224 856 224 856 224 759 c 2,69,-1
 224 754 l 2,70,71
 224 655 224 655 260 566 c 0,72,73
 294 483 294 483 366 406 c 0,74,75
 436 332 436 332 519 296 c 0,76,77
 604 259 604 259 701 259 c 128,-1,78
 798 259 798 259 883 296 c 0,79,80
 966 332 966 332 1037 406 c 0,81,82
 1106 478 1106 478 1141 565 c 128,-1,83
 1176 652 1176 652 1176 754 c 0,84,85
 1176 857 1176 857 1141 945 c 0,86,87
 1107 1031 1107 1031 1037 1105 c 0,88,89
 968 1178 968 1178 883 1215 c 0,90,91
 798 1251 798 1251 701 1251 c 0,63,64
EndSplineSet
Validated: 1
EndChar

StartChar: ordfeminine
Encoding: 170 170 108
Width: 955
GlyphClass: 2
Flags: W
HStem: 664 182<231 724> 1235 120<471 538.216> 1530 20G<445.314 525.5>
VStem: 250 140<1061.66 1184> 565 140<972 982 1062.66 1212.27 1338 1407.34>
LayerCount: 2
Fore
SplineSet
150 664 m 1,0,-1
 150 674 l 1,1,-1
 231 846 l 1,2,-1
 805 846 l 1,3,-1
 805 836 l 1,4,-1
 724 664 l 1,5,-1
 150 664 l 1,0,-1
476 1038 m 0,6,7
 511 1038 511 1038 540 1062 c 0,8,9
 565 1083 565 1083 565 1137 c 0,10,11
 565 1190 565 1190 539 1213 c 0,12,13
 514 1235 514 1235 478 1235 c 0,14,15
 439 1235 439 1235 415 1212 c 0,16,17
 390 1188 390 1188 390 1137 c 0,18,19
 390 1082 390 1082 416 1061 c 0,20,21
 443 1038 443 1038 476 1038 c 0,6,7
471 1550 m 1,22,23
 580 1543 580 1543 636 1497 c 0,24,25
 705 1440 705 1440 705 1333 c 2,26,-1
 705 972 l 1,27,-1
 594 919 l 1,28,-1
 565 919 l 1,29,-1
 565 982 l 1,30,-1
 484 919 l 1,31,32
 379 925 379 925 320 972 c 0,33,34
 252 1026 252 1026 250 1184 c 1,35,-1
 471 1355 l 1,36,37
 522 1354 522 1354 564 1338 c 1,38,39
 564 1387 564 1387 539 1408 c 0,40,41
 513 1430 513 1430 478 1430 c 0,42,43
 434 1430 434 1430 401 1393 c 1,44,-1
 340 1448 l 1,45,-1
 471 1550 l 1,22,23
EndSplineSet
Validated: 1
EndChar

StartChar: guillemotleft
Encoding: 171 171 109
Width: 1189
GlyphClass: 2
Flags: W
DStem2: 342 823 150 753 0.509697 -0.860354<0 484.241> 150 753 342 823 0.538107 0.842876<162.318 629.986> 727 823 535 753 0.509697 -0.860354<0 484.241> 535 753 727 823 0.538107 0.842876<162.318 629.986>
LayerCount: 2
Fore
SplineSet
874 1284 m 1,0,-1
 884 1284 l 1,1,-1
 989 1234 l 1,2,-1
 727 823 l 1,3,-1
 985 386 l 1,4,-1
 811 304 l 1,5,-1
 801 304 l 1,6,-1
 535 753 l 1,7,-1
 874 1284 l 1,0,-1
489 1284 m 1,8,-1
 499 1284 l 1,9,-1
 604 1234 l 1,10,-1
 342 823 l 1,11,-1
 600 386 l 1,12,-1
 426 304 l 1,13,-1
 416 304 l 1,14,-1
 150 753 l 1,15,-1
 489 1284 l 1,8,-1
EndSplineSet
Validated: 3073
EndChar

StartChar: logicalnot
Encoding: 172 172 110
Width: 1214
GlyphClass: 2
Flags: W
HStem: 664 182<231 864>
VStem: 742 115<402 517>
DStem2: 742 402 857 402 0.430499 0.902591<49.5073 289>
LayerCount: 2
Fore
SplineSet
742 402 m 1,0,-1
 864 664 l 1,1,-1
 150 664 l 1,2,-1
 150 674 l 1,3,-1
 231 846 l 1,4,-1
 1064 846 l 1,5,-1
 1064 836 l 1,6,-1
 857 402 l 1,7,-1
 742 402 l 1,0,-1
EndSplineSet
Validated: 3073
EndChar

StartChar: uni00AD
Encoding: 173 173 111
Width: 1214
GlyphClass: 2
Flags: W
HStem: 664 182<231 983>
LayerCount: 2
Fore
SplineSet
150 664 m 1,0,-1
 150 674 l 1,1,-1
 231 846 l 1,2,-1
 1064 846 l 1,3,-1
 1064 836 l 1,4,-1
 983 664 l 1,5,-1
 150 664 l 1,0,-1
EndSplineSet
Validated: 3073
EndChar

StartChar: registered
Encoding: 174 174 112
Width: 1401
GlyphClass: 2
Flags: W
HStem: 180 79<514.499 887.229> 1251 80<511.931 889.969>
VStem: 150 74<566.018 943.982> 445 150<412 520.972 593 729 743 1046> 832 143<727.578 968.912> 1176 75<560.265 949.908>
DStem2: 731 797 595 729 0.594273 -0.804263<0 91.8162 202.288 434.661>
LayerCount: 2
Fore
SplineSet
445 360 m 1,0,-1
 445 1103 l 1,1,-1
 559 1155 l 1,2,-1
 595 1155 l 1,3,-1
 595 1115 l 1,4,-1
 684 1155 l 1,5,-1
 697 1155 l 1,6,7
 803 1136 803 1136 882 1068 c 0,8,9
 975 988 975 988 975 868 c 0,10,11
 975 742 975 742 852 624 c 1,12,-1
 1014 414 l 1,13,-1
 895 360 l 1,14,-1
 871 360 l 1,15,-1
 726 542 l 1,16,17
 664 524 664 524 595 513 c 1,18,-1
 595 412 l 1,19,-1
 481 360 l 1,20,-1
 445 360 l 1,0,-1
784 722 m 1,21,22
 832 792 832 792 832 862 c 0,23,24
 832 949 832 949 750 998 c 0,25,26
 692 1033 692 1033 595 1046 c 1,27,-1
 595 743 l 1,28,-1
 707 797 l 1,29,-1
 731 797 l 1,30,-1
 784 722 l 1,21,22
595 729 m 1,31,-1
 595 593 l 1,32,33
 631 607 631 607 666 628 c 1,34,-1
 595 729 l 1,31,-1
701 1331 m 0,35,36
 811 1331 811 1331 911 1288 c 0,37,38
 1007 1247 1007 1247 1090 1161 c 0,39,40
 1170 1078 1170 1078 1211 975 c 0,41,42
 1251 874 1251 874 1251 754 c 0,43,44
 1251 638 1251 638 1211 535 c 0,45,46
 1173 437 1173 437 1090 350 c 0,47,48
 1011 267 1011 267 911 223 c 0,49,50
 813 180 813 180 701 180 c 0,51,52
 590 180 590 180 490 223 c 0,53,54
 394 264 394 264 311 350 c 0,55,56
 230 434 230 434 190 535 c 128,-1,57
 150 636 150 636 150 754 c 0,58,59
 150 873 150 873 190 975 c 128,-1,60
 230 1077 230 1077 311 1161 c 0,61,62
 392 1246 392 1246 490 1288.5 c 128,-1,63
 588 1331 588 1331 701 1331 c 0,35,36
701 1251 m 0,64,65
 603 1251 603 1251 520 1215 c 128,-1,66
 437 1179 437 1179 366 1105 c 0,67,68
 296 1032 296 1032 260 944 c 128,-1,69
 224 856 224 856 224 759 c 2,70,-1
 224 754 l 2,71,72
 224 655 224 655 260 566 c 0,73,74
 294 483 294 483 366 406 c 0,75,76
 436 332 436 332 519 296 c 0,77,78
 604 259 604 259 701 259 c 128,-1,79
 798 259 798 259 883 296 c 0,80,81
 966 332 966 332 1037 406 c 0,82,83
 1106 478 1106 478 1141 565 c 128,-1,84
 1176 652 1176 652 1176 754 c 0,85,86
 1176 857 1176 857 1141 945 c 0,87,88
 1107 1031 1107 1031 1037 1105 c 0,89,90
 968 1178 968 1178 883 1215 c 0,91,92
 798 1251 798 1251 701 1251 c 0,64,65
EndSplineSet
Validated: 3073
EndChar

StartChar: macron
Encoding: 175 175 113
Width: 1214
GlyphClass: 2
Flags: W
HStem: 1328 182<231 983>
LayerCount: 2
Fore
SplineSet
150 1328 m 1,0,-1
 150 1338 l 1,1,-1
 231 1510 l 1,2,-1
 1064 1510 l 1,3,-1
 1064 1500 l 1,4,-1
 983 1328 l 1,5,-1
 150 1328 l 1,0,-1
EndSplineSet
Validated: 3073
EndChar

StartChar: degree
Encoding: 176 176 114
Width: 1126
GlyphClass: 2
Flags: W
HStem: 744 158<428.88 561> 1392 158<565 696.638>
VStem: 150 198<982.436 1230> 778 198<1064 1311.56>
LayerCount: 2
Fore
SplineSet
565 1550 m 1,0,1
 739 1546 739 1546 854 1434 c 0,2,3
 974 1318 974 1318 976 1064 c 1,4,-1
 561 744 l 1,5,6
 386 748 386 748 272 860 c 0,7,8
 152 976 152 976 150 1230 c 1,9,-1
 565 1550 l 1,0,1
563 902 m 24,10,11
 661 902 661 902 719 963 c 0,12,13
 778 1025 778 1025 778 1147 c 0,14,15
 778 1278 778 1278 713 1337 c 0,16,17
 653 1391 653 1391 563 1392 c 24,18,19
 465 1392 465 1392 407 1331 c 0,20,21
 348 1269 348 1269 348 1147 c 0,22,23
 348 1016 348 1016 413 957 c 0,24,25
 473 903 473 903 563 902 c 24,10,11
EndSplineSet
Validated: 1
EndChar

StartChar: plusminus
Encoding: 177 177 115
Width: 1214
GlyphClass: 2
Flags: W
HStem: 243 182<231 983> 835 182<231 516 698 983>
VStem: 516 182<550 835 1017 1302>
LayerCount: 2
Fore
SplineSet
150 243 m 1,0,-1
 150 253 l 1,1,-1
 231 425 l 1,2,-1
 1064 425 l 1,3,-1
 1064 415 l 1,4,-1
 983 243 l 1,5,-1
 150 243 l 1,0,-1
698 1383 m 1,6,-1
 698 1017 l 1,7,-1
 1064 1017 l 1,8,-1
 1064 1007 l 1,9,-1
 983 835 l 1,10,-1
 698 835 l 1,11,-1
 698 550 l 1,12,-1
 526 469 l 1,13,-1
 516 469 l 1,14,-1
 516 835 l 1,15,-1
 150 835 l 1,16,-1
 150 845 l 1,17,-1
 231 1017 l 1,18,-1
 516 1017 l 1,19,-1
 516 1302 l 1,20,-1
 688 1383 l 1,21,-1
 698 1383 l 1,6,-1
EndSplineSet
Validated: 3073
EndChar

StartChar: uni00B2
Encoding: 178 178 116
Width: 862
GlyphClass: 2
Flags: W
HStem: 750 100<303 681> 1410 140<424 529.746>
VStem: 156 150<1207.34 1343> 562 149<1163.75 1373.65>
LayerCount: 2
Fore
SplineSet
424 1550 m 1,0,1
 564 1550 564 1550 637 1473 c 0,2,3
 711 1395 711 1395 711 1289 c 0,4,5
 711 1152 711 1152 565 1044 c 2,6,-1
 303 850 l 1,7,-1
 712 850 l 1,8,-1
 712 814 l 1,9,-1
 681 750 l 1,10,-1
 150 750 l 1,11,-1
 150 786 l 1,12,-1
 183 850 l 1,13,-1
 452 1091 l 2,14,15
 562 1190 562 1190 562 1283 c 0,16,17
 562 1337 562 1337 531 1369 c 0,18,19
 491 1410 491 1410 434 1410 c 0,20,21
 374 1410 374 1410 336 1367 c 0,22,23
 306 1333 306 1333 306 1288 c 0,24,25
 306 1249 306 1249 335 1206 c 1,26,-1
 222 1152 l 1,27,-1
 197 1152 l 1,28,29
 156 1210 156 1210 156 1343 c 1,30,-1
 424 1550 l 1,0,1
EndSplineSet
Validated: 1
EndChar

StartChar: uni00B3
Encoding: 179 179 117
Width: 855
GlyphClass: 2
Flags: W
HStem: 710 140<331.775 437> 1412 98<244 476>
VStem: 150 150<894.13 990> 555 150<917 1066.15>
LayerCount: 2
Fore
SplineSet
244 1510 m 1,0,-1
 683 1510 l 1,1,-1
 504 1226 l 1,2,3
 572 1216 572 1216 629 1168 c 0,4,5
 705 1103 705 1103 705 978 c 2,6,-1
 705 917 l 1,7,-1
 437 710 l 1,8,9
 299 710 299 710 224 787 c 0,10,11
 150 863 150 863 150 990 c 1,12,-1
 268 1055 l 1,13,-1
 300 1055 l 1,14,-1
 300 985 l 2,15,16
 300 929 300 929 330 893 c 0,17,18
 366 850 366 850 428 850 c 0,19,20
 487 850 487 850 525 893 c 0,21,22
 555 927 555 927 555 989 c 0,23,24
 555 1040 555 1040 532 1067 c 0,25,26
 499 1105 499 1105 424 1106 c 0,27,-1
 298 1106 l 1,28,-1
 476 1412 l 1,29,-1
 202 1412 l 1,30,-1
 202 1448 l 1,31,-1
 244 1510 l 1,0,-1
EndSplineSet
Validated: 1
EndChar

StartChar: acute
Encoding: 180 180 118
Width: 648
GlyphClass: 2
Flags: W
HStem: 1150 400
VStem: 150 348
LayerCount: 2
Fore
SplineSet
312 1550 m 1,0,-1
 322 1550 l 1,1,-1
 498 1466 l 1,2,-1
 277 1150 l 1,3,-1
 267 1150 l 1,4,-1
 150 1205 l 1,5,-1
 312 1550 l 1,0,-1
EndSplineSet
Validated: 3073
EndChar

StartChar: uni00B5
Encoding: 181 181 119
Width: 1130
GlyphClass: 2
Flags: W
HStem: -450 21G<150 202.222> -40 21G<501.5 590.938> 1120 20G<297.778 350 927.778 980>
VStem: 150 200<-360 9 195.113 1050> 780 200<280 1050>
LayerCount: 2
Fore
SplineSet
150 -450 m 1,0,-1
 150 1050 l 1,1,-1
 340 1140 l 1,2,-1
 350 1140 l 1,3,-1
 350 353 l 2,4,5
 350 232 350 232 415 173 c 0,6,7
 477 118 477 118 564 118 c 0,8,9
 653 118 653 118 721 179 c 0,10,11
 780 232 780 232 780 353 c 2,12,-1
 780 1050 l 1,13,-1
 970 1140 l 1,14,-1
 980 1140 l 1,15,-1
 980 280 l 1,16,-1
 565 -40 l 1,17,18
 438 -31 438 -31 350 9 c 1,19,-1
 350 -360 l 1,20,-1
 160 -450 l 1,21,-1
 150 -450 l 1,0,-1
EndSplineSet
Validated: 1
EndChar

StartChar: paragraph
Encoding: 182 182 120
Width: 1180
GlyphClass: 2
Flags: W
HStem: -40 21G<780 832.857> 1530 20G<539.143 660.5>
VStem: 780 70<-12 740> 914 66<50 1157>
LayerCount: 2
Fore
SplineSet
780 -40 m 1,0,-1
 780 740 l 1,1,-1
 565 574 l 1,2,3
 376 587 376 587 274 670 c 0,4,5
 150 771 150 771 150 967 c 2,6,-1
 150 1229 l 1,7,-1
 565 1550 l 1,8,9
 756 1537 756 1537 856 1454 c 0,10,11
 980 1351 980 1351 980 1157 c 2,12,-1
 980 50 l 1,13,-1
 914 19 l 1,14,-1
 914 1157 l 1,15,-1
 850 1157 l 1,16,-1
 850 -12 l 1,17,-1
 790 -40 l 1,18,-1
 780 -40 l 1,0,-1
EndSplineSet
Validated: 1
EndChar

StartChar: periodcentered
Encoding: 183 183 121
Width: 600
GlyphClass: 2
Flags: W
HStem: 594 318
VStem: 200 200<684 822>
LayerCount: 2
Fore
SplineSet
200 594 m 5,0,-1
 200 822 l 5,1,-1
 390 912 l 5,2,-1
 400 912 l 5,3,-1
 400 684 l 5,4,-1
 210 594 l 5,5,-1
 200 594 l 5,0,-1
EndSplineSet
Validated: 3073
EndChar

StartChar: cedilla
Encoding: 184 184 122
Width: 596
GlyphClass: 2
Flags: W
HStem: -450 564
VStem: 150 296
LayerCount: 2
Fore
SplineSet
350 -450 m 1,0,1
 340 -450 l 1,2,-1
 150 -360 l 1,3,4
 258 -290 258 -290 258 -178 c 0,5,6
 257 -63 257 -63 171 64 c 1,7,-1
 214 114 l 1,8,-1
 446 -159 l 1,9,10
 433 -348 433 -348 350 -450 c 1,0,1
EndSplineSet
Validated: 3073
EndChar

StartChar: uni00B9
Encoding: 185 185 123
Width: 672
GlyphClass: 2
Flags: W
HStem: 1325 112<150 262> 1530 20G<344.23 422>
VStem: 272 150<764 1382>
LayerCount: 2
Fore
SplineSet
386 1550 m 1,0,-1
 422 1550 l 1,1,-1
 422 764 l 1,2,-1
 308 710 l 1,3,-1
 272 710 l 1,4,-1
 272 1382 l 1,5,-1
 150 1325 l 1,6,-1
 150 1437 l 1,7,-1
 386 1550 l 1,0,-1
EndSplineSet
Validated: 3073
EndChar

StartChar: ordmasculine
Encoding: 186 186 124
Width: 955
GlyphClass: 2
Flags: W
HStem: 664 182<231 724> 1430 120<471 538.247>
VStem: 250 140<1061.73 1379> 565 140<1090 1407.27>
LayerCount: 2
Fore
SplineSet
150 664 m 1,0,-1
 150 674 l 1,1,-1
 231 846 l 1,2,-1
 805 846 l 1,3,-1
 805 836 l 1,4,-1
 724 664 l 1,5,-1
 150 664 l 1,0,-1
471 1550 m 1,6,7
 573 1548 573 1548 636 1497 c 0,8,9
 705 1441 705 1441 705 1333 c 2,10,-1
 705 1090 l 1,11,-1
 484 919 l 1,12,13
 373 927 373 927 319 972 c 0,14,15
 250 1029 250 1029 250 1136 c 2,16,-1
 250 1379 l 1,17,-1
 471 1550 l 1,6,7
476 1038 m 0,18,19
 515 1038 515 1038 541 1063 c 0,20,21
 565 1086 565 1086 565 1136 c 2,22,-1
 565 1333 l 2,23,24
 565 1385 565 1385 539 1408 c 0,25,26
 515 1430 515 1430 479 1430 c 0,27,28
 437 1430 437 1430 414 1406 c 0,29,30
 390 1381 390 1381 390 1333 c 2,31,-1
 390 1136 l 2,32,33
 390 1084 390 1084 416 1061 c 0,34,35
 440 1038 440 1038 476 1038 c 0,18,19
EndSplineSet
Validated: 1
EndChar

StartChar: guillemotright
Encoding: 187 187 125
Width: 1189
GlyphClass: 2
Flags: W
DStem2: 200 354 315 304 0.538107 0.842876<19.7385 487.944> 388 1284 204 1202 0.509697 -0.860354<0 484.751> 585 354 700 304 0.538107 0.842876<19.7385 487.944> 773 1284 589 1202 0.509697 -0.860354<0 484.751>
LayerCount: 2
Fore
SplineSet
378 1284 m 1,0,-1
 388 1284 l 1,1,-1
 654 835 l 1,2,-1
 315 304 l 1,3,-1
 305 304 l 1,4,-1
 200 354 l 1,5,-1
 463 765 l 1,6,-1
 204 1202 l 1,7,-1
 378 1284 l 1,0,-1
763 1284 m 1,8,-1
 773 1284 l 1,9,-1
 1039 835 l 1,10,-1
 700 304 l 1,11,-1
 690 304 l 1,12,-1
 585 354 l 1,13,-1
 848 765 l 1,14,-1
 589 1202 l 1,15,-1
 763 1284 l 1,8,-1
EndSplineSet
Validated: 3073
EndChar

StartChar: onequarter
Encoding: 188 188 126
Width: 1469
GlyphClass: 2
Flags: W
HStem: -40 21G<310.529 371.317 1044 1122.22> 232 104<856 1044 1194 1236> 1325 112<150 262> 1530 20G<344.23 422 910.683 971.471>
VStem: 272 150<764 1382> 1044 150<14 232 336 580>
DStem2: 211 28 362 -40 0.422266 0.906472<2.12205 1679.04>
LayerCount: 2
Fore
SplineSet
856 336 m 1,0,-1
 1044 336 l 1,1,-1
 1044 580 l 1,2,-1
 856 336 l 1,0,-1
1044 -40 m 1,3,-1
 1044 232 l 1,4,-1
 678 232 l 1,5,-1
 678 268 l 1,6,-1
 708 330 l 1,7,-1
 1053 750 l 1,8,-1
 1158 800 l 1,9,-1
 1194 800 l 1,10,-1
 1194 336 l 1,11,-1
 1269 336 l 1,12,-1
 1269 300 l 1,13,-1
 1236 232 l 1,14,-1
 1194 232 l 1,15,-1
 1194 14 l 1,16,-1
 1080 -40 l 1,17,-1
 1044 -40 l 1,3,-1
386 1550 m 1,18,-1
 422 1550 l 1,19,-1
 422 764 l 1,20,-1
 308 710 l 1,21,-1
 272 710 l 1,22,-1
 272 1382 l 1,23,-1
 150 1325 l 1,24,-1
 150 1437 l 1,25,-1
 386 1550 l 1,18,-1
352 -40 m 1,26,-1
 211 28 l 1,27,-1
 920 1550 l 1,28,-1
 930 1550 l 1,29,-1
 1071 1482 l 1,30,-1
 362 -40 l 1,31,-1
 352 -40 l 1,26,-1
EndSplineSet
Validated: 1
EndChar

StartChar: onehalf
Encoding: 189 189 127
Width: 1536
GlyphClass: 2
Flags: W
HStem: -40 21G<310.529 371.317> 0 100<927 1305> 660 140<1048 1153.75> 1325 112<150 262> 1530 20G<344.23 422 910.683 971.471>
VStem: 272 150<764 1382> 780 150<457.343 593> 1186 149<413.746 623.654>
DStem2: 211 28 362 -40 0.422266 0.906472<2.12205 1679.04>
LayerCount: 2
Fore
SplineSet
774 0 m 1,0,-1
 774 36 l 1,1,-1
 807 100 l 1,2,-1
 1076 341 l 2,3,4
 1186 440 1186 440 1186 533 c 0,5,6
 1186 587 1186 587 1155 619 c 0,7,8
 1115 660 1115 660 1058 660 c 0,9,10
 998 660 998 660 960 617 c 0,11,12
 930 583 930 583 930 538 c 0,13,14
 930 499 930 499 959 456 c 1,15,-1
 846 402 l 1,16,-1
 821 402 l 1,17,18
 780 460 780 460 780 593 c 1,19,-1
 1048 800 l 1,20,21
 1188 800 1188 800 1261 723 c 0,22,23
 1335 645 1335 645 1335 539 c 0,24,25
 1335 402 1335 402 1189 294 c 2,26,-1
 927 100 l 1,27,-1
 1336 100 l 1,28,-1
 1336 64 l 1,29,-1
 1305 0 l 1,30,-1
 774 0 l 1,0,-1
386 1550 m 1,31,-1
 422 1550 l 1,32,-1
 422 764 l 1,33,-1
 308 710 l 1,34,-1
 272 710 l 1,35,-1
 272 1382 l 1,36,-1
 150 1325 l 1,37,-1
 150 1437 l 1,38,-1
 386 1550 l 1,31,-1
352 -40 m 1,39,-1
 211 28 l 1,40,-1
 920 1550 l 1,41,-1
 930 1550 l 1,42,-1
 1071 1482 l 1,43,-1
 362 -40 l 1,44,-1
 352 -40 l 1,39,-1
EndSplineSet
Validated: 1
EndChar

StartChar: threequarters
Encoding: 190 190 128
Width: 1665
GlyphClass: 2
Flags: W
HStem: -40 21G<506.529 567.317 1240 1318.22> 232 104<1052 1240 1390 1432> 710 140<331.775 437> 1412 98<244 476> 1530 20G<1106.68 1167.47>
VStem: 150 150<894.13 990> 555 150<917 1066.15> 1240 150<14 232 336 580>
DStem2: 407 28 558 -40 0.422266 0.906472<2.12205 1679.04>
LayerCount: 2
Fore
SplineSet
1052 336 m 1,0,-1
 1240 336 l 1,1,-1
 1240 580 l 1,2,-1
 1052 336 l 1,0,-1
1240 -40 m 1,3,-1
 1240 232 l 1,4,-1
 874 232 l 1,5,-1
 874 268 l 1,6,-1
 904 330 l 1,7,-1
 1249 750 l 1,8,-1
 1354 800 l 1,9,-1
 1390 800 l 1,10,-1
 1390 336 l 1,11,-1
 1465 336 l 1,12,-1
 1465 300 l 1,13,-1
 1432 232 l 1,14,-1
 1390 232 l 1,15,-1
 1390 14 l 1,16,-1
 1276 -40 l 1,17,-1
 1240 -40 l 1,3,-1
244 1510 m 1,18,-1
 683 1510 l 1,19,-1
 504 1226 l 1,20,21
 572 1216 572 1216 629 1168 c 0,22,23
 705 1103 705 1103 705 978 c 2,24,-1
 705 917 l 1,25,-1
 437 710 l 1,26,27
 299 710 299 710 224 787 c 0,28,29
 150 863 150 863 150 990 c 1,30,-1
 268 1055 l 1,31,-1
 300 1055 l 1,32,-1
 300 985 l 2,33,34
 300 929 300 929 330 893 c 0,35,36
 366 850 366 850 428 850 c 0,37,38
 487 850 487 850 525 893 c 0,39,40
 555 927 555 927 555 989 c 0,41,42
 555 1040 555 1040 532 1067 c 0,43,44
 499 1105 499 1105 424 1106 c 0,45,-1
 298 1106 l 1,46,-1
 476 1412 l 1,47,-1
 214 1412 l 1,48,-1
 214 1448 l 1,49,-1
 244 1510 l 1,18,-1
548 -40 m 1,50,-1
 407 28 l 1,51,-1
 1116 1550 l 1,52,-1
 1126 1550 l 1,53,-1
 1267 1482 l 1,54,-1
 558 -40 l 1,55,-1
 548 -40 l 1,50,-1
EndSplineSet
Validated: 1
EndChar

StartChar: questiondown
Encoding: 191 191 129
Width: 1310
GlyphClass: 2
Flags: W
HStem: -40 180<493.75 655> 1530 20G<702.778 755>
VStem: 150 198<286.898 629.657> 555 200<1322 1460> 569 168<960.25 1056> 960 200<350 573.876>
LayerCount: 2
Fore
SplineSet
655 -40 m 1,0,1
 422 -40 422 -40 285 105 c 0,2,3
 150 248 150 248 150 460 c 0,4,5
 150 696 150 696 479 919 c 24,6,7
 566 978 566 978 569 1056 c 1,8,-1
 727 1131 l 1,9,-1
 737 1131 l 1,10,11
 736 940 736 940 574 830 c 0,12,13
 348 677 348 677 348 459 c 0,14,15
 348 330 348 330 422 243 c 0,16,17
 511 140 511 140 655 140 c 0,18,19
 801 140 801 140 888 243 c 0,20,21
 960 327 960 327 960 443 c 0,22,23
 960 508 960 508 921 576 c 1,24,-1
 1089 657 l 1,25,-1
 1099 657 l 1,26,27
 1160 549 1160 549 1160 350 c 1,28,-1
 655 -40 l 1,0,1
755 1550 m 1,29,-1
 755 1322 l 1,30,-1
 565 1232 l 1,31,-1
 555 1232 l 1,32,-1
 555 1460 l 1,33,-1
 745 1550 l 1,34,-1
 755 1550 l 1,29,-1
EndSplineSet
Validated: 1
EndChar

StartChar: Delta
Encoding: 916 916 130
Width: 1191
GlyphClass: 2
Flags: W
HStem: 0 130<182 933> 1530 20G<623.805 682.581>
DStem2: 5 0 182 130 0.315452 0.948942<179.197 1386.24> 676 1550 561 1276 0.312548 -0.949902<224.33 1429.19>
LayerCount: 2
Fore
SplineSet
5 0 m 1,0,-1
 493 1468 l 1,1,-1
 666 1550 l 1,2,-1
 676 1550 l 1,3,-1
 1186 0 l 1,4,-1
 5 0 l 1,0,-1
182 130 m 1,5,-1
 933 130 l 1,6,-1
 561 1276 l 1,7,-1
 182 130 l 1,5,-1
EndSplineSet
Validated: 1
EndChar

StartChar: Pi
Encoding: 928 928 131
Width: 1390
GlyphClass: 2
Flags: W
HStem: -40 21G<200 252.222 990 1042.22> 1380 130<400 990>
VStem: 200 200<50 1380> 990 200<50 1380>
LayerCount: 2
Fore
SplineSet
210 -40 m 1,0,-1
 200 -40 l 1,1,-1
 200 1460 l 1,2,-1
 306 1510 l 1,3,-1
 1190 1510 l 1,4,-1
 1190 50 l 1,5,-1
 1000 -40 l 1,6,-1
 990 -40 l 1,7,-1
 990 1380 l 1,8,-1
 400 1380 l 1,9,-1
 400 50 l 1,10,-1
 210 -40 l 1,0,-1
EndSplineSet
Validated: 1
EndChar

StartChar: Sigma
Encoding: 931 931 132
Width: 1203
GlyphClass: 2
Flags: W
HStem: 0 130<391 996> 1380 130<380 905>
DStem2: 100 0 391 130 0.529212 0.848489<264.304 914.567> 380 1380 101 1460 0.576824 -0.816869<0 611.061>
LayerCount: 2
Fore
SplineSet
100 0 m 1,0,-1
 584 776 l 1,1,-1
 101 1460 l 1,2,-1
 207 1510 l 1,3,-1
 962 1510 l 1,4,-1
 962 1500 l 1,5,-1
 905 1380 l 1,6,-1
 380 1380 l 1,7,-1
 805 774 l 1,8,-1
 391 130 l 1,9,-1
 1053 130 l 1,10,-1
 1053 120 l 1,11,-1
 996 0 l 1,12,-1
 100 0 l 1,0,-1
EndSplineSet
Validated: 1
EndChar

StartChar: Omega
Encoding: 937 937 133
Width: 1410
GlyphClass: 2
Flags: W
HStem: 0 130<207 532 896 1203> 1370 180<705 870.002>
VStem: 200 200<410.381 1160> 1010 200<503 1224.75>
LayerCount: 2
Fore
SplineSet
150 0 m 1,0,-1
 150 10 l 1,1,-1
 207 130 l 1,2,-1
 532 130 l 1,3,4
 376 215 376 215 299 320 c 24,5,6
 200 452 200 452 200 613 c 2,7,-1
 200 1160 l 1,8,-1
 705 1550 l 1,9,10
 933 1550 933 1550 1075 1405 c 0,11,12
 1210 1267 1210 1267 1210 1050 c 2,13,-1
 1210 503 l 1,14,-1
 896 130 l 1,15,-1
 1260 130 l 1,16,-1
 1260 120 l 1,17,-1
 1203 0 l 1,18,-1
 802 0 l 1,19,-1
 802 182 l 1,20,21
 914 262 914 262 964 374 c 0,22,23
 1010 477 1010 477 1010 613 c 2,24,-1
 1010 1050 l 2,25,26
 1010 1184 1010 1184 938 1267 c 0,27,28
 849 1370 849 1370 705 1370 c 128,-1,29
 561 1370 561 1370 472 1267 c 0,30,31
 400 1183 400 1183 400 1050 c 2,32,-1
 400 613 l 2,33,34
 400 477 400 477 446 374 c 0,35,36
 496 262 496 262 608 182 c 1,37,-1
 608 0 l 1,38,-1
 150 0 l 1,0,-1
EndSplineSet
Validated: 1
EndChar

StartChar: mu
Encoding: 956 956 134
Width: 1130
GlyphClass: 2
Flags: W
HStem: -450 21G<150 202.222> -40 21G<501.5 590.938> 1120 20G<297.778 350 927.778 980>
VStem: 150 200<-360 9 195.113 1050> 780 200<280 1050>
LayerCount: 2
Fore
SplineSet
150 -450 m 1,0,-1
 150 1050 l 1,1,-1
 340 1140 l 1,2,-1
 350 1140 l 1,3,-1
 350 353 l 2,4,5
 350 232 350 232 415 173 c 0,6,7
 477 118 477 118 564 118 c 0,8,9
 653 118 653 118 721 179 c 0,10,11
 780 232 780 232 780 353 c 2,12,-1
 780 1050 l 1,13,-1
 970 1140 l 1,14,-1
 980 1140 l 1,15,-1
 980 280 l 1,16,-1
 565 -40 l 1,17,18
 438 -31 438 -31 350 9 c 1,19,-1
 350 -360 l 1,20,-1
 160 -450 l 1,21,-1
 150 -450 l 1,0,-1
EndSplineSet
Validated: 1
EndChar

StartChar: pi
Encoding: 960 960 135
Width: 1173
GlyphClass: 2
Flags: W
HStem: -40 21G<200 252.222 773 825.222> 970 130<400 773>
VStem: 200 200<50 970> 773 200<50 970>
LayerCount: 2
Fore
SplineSet
210 -40 m 1,0,-1
 200 -40 l 1,1,-1
 200 1050 l 1,2,-1
 306 1100 l 1,3,-1
 973 1100 l 1,4,-1
 973 50 l 1,5,-1
 783 -40 l 1,6,-1
 773 -40 l 1,7,-1
 773 970 l 1,8,-1
 400 970 l 1,9,-1
 400 50 l 1,10,-1
 210 -40 l 1,0,-1
EndSplineSet
Validated: 1
EndChar

StartChar: uni2010
Encoding: 8208 8208 136
Width: 1214
GlyphClass: 2
Flags: W
HStem: 664 182<306 908>
LayerCount: 2
Fore
SplineSet
225 664 m 1,0,-1
 225 674 l 1,1,-1
 306 846 l 1,2,-1
 989 846 l 1,3,-1
 989 836 l 1,4,-1
 908 664 l 1,5,-1
 225 664 l 1,0,-1
EndSplineSet
Validated: 3073
EndChar

StartChar: uni2011
Encoding: 8209 8209 137
Width: 1214
GlyphClass: 2
Flags: W
HStem: 664 182<306 908>
LayerCount: 2
Fore
SplineSet
225 664 m 1,0,-1
 225 674 l 1,1,-1
 306 846 l 1,2,-1
 989 846 l 1,3,-1
 989 836 l 1,4,-1
 908 664 l 1,5,-1
 225 664 l 1,0,-1
EndSplineSet
Validated: 3073
EndChar

StartChar: figuredash
Encoding: 8210 8210 138
Width: 1214
GlyphClass: 2
Flags: W
HStem: 664 182<231 983>
LayerCount: 2
Fore
SplineSet
150 664 m 1,0,-1
 150 674 l 1,1,-1
 231 846 l 1,2,-1
 1064 846 l 1,3,-1
 1064 836 l 1,4,-1
 983 664 l 1,5,-1
 150 664 l 1,0,-1
EndSplineSet
Validated: 3073
EndChar

StartChar: endash
Encoding: 8211 8211 139
Width: 1214
GlyphClass: 2
Flags: W
HStem: 664 182<231 983>
LayerCount: 2
Fore
SplineSet
150 664 m 1,0,-1
 150 674 l 1,1,-1
 231 846 l 1,2,-1
 1064 846 l 1,3,-1
 1064 836 l 1,4,-1
 983 664 l 1,5,-1
 150 664 l 1,0,-1
EndSplineSet
Validated: 3073
EndChar

StartChar: emdash
Encoding: 8212 8212 140
Width: 1214
GlyphClass: 2
Flags: W
HStem: 664 182<106 1108>
LayerCount: 2
Fore
SplineSet
25 664 m 1,0,-1
 25 674 l 1,1,-1
 106 846 l 1,2,-1
 1189 846 l 1,3,-1
 1189 836 l 1,4,-1
 1108 664 l 1,5,-1
 25 664 l 1,0,-1
EndSplineSet
Validated: 3073
EndChar

StartChar: afii00208
Encoding: 8213 8213 141
Width: 1214
GlyphClass: 2
Flags: W
HStem: 664 182<106 1108>
LayerCount: 2
Fore
SplineSet
25 664 m 1,0,-1
 25 674 l 1,1,-1
 106 846 l 1,2,-1
 1189 846 l 1,3,-1
 1189 836 l 1,4,-1
 1108 664 l 1,5,-1
 25 664 l 1,0,-1
EndSplineSet
Validated: 3073
EndChar

StartChar: underscoredbl
Encoding: 8215 8215 142
Width: 1214
GlyphClass: 2
Flags: W
HStem: -410 182<231 983> -182 182<231 983>
LayerCount: 2
Fore
SplineSet
150 -182 m 1,0,-1
 150 -172 l 1,1,-1
 231 0 l 1,2,-1
 1064 0 l 1,3,-1
 1064 -10 l 1,4,-1
 983 -182 l 1,5,-1
 150 -182 l 1,0,-1
150 -410 m 1,6,-1
 150 -400 l 1,7,-1
 231 -228 l 1,8,-1
 1064 -228 l 1,9,-1
 1064 -238 l 1,10,-1
 983 -410 l 1,11,-1
 150 -410 l 1,6,-1
EndSplineSet
Validated: 3073
EndChar

StartChar: quoteleft
Encoding: 8216 8216 143
Width: 596
GlyphClass: 2
Flags: W
HStem: 986 564
VStem: 150 296
LayerCount: 2
Fore
SplineSet
382 1550 m 1,0,-1
 425 1500 l 1,1,2
 338 1385 338 1385 338 1258 c 0,3,4
 338 1146 338 1146 446 1076 c 1,5,-1
 256 986 l 1,6,-1
 246 986 l 1,7,8
 163 1088 163 1088 150 1277 c 1,9,-1
 382 1550 l 1,0,-1
EndSplineSet
Validated: 3073
EndChar

StartChar: quoteright
Encoding: 8217 8217 144
Width: 596
GlyphClass: 2
Flags: W
HStem: 986 564
VStem: 150 296
LayerCount: 2
Fore
SplineSet
340 1550 m 1,0,-1
 350 1550 l 1,1,2
 433 1448 433 1448 446 1259 c 1,3,-1
 214 986 l 1,4,-1
 171 1036 l 1,5,6
 258 1151 258 1151 258 1278 c 0,7,8
 258 1390 258 1390 150 1460 c 1,9,-1
 340 1550 l 1,0,-1
EndSplineSet
Validated: 3073
EndChar

StartChar: quotesinglbase
Encoding: 8218 8218 145
Width: 596
GlyphClass: 2
Flags: W
HStem: -286 564
VStem: 150 296
LayerCount: 2
Fore
SplineSet
340 278 m 1,0,-1
 350 278 l 1,1,2
 433 176 433 176 446 -13 c 1,3,-1
 214 -286 l 1,4,-1
 171 -236 l 1,5,6
 258 -121 258 -121 258 6 c 0,7,8
 258 118 258 118 150 188 c 1,9,-1
 340 278 l 1,0,-1
EndSplineSet
Validated: 3073
EndChar

StartChar: quotereversed
Encoding: 8219 8219 146
Width: 596
GlyphClass: 2
Flags: W
HStem: 986 564
VStem: 150 296
LayerCount: 2
Fore
SplineSet
246 1550 m 1,0,-1
 256 1550 l 1,1,-1
 446 1460 l 1,2,3
 338 1390 338 1390 338 1278 c 0,4,5
 338 1151 338 1151 425 1036 c 1,6,-1
 382 986 l 1,7,-1
 150 1259 l 1,8,9
 163 1448 163 1448 246 1550 c 1,0,-1
EndSplineSet
Validated: 3073
EndChar

StartChar: quotedblleft
Encoding: 8220 8220 147
Width: 911
GlyphClass: 2
Flags: W
HStem: 986 564
VStem: 150 611
LayerCount: 2
Fore
SplineSet
382 1550 m 1,0,-1
 425 1500 l 1,1,2
 338 1385 338 1385 338 1258 c 0,3,4
 338 1146 338 1146 446 1076 c 1,5,-1
 256 986 l 1,6,-1
 246 986 l 1,7,8
 163 1088 163 1088 150 1277 c 1,9,-1
 382 1550 l 1,0,-1
697 1550 m 1,10,-1
 740 1500 l 1,11,12
 653 1385 653 1385 653 1258 c 0,13,14
 653 1146 653 1146 761 1076 c 1,15,-1
 571 986 l 1,16,-1
 561 986 l 1,17,18
 478 1088 478 1088 465 1277 c 1,19,-1
 697 1550 l 1,10,-1
EndSplineSet
Validated: 3073
EndChar

StartChar: quotedblright
Encoding: 8221 8221 148
Width: 911
GlyphClass: 2
Flags: W
HStem: 986 564
VStem: 150 611
LayerCount: 2
Fore
SplineSet
655 1550 m 1,0,-1
 665 1550 l 1,1,2
 748 1448 748 1448 761 1259 c 1,3,-1
 529 986 l 1,4,-1
 486 1036 l 1,5,6
 573 1151 573 1151 573 1278 c 0,7,8
 573 1390 573 1390 465 1460 c 1,9,-1
 655 1550 l 1,0,-1
340 1550 m 1,10,-1
 350 1550 l 1,11,12
 433 1448 433 1448 446 1259 c 1,13,-1
 214 986 l 1,14,-1
 171 1036 l 1,15,16
 258 1151 258 1151 258 1278 c 0,17,18
 258 1390 258 1390 150 1460 c 1,19,-1
 340 1550 l 1,10,-1
EndSplineSet
Validated: 3073
EndChar

StartChar: quotedblbase
Encoding: 8222 8222 149
Width: 911
GlyphClass: 2
Flags: W
HStem: -286 564
VStem: 150 611
LayerCount: 2
Fore
SplineSet
655 278 m 1,0,-1
 665 278 l 1,1,2
 748 176 748 176 761 -13 c 1,3,-1
 529 -286 l 1,4,-1
 486 -236 l 1,5,6
 573 -121 573 -121 573 6 c 0,7,8
 573 118 573 118 465 188 c 1,9,-1
 655 278 l 1,0,-1
340 278 m 1,10,-1
 350 278 l 1,11,12
 433 176 433 176 446 -13 c 1,13,-1
 214 -286 l 1,14,-1
 171 -236 l 1,15,16
 258 -121 258 -121 258 6 c 0,17,18
 258 118 258 118 150 188 c 1,19,-1
 340 278 l 1,10,-1
EndSplineSet
Validated: 3073
EndChar

StartChar: uni201F
Encoding: 8223 8223 150
Width: 911
GlyphClass: 2
Flags: W
HStem: 986 564
VStem: 150 611
LayerCount: 2
Fore
SplineSet
246 1550 m 1,0,1
 256 1550 l 1,2,-1
 446 1460 l 1,3,4
 338 1390 338 1390 338 1278 c 0,5,6
 338 1151 338 1151 425 1036 c 1,7,-1
 382 986 l 1,8,-1
 150 1259 l 1,9,10
 163 1448 163 1448 246 1550 c 1,0,1
561 1550 m 1,11,-1
 571 1550 l 1,12,-1
 761 1460 l 1,13,14
 653 1390 653 1390 653 1278 c 0,15,16
 653 1151 653 1151 740 1036 c 1,17,-1
 697 986 l 1,18,-1
 465 1259 l 1,19,20
 478 1448 478 1448 561 1550 c 1,11,-1
EndSplineSet
Validated: 3073
EndChar

StartChar: dagger
Encoding: 8224 8224 151
Width: 1214
GlyphClass: 2
Flags: W
HStem: -40 21G<507 559.222> 996 182<231 507 707 983> 1530 20G<654.778 707>
VStem: 507 200<50 996 1178 1460>
LayerCount: 2
Fore
SplineSet
517 -40 m 1,0,-1
 507 -40 l 1,1,-1
 507 996 l 1,2,-1
 150 996 l 1,3,-1
 150 1006 l 1,4,-1
 231 1178 l 1,5,-1
 507 1178 l 1,6,-1
 507 1460 l 1,7,-1
 697 1550 l 1,8,-1
 707 1550 l 1,9,-1
 707 1178 l 1,10,-1
 1064 1178 l 1,11,-1
 1064 1168 l 1,12,-1
 983 996 l 1,13,-1
 707 996 l 1,14,-1
 707 50 l 1,15,-1
 517 -40 l 1,0,-1
EndSplineSet
Validated: 3073
EndChar

StartChar: daggerdbl
Encoding: 8225 8225 152
Width: 1214
GlyphClass: 2
Flags: W
HStem: -40 21G<507 559.222> 332 182<231 507 707 983> 996 182<231 507 707 983> 1530 20G<654.778 707>
VStem: 507 200<50 332 514 996 1178 1460>
LayerCount: 2
Fore
SplineSet
517 -40 m 1,0,-1
 507 -40 l 1,1,-1
 507 332 l 1,2,-1
 150 332 l 1,3,-1
 150 342 l 1,4,-1
 231 514 l 1,5,-1
 507 514 l 1,6,-1
 507 996 l 1,7,-1
 150 996 l 1,8,-1
 150 1006 l 1,9,-1
 231 1178 l 1,10,-1
 507 1178 l 1,11,-1
 507 1460 l 1,12,-1
 697 1550 l 1,13,-1
 707 1550 l 1,14,-1
 707 1178 l 1,15,-1
 1064 1178 l 1,16,-1
 1064 1168 l 1,17,-1
 983 996 l 1,18,-1
 707 996 l 1,19,-1
 707 514 l 1,20,-1
 1064 514 l 1,21,-1
 1064 504 l 1,22,-1
 983 332 l 1,23,-1
 707 332 l 1,24,-1
 707 50 l 1,25,-1
 517 -40 l 1,0,-1
EndSplineSet
Validated: 3073
EndChar

StartChar: bullet
Encoding: 8226 8226 153
Width: 1126
GlyphClass: 2
Flags: W
LayerCount: 2
Fore
SplineSet
565 1154 m 1,0,1
 739 1150 739 1150 854 1038 c 0,2,3
 974 922 974 922 976 668 c 1,4,-1
 561 348 l 1,5,6
 386 352 386 352 272 464 c 0,7,8
 152 580 152 580 150 834 c 1,9,-1
 565 1154 l 1,0,1
EndSplineSet
Validated: 1
EndChar

StartChar: uni2023
Encoding: 8227 8227 154
Width: 928
GlyphClass: 2
Flags: W
HStem: 1121 20G<200 233.493>
VStem: 200 628
LayerCount: 2
Fore
SplineSet
200 362 m 1,0,-1
 200 1141 l 1,1,-1
 828 766 l 1,2,-1
 200 362 l 1,0,-1
EndSplineSet
Validated: 3073
EndChar

StartChar: onedotenleader
Encoding: 8228 8228 155
Width: 600
GlyphClass: 2
Flags: W
HStem: -40 318
VStem: 200 200<50 188>
LayerCount: 2
Fore
SplineSet
200 -40 m 1,0,-1
 200 188 l 1,1,-1
 390 278 l 1,2,-1
 400 278 l 1,3,-1
 400 50 l 1,4,-1
 210 -40 l 1,5,-1
 200 -40 l 1,0,-1
EndSplineSet
Validated: 3073
EndChar

StartChar: twodotenleader
Encoding: 8229 8229 156
Width: 938
GlyphClass: 2
Flags: W
HStem: -40 318
VStem: 200 200<50 188> 538 200<50 188>
LayerCount: 2
Fore
SplineSet
538 -40 m 1,0,-1
 538 188 l 1,1,-1
 728 278 l 1,2,-1
 738 278 l 1,3,-1
 738 50 l 1,4,-1
 548 -40 l 1,5,-1
 538 -40 l 1,0,-1
200 -40 m 1,6,-1
 200 188 l 1,7,-1
 390 278 l 1,8,-1
 400 278 l 1,9,-1
 400 50 l 1,10,-1
 210 -40 l 1,11,-1
 200 -40 l 1,6,-1
EndSplineSet
Validated: 3073
EndChar

StartChar: ellipsis
Encoding: 8230 8230 157
Width: 1276
GlyphClass: 2
Flags: W
HStem: -40 318
VStem: 200 200<50 188> 538 200<50 188> 876 200<50 188>
CounterMasks: 1 70
LayerCount: 2
Fore
SplineSet
876 -40 m 1,0,-1
 876 188 l 1,1,-1
 1066 278 l 1,2,-1
 1076 278 l 1,3,-1
 1076 50 l 1,4,-1
 886 -40 l 1,5,-1
 876 -40 l 1,0,-1
538 -40 m 1,6,-1
 538 188 l 1,7,-1
 728 278 l 1,8,-1
 738 278 l 1,9,-1
 738 50 l 1,10,-1
 548 -40 l 1,11,-1
 538 -40 l 1,6,-1
200 -40 m 1,12,-1
 200 188 l 1,13,-1
 390 278 l 1,14,-1
 400 278 l 1,15,-1
 400 50 l 1,16,-1
 210 -40 l 1,17,-1
 200 -40 l 1,12,-1
EndSplineSet
Validated: 3073
EndChar

StartChar: uni2027
Encoding: 8231 8231 158
Width: 600
GlyphClass: 2
Flags: W
HStem: 594 318
VStem: 200 200<684 822>
LayerCount: 2
Fore
SplineSet
200 594 m 5,0,-1
 200 822 l 5,1,-1
 390 912 l 5,2,-1
 400 912 l 5,3,-1
 400 684 l 5,4,-1
 210 594 l 5,5,-1
 200 594 l 5,0,-1
EndSplineSet
Validated: 3073
EndChar

StartChar: perthousand
Encoding: 8240 8240 159
Width: 2847
GlyphClass: 2
Flags: W
HStem: -40 158<1285.88 1418 2149.88 2282> 608 158<1422 1553.64 2286 2417.64> 744 158<428.88 561> 1392 158<565 696.638>
VStem: 150 198<982.436 1230> 778 198<1064 1311.56> 1007 198<198.436 446> 1635 198<280 527.564> 1871 198<198.436 446> 2499 198<280 527.564>
DStem2: 565 28 716 -40 0.422266 0.906472<2.12205 1679.04>
LayerCount: 2
Fore
SplineSet
2282 -40 m 1,0,1
 2107 -36 2107 -36 1993 76 c 0,2,3
 1873 192 1873 192 1871 446 c 1,4,-1
 2286 766 l 1,5,6
 2460 762 2460 762 2575 650 c 0,7,8
 2695 534 2695 534 2697 280 c 1,9,-1
 2282 -40 l 1,0,1
2284 118 m 24,10,11
 2382 118 2382 118 2440 179 c 0,12,13
 2499 241 2499 241 2499 363 c 0,14,15
 2499 494 2499 494 2434 553 c 0,16,17
 2374 607 2374 607 2284 608 c 24,18,19
 2186 608 2186 608 2128 547 c 0,20,21
 2069 485 2069 485 2069 363 c 0,22,23
 2069 232 2069 232 2134 173 c 0,24,25
 2194 119 2194 119 2284 118 c 24,10,11
565 1550 m 1,26,27
 739 1546 739 1546 854 1434 c 0,28,29
 974 1318 974 1318 976 1064 c 1,30,-1
 561 744 l 1,31,32
 386 748 386 748 272 860 c 0,33,34
 152 976 152 976 150 1230 c 1,35,-1
 565 1550 l 1,26,27
1418 -40 m 1,36,37
 1243 -36 1243 -36 1129 76 c 0,38,39
 1009 192 1009 192 1007 446 c 1,40,-1
 1422 766 l 1,41,42
 1596 762 1596 762 1711 650 c 0,43,44
 1831 534 1831 534 1833 280 c 1,45,-1
 1418 -40 l 1,36,37
1420 118 m 24,46,47
 1518 118 1518 118 1576 179 c 0,48,49
 1635 241 1635 241 1635 363 c 0,50,51
 1635 494 1635 494 1570 553 c 0,52,53
 1510 607 1510 607 1420 608 c 24,54,55
 1322 608 1322 608 1264 547 c 0,56,57
 1205 485 1205 485 1205 363 c 0,58,59
 1205 232 1205 232 1270 173 c 0,60,61
 1330 119 1330 119 1420 118 c 24,46,47
706 -40 m 1,62,-1
 565 28 l 1,63,-1
 1274 1550 l 1,64,-1
 1284 1550 l 1,65,-1
 1425 1482 l 1,66,-1
 716 -40 l 1,67,-1
 706 -40 l 1,62,-1
563 902 m 24,68,69
 661 902 661 902 719 963 c 0,70,71
 778 1025 778 1025 778 1147 c 0,72,73
 778 1278 778 1278 713 1337 c 0,74,75
 653 1391 653 1391 563 1392 c 24,76,77
 465 1392 465 1392 407 1331 c 0,78,79
 348 1269 348 1269 348 1147 c 0,80,81
 348 1016 348 1016 413 957 c 0,82,83
 473 903 473 903 563 902 c 24,68,69
EndSplineSet
Validated: 1
EndChar

StartChar: minute
Encoding: 8242 8242 160
Width: 680
GlyphClass: 2
Flags: W
HStem: 1059 491
VStem: 150 380
LayerCount: 2
Fore
SplineSet
344 1550 m 1,0,-1
 354 1550 l 1,1,-1
 530 1466 l 1,2,-1
 277 1059 l 1,3,-1
 267 1059 l 1,4,-1
 150 1114 l 1,5,-1
 344 1550 l 1,0,-1
EndSplineSet
Validated: 3073
EndChar

StartChar: second
Encoding: 8243 8243 161
Width: 998
GlyphClass: 2
Flags: W
HStem: 1059 491
LayerCount: 2
Fore
SplineSet
662 1550 m 1,0,-1
 672 1550 l 1,1,-1
 848 1466 l 1,2,-1
 595 1059 l 1,3,-1
 585 1059 l 1,4,-1
 468 1114 l 1,5,-1
 662 1550 l 1,0,-1
344 1550 m 1,6,-1
 354 1550 l 1,7,-1
 530 1466 l 1,8,-1
 277 1059 l 1,9,-1
 267 1059 l 1,10,-1
 150 1114 l 1,11,-1
 344 1550 l 1,6,-1
EndSplineSet
Validated: 3073
EndChar

StartChar: uni2034
Encoding: 8244 8244 162
Width: 1316
GlyphClass: 2
Flags: W
HStem: 1059 491
LayerCount: 2
Fore
SplineSet
980 1550 m 1,0,-1
 990 1550 l 1,1,-1
 1166 1466 l 1,2,-1
 913 1059 l 1,3,-1
 903 1059 l 1,4,-1
 786 1114 l 1,5,-1
 980 1550 l 1,0,-1
662 1550 m 1,6,-1
 672 1550 l 1,7,-1
 848 1466 l 1,8,-1
 595 1059 l 1,9,-1
 585 1059 l 1,10,-1
 468 1114 l 1,11,-1
 662 1550 l 1,6,-1
344 1550 m 1,12,-1
 354 1550 l 1,13,-1
 530 1466 l 1,14,-1
 277 1059 l 1,15,-1
 267 1059 l 1,16,-1
 150 1114 l 1,17,-1
 344 1550 l 1,12,-1
EndSplineSet
Validated: 3073
EndChar

StartChar: uni2035
Encoding: 8245 8245 163
Width: 680
GlyphClass: 2
Flags: W
HStem: 1059 491
VStem: 150 380
LayerCount: 2
Fore
SplineSet
326 1550 m 1,0,-1
 336 1550 l 1,1,-1
 530 1114 l 1,2,-1
 413 1059 l 1,3,-1
 403 1059 l 1,4,-1
 150 1466 l 1,5,-1
 326 1550 l 1,0,-1
EndSplineSet
Validated: 3073
EndChar

StartChar: uni2036
Encoding: 8246 8246 164
Width: 998
GlyphClass: 2
Flags: W
HStem: 1059 491
LayerCount: 2
Fore
SplineSet
326 1550 m 1,0,-1
 336 1550 l 1,1,-1
 530 1114 l 1,2,-1
 413 1059 l 1,3,-1
 403 1059 l 1,4,-1
 150 1466 l 1,5,-1
 326 1550 l 1,0,-1
644 1550 m 1,6,-1
 654 1550 l 1,7,-1
 848 1114 l 1,8,-1
 731 1059 l 1,9,-1
 721 1059 l 1,10,-1
 468 1466 l 1,11,-1
 644 1550 l 1,6,-1
EndSplineSet
Validated: 3073
EndChar

StartChar: uni2037
Encoding: 8247 8247 165
Width: 1316
GlyphClass: 2
Flags: W
HStem: 1059 491
LayerCount: 2
Fore
SplineSet
336 1550 m 1,0,-1
 530 1114 l 1,1,-1
 413 1059 l 1,2,-1
 403 1059 l 1,3,-1
 150 1466 l 1,4,-1
 326 1550 l 1,5,-1
 336 1550 l 1,0,-1
644 1550 m 1,6,-1
 654 1550 l 1,7,-1
 848 1114 l 1,8,-1
 731 1059 l 1,9,-1
 721 1059 l 1,10,-1
 468 1466 l 1,11,-1
 644 1550 l 1,6,-1
962 1550 m 1,12,-1
 972 1550 l 1,13,-1
 1166 1114 l 1,14,-1
 1049 1059 l 1,15,-1
 1039 1059 l 1,16,-1
 786 1466 l 1,17,-1
 962 1550 l 1,12,-1
EndSplineSet
Validated: 3073
EndChar

StartChar: guilsinglleft
Encoding: 8249 8249 166
Width: 804
GlyphClass: 2
Flags: W
VStem: 150 454
DStem2: 342 823 150 753 0.509697 -0.860354<0 484.241> 150 753 342 823 0.538107 0.842876<162.318 629.986>
LayerCount: 2
Fore
SplineSet
489 1284 m 1,0,-1
 499 1284 l 1,1,-1
 604 1234 l 1,2,-1
 342 823 l 1,3,-1
 600 386 l 1,4,-1
 426 304 l 1,5,-1
 416 304 l 1,6,-1
 150 753 l 1,7,-1
 489 1284 l 1,0,-1
EndSplineSet
Validated: 3073
EndChar

StartChar: guilsinglright
Encoding: 8250 8250 167
Width: 804
GlyphClass: 2
Flags: W
VStem: 200 454
DStem2: 200 354 315 304 0.538107 0.842876<19.7385 487.944> 388 1284 204 1202 0.509697 -0.860354<0 484.751>
LayerCount: 2
Fore
SplineSet
378 1284 m 1,0,-1
 388 1284 l 1,1,-1
 654 835 l 1,2,-1
 315 304 l 1,3,-1
 305 304 l 1,4,-1
 200 354 l 1,5,-1
 463 765 l 1,6,-1
 204 1202 l 1,7,-1
 378 1284 l 1,0,-1
EndSplineSet
Validated: 3073
EndChar

StartChar: uni2043
Encoding: 8259 8259 168
Width: 1183
GlyphClass: 2
Flags: W
VStem: 500 182<387 605 921 1139>
DStem2: 311 1030 150 913 0.865946 -0.500138<0 218.179 533.824 752.003> 150 613 311 496 0.865946 0.500138<80.9012 299.08 614.726 832.904>
LayerCount: 2
Fore
SplineSet
682 1220 m 1,0,-1
 682 921 l 1,1,-1
 871 1030 l 1,2,-1
 1028 921 l 1,3,-1
 1033 913 l 1,4,-1
 773 763 l 1,5,-1
 1033 613 l 1,6,-1
 1028 605 l 1,7,-1
 871 496 l 1,8,-1
 682 605 l 1,9,-1
 682 387 l 1,10,-1
 510 306 l 1,11,-1
 500 306 l 1,12,-1
 500 605 l 1,13,-1
 311 496 l 1,14,-1
 155 605 l 1,15,-1
 150 613 l 1,16,-1
 409 763 l 1,17,-1
 150 913 l 1,18,-1
 155 921 l 1,19,-1
 311 1030 l 1,20,-1
 500 921 l 1,21,-1
 500 1139 l 1,22,-1
 672 1220 l 1,23,-1
 682 1220 l 1,0,-1
EndSplineSet
Validated: 3073
EndChar

StartChar: fraction
Encoding: 8260 8260 169
Width: 974
GlyphClass: 2
Flags: W
DStem2: 10 -72 161 -140 0.422626 0.906304<2.18787 1899.6>
LayerCount: 2
Fore
SplineSet
151 -140 m 1,0,-1
 10 -72 l 1,1,-1
 812 1650 l 1,2,-1
 822 1650 l 1,3,-1
 964 1582 l 1,4,-1
 161 -140 l 1,5,-1
 151 -140 l 1,0,-1
EndSplineSet
Validated: 3073
EndChar

StartChar: Euro
Encoding: 8364 8364 170
Width: 1410
GlyphClass: 2
Flags: W
HStem: -40 180<539.998 705> 522 130<107 200 400 813> 754 130<107 200 400 813> 1370 180<705 870.002>
VStem: 200 200<285.246 522 652 754 884 1160> 1010 200<350 460 1050 1224.75>
LayerCount: 2
Fore
SplineSet
705 -40 m 1,0,1
 477 -40 477 -40 335 105 c 0,2,3
 200 243 200 243 200 460 c 2,4,-1
 200 522 l 1,5,-1
 50 522 l 1,6,-1
 50 532 l 1,7,-1
 107 652 l 1,8,-1
 200 652 l 1,9,-1
 200 754 l 1,10,-1
 50 754 l 1,11,-1
 50 764 l 1,12,-1
 107 884 l 1,13,-1
 200 884 l 1,14,-1
 200 1160 l 1,15,-1
 705 1550 l 1,16,17
 933 1550 933 1550 1075 1405 c 0,18,19
 1210 1267 1210 1267 1210 1050 c 1,20,-1
 1020 960 l 1,21,-1
 1010 960 l 1,22,-1
 1010 1050 l 2,23,24
 1010 1184 1010 1184 938 1267 c 0,25,26
 849 1370 849 1370 705 1370 c 128,-1,27
 561 1370 561 1370 472 1267 c 0,28,29
 400 1183 400 1183 400 1050 c 2,30,-1
 400 884 l 1,31,-1
 870 884 l 1,32,-1
 870 874 l 1,33,-1
 813 754 l 1,34,-1
 400 754 l 1,35,-1
 400 652 l 1,36,-1
 870 652 l 1,37,-1
 870 642 l 1,38,-1
 813 522 l 1,39,-1
 400 522 l 1,40,-1
 400 460 l 2,41,42
 400 328 400 328 472 243 c 0,43,44
 559 140 559 140 705 140 c 0,45,46
 848 140 848 140 938 243 c 0,47,48
 1010 326 1010 326 1010 460 c 1,49,-1
 1200 550 l 1,50,-1
 1210 550 l 1,51,-1
 1210 350 l 1,52,-1
 705 -40 l 1,0,1
EndSplineSet
Validated: 1
EndChar

StartChar: afii61248
Encoding: 8453 8453 171
Width: 1638
GlyphClass: 2
Flags: W
HStem: -40 140<1114.25 1220> 666 140<1202 1307.81> 704 140<330.255 436> 1410 140<418 523.807>
VStem: 150 150<887.976 1343> 554 150<910 995 1259 1365.96> 934 150<143.976 599> 1338 150<167 621.962>
DStem2: 395 28 546 -40 0.422266 0.906472<2.12205 1679.04>
LayerCount: 2
Fore
SplineSet
1220 -40 m 1,0,1
 1085 -40 1085 -40 1008 41 c 0,2,3
 934 120 934 120 934 236 c 2,4,-1
 934 599 l 1,5,-1
 1202 806 l 1,6,7
 1338 806 1338 806 1414 725 c 0,8,9
 1488 646 1488 646 1488 530 c 2,10,-1
 1488 167 l 17,11,-1
 1220 -40 l 1,0,1
1212 100 m 128,-1,13
 1271 100 1271 100 1309 143 c 0,14,15
 1338 177 1338 177 1338 236 c 2,16,-1
 1338 530 l 2,17,18
 1338 590 1338 590 1309 623 c 0,19,20
 1271 666 1271 666 1212 666 c 0,21,22
 1155 666 1155 666 1113 623 c 0,23,24
 1084 593 1084 593 1084 530 c 2,25,-1
 1084 236 l 2,26,27
 1084 174 1084 174 1113 143 c 0,28,12
 1153 100 1153 100 1212 100 c 128,-1,13
418 1550 m 1,29,30
 554 1550 554 1550 630 1469 c 0,31,32
 704 1390 704 1390 704 1259 c 1,33,-1
 590 1204 l 1,34,-1
 554 1204 l 1,35,-1
 554 1274 l 2,36,37
 554 1334 554 1334 525 1367 c 0,38,39
 487 1410 487 1410 428 1410 c 0,40,41
 371 1410 371 1410 329 1367 c 0,42,43
 300 1337 300 1337 300 1274 c 2,44,-1
 300 980 l 2,45,46
 300 918 300 918 329 887 c 0,47,48
 369 844 369 844 428 844 c 128,-1,49
 487 844 487 844 525 887 c 0,50,51
 554 921 554 921 554 980 c 2,52,-1
 554 995 l 1,53,-1
 669 1050 l 1,54,-1
 704 1050 l 1,55,-1
 704 910 l 1,56,-1
 436 704 l 1,57,58
 301 704 301 704 224 785 c 0,59,60
 150 864 150 864 150 980 c 2,61,-1
 150 1343 l 1,62,-1
 418 1550 l 1,29,30
536 -40 m 1,63,-1
 395 28 l 1,64,-1
 1104 1550 l 1,65,-1
 1114 1550 l 1,66,-1
 1255 1482 l 1,67,-1
 546 -40 l 1,68,-1
 536 -40 l 1,63,-1
EndSplineSet
Validated: 1
EndChar

StartChar: afii61289
Encoding: 8467 8467 172
Width: 1108
GlyphClass: 2
Flags: W
HStem: -20 136<558.838 669.961> 0 21G<150 363.84>
VStem: 332 208<672 805.805> 729 179<1092.03 1387.01>
LayerCount: 2
Fore
SplineSet
540 672 m 1,0,1
 600 796 600 796 656 982 c 0,2,3
 729 1224 729 1224 729 1389 c 1,4,5
 677 1305 677 1305 614 1098 c 0,6,7
 540 857 540 857 540 672 c 1,0,1
150 0 m 1,8,9
 250 146 250 146 340 296 c 1,10,11
 332 366 332 366 332 444 c 0,12,13
 332 592 332 592 361 733 c 0,14,15
 481 1333 481 1333 576 1443 c 0,16,17
 652 1531 652 1531 770 1531 c 0,18,19
 821 1531 821 1531 860 1498 c 1,20,21
 908 1459 908 1459 908 1338 c 0,22,23
 908 1246 908 1246 878 1092 c 0,24,25
 808 742 808 742 522 272 c 1,26,27
 555 116 555 116 611 116 c 0,28,29
 630 116 630 116 653 140 c 0,30,31
 684 172 684 172 716 228 c 1,32,-1
 892 228 l 1,33,34
 815 100 815 100 750.5 40 c 128,-1,35
 686 -20 686 -20 602 -20 c 0,36,37
 474 -20 474 -20 403 81 c 1,38,-1
 351 0 l 1,39,-1
 150 0 l 1,8,9
EndSplineSet
Validated: 3073
EndChar

StartChar: trademark
Encoding: 8482 8482 173
Width: 1840
GlyphClass: 2
Flags: W
HStem: 1369 141<200 364 514 678> 1390 140<949 1054.62 1354 1459.96>
VStem: 364 150<739 1369> 680 150<739 1322> 1086 150<739 1345.69> 1490 150<739 1345.78>
LayerCount: 2
Fore
SplineSet
680 685 m 1,0,-1
 680 1322 l 1,1,-1
 949 1530 l 1,2,3
 1081 1530 1081 1530 1161 1450 c 0,4,5
 1184 1427 1184 1427 1195 1407 c 1,6,-1
 1354 1530 l 1,7,8
 1496 1530 1496 1530 1566 1450 c 0,9,10
 1640 1366 1640 1366 1640 1255 c 2,11,-1
 1640 739 l 1,12,-1
 1526 685 l 1,13,-1
 1490 685 l 1,14,-1
 1490 1255 l 2,15,16
 1490 1308 1490 1308 1461 1347 c 0,17,18
 1428 1390 1428 1390 1363 1390 c 0,19,20
 1297 1390 1297 1390 1266 1347 c 0,21,22
 1236 1305 1236 1305 1236 1255 c 2,23,-1
 1236 739 l 1,24,-1
 1121 685 l 1,25,-1
 1086 685 l 1,26,-1
 1086 1255 l 2,27,28
 1086 1317 1086 1317 1056 1347 c 0,29,30
 1012 1390 1012 1390 958 1390 c 0,31,32
 905 1390 905 1390 861 1347 c 0,33,34
 830 1317 830 1317 830 1255 c 2,35,-1
 830 739 l 1,36,-1
 716 685 l 1,37,-1
 680 685 l 1,0,-1
364 685 m 1,38,-1
 364 1369 l 1,39,-1
 150 1369 l 1,40,-1
 150 1405 l 1,41,-1
 200 1510 l 1,42,-1
 728 1510 l 1,43,-1
 728 1474 l 1,44,-1
 678 1369 l 1,45,-1
 514 1369 l 1,46,-1
 514 739 l 1,47,-1
 400 685 l 1,48,-1
 364 685 l 1,38,-1
EndSplineSet
Validated: 1
EndChar

StartChar: uni2126
Encoding: 8486 8486 174
Width: 1410
GlyphClass: 2
Flags: W
HStem: 0 130<207 532 896 1203> 1370 180<705 870.002>
VStem: 200 200<410.381 1160> 1010 200<503 1224.75>
LayerCount: 2
Fore
SplineSet
150 0 m 1,0,-1
 150 10 l 1,1,-1
 207 130 l 1,2,-1
 532 130 l 1,3,4
 376 215 376 215 299 320 c 24,5,6
 200 452 200 452 200 613 c 2,7,-1
 200 1160 l 1,8,-1
 705 1550 l 1,9,10
 933 1550 933 1550 1075 1405 c 0,11,12
 1210 1267 1210 1267 1210 1050 c 2,13,-1
 1210 503 l 1,14,-1
 896 130 l 1,15,-1
 1260 130 l 1,16,-1
 1260 120 l 1,17,-1
 1203 0 l 1,18,-1
 802 0 l 1,19,-1
 802 182 l 1,20,21
 914 262 914 262 964 374 c 0,22,23
 1010 477 1010 477 1010 613 c 2,24,-1
 1010 1050 l 2,25,26
 1010 1184 1010 1184 938 1267 c 0,27,28
 849 1370 849 1370 705 1370 c 128,-1,29
 561 1370 561 1370 472 1267 c 0,30,31
 400 1183 400 1183 400 1050 c 2,32,-1
 400 613 l 2,33,34
 400 477 400 477 446 374 c 0,35,36
 496 262 496 262 608 182 c 1,37,-1
 608 0 l 1,38,-1
 150 0 l 1,0,-1
EndSplineSet
Validated: 1
EndChar

StartChar: estimated
Encoding: 8494 8494 175
Width: 1358
GlyphClass: 2
Flags: W
HStem: -15 73<501.557 855.461> 550 74<381 977> 1042 73<502.165 850.247>
VStem: 150 231<307.452 550 624 793.838> 977 231<624 789.607>
LayerCount: 2
Fore
SplineSet
381 550 m 1,0,-1
 381 179 l 1,1,2
 501 58 501 58 679 58 c 0,3,4
 933 58 933 58 1074 304 c 1,5,-1
 1146 261 l 1,6,7
 1026 88 1026 88 914 36.5 c 128,-1,8
 802 -15 802 -15 679 -15 c 0,9,10
 442 -15 442 -15 296 145 c 128,-1,11
 150 305 150 305 150 550 c 0,12,13
 150 797 150 797 297 956 c 128,-1,14
 444 1115 444 1115 679 1115 c 0,15,16
 893 1115 893 1115 1045 973 c 128,-1,17
 1197 831 1197 831 1208 550 c 1,18,-1
 381 550 l 1,0,-1
977 624 m 1,19,-1
 977 921 l 1,20,21
 849 1042 849 1042 677 1042 c 0,22,23
 502 1042 502 1042 381 920 c 1,24,-1
 381 624 l 1,25,-1
 977 624 l 1,19,-1
EndSplineSet
Validated: 3073
EndChar

StartChar: partialdiff
Encoding: 8706 8706 176
Width: 1267
GlyphClass: 2
Flags: W
HStem: 0 92<400 587.576> 883 84<654.972 885.467> 1427 83<623.242 789.693>
VStem: 150 212<147.417 518.018> 888 179<603.29 878.484 965 1264.05>
LayerCount: 2
Fore
SplineSet
458 0 m 0,0,1
 321 0 321 0 235.5 91 c 128,-1,2
 150 182 150 182 150 347 c 0,3,4
 150 556 150 556 303 734 c 0,5,6
 503 967 503 967 781 967 c 24,7,8
 816 967 816 967 886 965 c 1,9,10
 886 1113 886 1113 869 1201 c 0,11,12
 847 1313 847 1313 805 1369 c 0,13,14
 761 1427 761 1427 711 1427 c 0,15,16
 644 1427 644 1427 593 1347 c 0,17,18
 555 1287 555 1287 519 1157 c 1,19,-1
 384 1217 l 1,20,21
 453 1371 453 1371 552 1442 c 0,22,23
 647 1510 647 1510 744 1510 c 0,24,25
 876 1510 876 1510 971 1371 c 0,26,27
 1067 1231 1067 1231 1067 951 c 0,28,29
 1067 670 1067 670 980 438 c 0,30,31
 894 214 894 214 747 107 c 128,-1,32
 600 0 600 0 458 0 c 0,0,1
488 92 m 0,33,34
 562 92 562 92 636 189 c 0,35,36
 697 268 697 268 766 393 c 0,37,38
 856 555 856 555 888 867 c 1,39,40
 848 883 848 883 774 883 c 0,41,42
 667 883 667 883 557 755 c 0,43,44
 485 672 485 672 436 581 c 0,45,46
 362 444 362 444 362 333 c 0,47,48
 362 233 362 233 381 175 c 0,49,50
 409 92 409 92 488 92 c 0,33,34
EndSplineSet
Validated: 3073
EndChar

StartChar: uni2206
Encoding: 8710 8710 177
Width: 1191
GlyphClass: 2
Flags: W
HStem: 0 130<182 933> 1530 20G<623.805 682.581>
DStem2: 5 0 182 130 0.315452 0.948942<179.197 1386.24> 676 1550 561 1276 0.312548 -0.949902<224.33 1429.19>
LayerCount: 2
Fore
SplineSet
5 0 m 1,0,-1
 493 1468 l 1,1,-1
 666 1550 l 1,2,-1
 676 1550 l 1,3,-1
 1186 0 l 1,4,-1
 5 0 l 1,0,-1
182 130 m 1,5,-1
 933 130 l 1,6,-1
 561 1276 l 1,7,-1
 182 130 l 1,5,-1
EndSplineSet
Validated: 1
EndChar

StartChar: product
Encoding: 8719 8719 178
Width: 1390
GlyphClass: 2
Flags: W
HStem: -450 21G<200 252.222 990 1042.22> 1380 130<400 990>
VStem: 200 200<-360 1380> 990 200<-360 1380>
LayerCount: 2
Fore
SplineSet
210 -450 m 1,0,-1
 200 -450 l 1,1,-1
 200 1460 l 1,2,-1
 306 1510 l 1,3,-1
 1190 1510 l 1,4,-1
 1190 -360 l 1,5,-1
 1000 -450 l 1,6,-1
 990 -450 l 1,7,-1
 990 1380 l 1,8,-1
 400 1380 l 1,9,-1
 400 -360 l 1,10,-1
 210 -450 l 1,0,-1
EndSplineSet
Validated: 1
EndChar

StartChar: summation
Encoding: 8721 8721 179
Width: 1203
GlyphClass: 2
Flags: W
HStem: -410 130<377 996> 1382 128<368 905>
DStem2: 100 -410 377 -280 0.431264 0.902226<236.749 1108.37> 368 1382 101 1460 0.480758 -0.876854<0 795.427>
LayerCount: 2
Fore
SplineSet
100 -410 m 1,0,-1
 578 590 l 1,1,-1
 101 1460 l 1,2,-1
 207 1510 l 1,3,-1
 962 1510 l 1,4,-1
 962 1500 l 1,5,-1
 905 1380 l 1,6,-1
 368 1382 l 1,7,-1
 804 588 l 1,8,-1
 377 -280 l 1,9,-1
 1053 -280 l 1,10,-1
 1053 -290 l 1,11,-1
 996 -410 l 1,12,-1
 100 -410 l 1,0,-1
EndSplineSet
Validated: 1
EndChar

StartChar: minus
Encoding: 8722 8722 180
Width: 1214
GlyphClass: 2
Flags: W
HStem: 664 182<231 983>
LayerCount: 2
Fore
SplineSet
150 664 m 1,0,-1
 150 674 l 1,1,-1
 231 846 l 1,2,-1
 1064 846 l 1,3,-1
 1064 836 l 1,4,-1
 983 664 l 1,5,-1
 150 664 l 1,0,-1
EndSplineSet
Validated: 3073
EndChar

StartChar: uni2215
Encoding: 8725 8725 181
Width: 974
GlyphClass: 2
Flags: W
DStem2: 10 -72 161 -140 0.422626 0.906304<2.18787 1899.6>
LayerCount: 2
Fore
SplineSet
151 -140 m 1,0,-1
 10 -72 l 1,1,-1
 812 1650 l 1,2,-1
 822 1650 l 1,3,-1
 964 1582 l 1,4,-1
 161 -140 l 1,5,-1
 151 -140 l 1,0,-1
EndSplineSet
Validated: 3073
EndChar

StartChar: asteriskmath
Encoding: 8727 8727 182
Width: 1183
GlyphClass: 2
Flags: W
VStem: 500 182<387 605 921 1139>
DStem2: 311 1030 150 913 0.865946 -0.500138<0 218.179 533.824 752.003> 150 613 311 496 0.865946 0.500138<80.9012 299.08 614.726 832.904>
LayerCount: 2
Fore
SplineSet
682 1220 m 1,0,-1
 682 921 l 1,1,-1
 871 1030 l 1,2,-1
 1028 921 l 1,3,-1
 1033 913 l 1,4,-1
 773 763 l 1,5,-1
 1033 613 l 1,6,-1
 1028 605 l 1,7,-1
 871 496 l 1,8,-1
 682 605 l 1,9,-1
 682 387 l 1,10,-1
 510 306 l 1,11,-1
 500 306 l 1,12,-1
 500 605 l 1,13,-1
 311 496 l 1,14,-1
 155 605 l 1,15,-1
 150 613 l 1,16,-1
 409 763 l 1,17,-1
 150 913 l 1,18,-1
 155 921 l 1,19,-1
 311 1030 l 1,20,-1
 500 921 l 1,21,-1
 500 1139 l 1,22,-1
 672 1220 l 1,23,-1
 682 1220 l 1,0,-1
EndSplineSet
Validated: 3073
EndChar

StartChar: uni2218
Encoding: 8728 8728 183
Width: 1126
GlyphClass: 2
Flags: W
HStem: 348 158<428.88 561> 996 158<565 696.638>
VStem: 150 198<586.436 834> 778 198<668 915.564>
LayerCount: 2
Fore
SplineSet
565 1154 m 1,0,1
 739 1150 739 1150 854 1038 c 0,2,3
 974 922 974 922 976 668 c 1,4,-1
 561 348 l 1,5,6
 386 352 386 352 272 464 c 0,7,8
 152 580 152 580 150 834 c 1,9,-1
 565 1154 l 1,0,1
563 506 m 24,10,11
 661 506 661 506 719 567 c 0,12,13
 778 629 778 629 778 751 c 0,14,15
 778 882 778 882 713 941 c 0,16,17
 653 995 653 995 563 996 c 24,18,19
 465 996 465 996 407 935 c 0,20,21
 348 873 348 873 348 751 c 0,22,23
 348 620 348 620 413 561 c 0,24,25
 473 507 473 507 563 506 c 24,10,11
EndSplineSet
Validated: 1
EndChar

StartChar: uni2219
Encoding: 8729 8729 184
Width: 600
GlyphClass: 2
Flags: W
HStem: 594 318
VStem: 200 200<684 822>
LayerCount: 2
Fore
SplineSet
200 594 m 5,0,-1
 200 822 l 5,1,-1
 390 912 l 5,2,-1
 400 912 l 5,3,-1
 400 684 l 5,4,-1
 210 594 l 5,5,-1
 200 594 l 5,0,-1
EndSplineSet
Validated: 3073
EndChar

StartChar: radical
Encoding: 8730 8730 185
Width: 1452
GlyphClass: 2
Flags: W
HStem: -40 21G<508.313 567.195> 621 130<157 294> 1380 130<1151 1345>
DStem2: 458 751 294 621 0.317089 -0.948396<71.289 544.86> 630 234 698 42 0.320684 0.947186<0 1252.55>
LayerCount: 2
Fore
SplineSet
525 -40 m 5,0,-1
 515 -40 l 5,1,-1
 294 621 l 5,2,-1
 100 621 l 5,3,-1
 100 631 l 5,4,-1
 157 751 l 5,5,-1
 458 751 l 5,6,-1
 630 234 l 5,7,-1
 1057 1510 l 5,8,-1
 1402 1510 l 5,9,-1
 1402 1500 l 5,10,-1
 1345 1380 l 5,11,-1
 1151 1380 l 5,12,-1
 698 42 l 5,13,-1
 525 -40 l 5,0,-1
EndSplineSet
Validated: 1
EndChar

StartChar: uni221B
Encoding: 8731 8731 186
Width: 1452
GlyphClass: 2
Flags: W
HStem: -40 21G<508.313 567.195> 621 130<157 294> 790 126<438.037 534> 1380 130<1151 1345> 1421 89<360 569>
VStem: 275 135<956.005 1042> 640 135<976 1110.21>
DStem2: 458 751 294 621 0.317089 -0.948396<71.289 544.86> 630 234 698 42 0.320684 0.947186<0 1252.55>
LayerCount: 2
Fore
SplineSet
360 1510 m 1,0,-1
 755 1510 l 1,1,-1
 594 1254 l 1,2,3
 654 1245 654 1245 706 1202 c 0,4,5
 775 1145 775 1145 775 1031 c 2,6,-1
 775 976 l 1,7,-1
 534 790 l 1,8,9
 409 790 409 790 342 859 c 128,-1,10
 275 928 275 928 275 1042 c 1,11,-1
 382 1100 l 1,12,-1
 410 1100 l 1,13,-1
 410 1038 l 2,14,15
 410 987 410 987 437 955 c 0,16,17
 470 916 470 916 526 916 c 0,18,19
 579 916 579 916 613 955 c 0,20,21
 640 986 640 986 640 1041 c 0,22,23
 640 1086 640 1086 619 1111 c 0,24,25
 589 1146 589 1146 522 1146 c 0,26,-1
 408 1146 l 1,27,-1
 569 1422 l 1,28,-1
 332 1421 l 1,29,-1
 332 1453 l 1,30,-1
 360 1510 l 1,0,-1
525 -40 m 1,31,-1
 515 -40 l 1,32,-1
 294 621 l 1,33,-1
 100 621 l 1,34,-1
 100 631 l 1,35,-1
 157 751 l 1,36,-1
 458 751 l 1,37,-1
 630 234 l 1,38,-1
 1057 1510 l 1,39,-1
 1402 1510 l 1,40,-1
 1402 1500 l 1,41,-1
 1345 1380 l 1,42,-1
 1151 1380 l 1,43,-1
 698 42 l 1,44,-1
 525 -40 l 1,31,-1
EndSplineSet
Validated: 1
EndChar

StartChar: infinity
Encoding: 8734 8734 187
Width: 1752
GlyphClass: 2
Flags: W
HStem: 348 158<429.362 561 1055.36 1187> 996 158<565 696.638 1191 1322.64>
VStem: 150 198<586.924 834> 778 196<585.656 916.344> 1404 198<668 915.564>
CounterMasks: 1 38
LayerCount: 2
Fore
SplineSet
563 506 m 0,0,1
 661 506 661 506 719 567 c 0,2,3
 778 629 778 629 778 751 c 0,4,5
 778 882 778 882 713 941 c 0,6,7
 652 996 652 996 563 996 c 0,8,9
 465 996 465 996 407 935 c 0,10,11
 348 873 348 873 348 751 c 0,12,13
 348 620 348 620 413 561 c 0,14,15
 474 506 474 506 563 506 c 0,0,1
565 1154 m 1,16,17
 739 1150 739 1150 854 1038 c 0,18,19
 894 999 894 999 921 946 c 1,20,-1
 1191 1154 l 1,21,22
 1365 1150 1365 1150 1480 1038 c 0,23,24
 1600 922 1600 922 1602 668 c 1,25,-1
 1187 348 l 1,26,27
 1013 352 1013 352 898 464 c 0,28,29
 858 503 858 503 831 557 c 1,30,-1
 561 348 l 1,31,32
 387 352 387 352 272 464 c 0,33,34
 152 581 152 581 150 834 c 1,35,-1
 565 1154 l 1,16,17
1189 506 m 0,36,37
 1287 506 1287 506 1345 567 c 0,38,39
 1404 629 1404 629 1404 751 c 0,40,41
 1404 882 1404 882 1339 941 c 0,42,43
 1278 996 1278 996 1189 996 c 0,44,45
 1091 996 1091 996 1033 935 c 0,46,47
 974 873 974 873 974 751 c 0,48,49
 974 620 974 620 1039 561 c 0,50,51
 1100 506 1100 506 1189 506 c 0,36,37
EndSplineSet
Validated: 1
EndChar

StartChar: approxequal
Encoding: 8776 8776 188
Width: 1268
GlyphClass: 2
Flags: W
HStem: 373 88<823.078 881> 663 88<387 444.922> 758 88<823.078 881> 1048 88<387 444.922>
VStem: 150 174<474.015 569 859.015 954> 944 174<556 649.985 941 1034.99>
LayerCount: 2
Fore
SplineSet
204 390 m 1,0,-1
 194 390 l 1,1,2
 150 450 150 450 150 569 c 1,3,-1
 387 751 l 17,4,5
 628 751 628 751 720 625 c 24,6,7
 839 461 839 461 889 461 c 0,8,9
 944 461 944 461 944 542 c 0,10,11
 944 605 944 605 896 653 c 1,12,-1
 1064 734 l 1,13,-1
 1074 734 l 1,14,15
 1118 674 1118 674 1118 556 c 1,16,-1
 881 373 l 17,17,18
 640 373 640 373 548 499 c 24,19,20
 429 663 429 663 379 663 c 0,21,22
 324 663 324 663 324 582 c 0,23,24
 324 519 324 519 372 471 c 1,25,-1
 204 390 l 1,0,-1
204 775 m 1,26,-1
 194 775 l 1,27,28
 150 835 150 835 150 954 c 1,29,-1
 387 1136 l 17,30,31
 628 1136 628 1136 720 1010 c 24,32,33
 839 846 839 846 889 846 c 0,34,35
 944 846 944 846 944 927 c 0,36,37
 944 990 944 990 896 1038 c 1,38,-1
 1064 1119 l 1,39,-1
 1074 1119 l 1,40,41
 1118 1059 1118 1059 1118 941 c 1,42,-1
 881 758 l 17,43,44
 640 758 640 758 548 884 c 24,45,46
 429 1048 429 1048 379 1048 c 0,47,48
 324 1048 324 1048 324 967 c 0,49,50
 324 904 324 904 372 856 c 1,51,-1
 204 775 l 1,26,-1
EndSplineSet
Validated: 1
EndChar

StartChar: notequal
Encoding: 8800 8800 189
Width: 1214
GlyphClass: 2
Flags: W
HStem: 482 182<231 389 656 983> 846 182<231 558 825 983>
DStem2: 289 268 440 200 0.42198 0.906605<2.06988 236.212 513.882 637.53 915.201 1149.34>
LayerCount: 2
Fore
SplineSet
430 200 m 1,0,-1
 289 268 l 1,1,-1
 389 482 l 1,2,-1
 150 482 l 1,3,-1
 150 492 l 1,4,-1
 231 664 l 1,5,-1
 473 664 l 1,6,-1
 558 846 l 1,7,-1
 150 846 l 1,8,-1
 150 856 l 1,9,-1
 231 1028 l 1,10,-1
 643 1028 l 1,11,-1
 774 1310 l 1,12,-1
 784 1310 l 1,13,-1
 925 1242 l 1,14,-1
 825 1028 l 1,15,-1
 1064 1028 l 1,16,-1
 1064 1018 l 1,17,-1
 983 846 l 1,18,-1
 741 846 l 1,19,-1
 656 664 l 1,20,-1
 1064 664 l 1,21,-1
 1064 654 l 1,22,-1
 983 482 l 1,23,-1
 571 482 l 1,24,-1
 440 200 l 1,25,-1
 430 200 l 1,0,-1
EndSplineSet
Validated: 3073
EndChar

StartChar: equivalence
Encoding: 8801 8801 190
Width: 1214
GlyphClass: 2
Flags: W
HStem: 300 182<231 983> 664 182<231 983> 1028 182<231 983>
CounterMasks: 1 e0
LayerCount: 2
Fore
SplineSet
150 300 m 1,0,-1
 150 310 l 1,1,-1
 231 482 l 1,2,-1
 1064 482 l 1,3,-1
 1064 472 l 1,4,-1
 983 300 l 1,5,-1
 150 300 l 1,0,-1
150 1028 m 1,6,-1
 150 1038 l 1,7,-1
 231 1210 l 1,8,-1
 1064 1210 l 1,9,-1
 1064 1200 l 1,10,-1
 983 1028 l 1,11,-1
 150 1028 l 1,6,-1
150 664 m 1,12,-1
 150 674 l 1,13,-1
 231 846 l 1,14,-1
 1064 846 l 1,15,-1
 1064 836 l 1,16,-1
 983 664 l 1,17,-1
 150 664 l 1,12,-1
EndSplineSet
Validated: 3073
EndChar

StartChar: lessequal
Encoding: 8804 8804 191
Width: 1338
GlyphClass: 2
Flags: W
HStem: 191 182<231 1057>
DStem2: 369 924 150 801 0.919983 -0.391958<0 831.535>
LayerCount: 2
Fore
SplineSet
150 191 m 1,0,-1
 150 201 l 1,1,-1
 231 373 l 1,2,-1
 1138 373 l 1,3,-1
 1138 363 l 1,4,-1
 1057 191 l 1,5,-1
 150 191 l 1,0,-1
1089 1352 m 1,6,-1
 1138 1249 l 1,7,-1
 1138 1239 l 1,8,-1
 369 924 l 1,9,-1
 1138 598 l 1,10,-1
 1138 588 l 1,11,-1
 1056 415 l 1,12,-1
 150 801 l 1,13,-1
 150 811 l 1,14,-1
 232 984 l 1,15,-1
 1089 1352 l 1,6,-1
EndSplineSet
Validated: 3073
EndChar

StartChar: greaterequal
Encoding: 8805 8805 192
Width: 1338
GlyphClass: 2
Flags: W
HStem: 191 182<281 1107>
DStem2: 282 1352 200 1169 0.919983 -0.391958<0 831.535> 200 528 249 415 0.918868 0.394566<0.438527 830.897>
LayerCount: 2
Fore
SplineSet
200 191 m 1,0,-1
 200 201 l 1,1,-1
 281 373 l 1,2,-1
 1188 373 l 1,3,-1
 1188 363 l 1,4,-1
 1107 191 l 1,5,-1
 200 191 l 1,0,-1
282 1352 m 1,6,-1
 1188 966 l 1,7,-1
 1188 956 l 1,8,-1
 1106 783 l 1,9,-1
 249 415 l 1,10,-1
 200 518 l 1,11,-1
 200 528 l 1,12,-1
 969 843 l 1,13,-1
 200 1169 l 1,14,-1
 200 1179 l 1,15,-1
 282 1352 l 1,6,-1
EndSplineSet
Validated: 3073
EndChar

StartChar: lozenge
Encoding: 9674 9674 193
Width: 1174
GlyphClass: 2
Flags: W
HStem: 0 21G<574.344 599.605>
DStem2: 120 738 294 810 0.517589 0.855629<151.666 637.523> 294 810 120 738 0.534725 -0.845026<0 642.656> 587 1510 545 1226 0.519065 -0.854735<220.944 869.392> 633 264 587 0 0.533177 0.846004<0 477.931>
LayerCount: 2
Fore
SplineSet
633 264 m 1,0,-1
 882 672 l 1,1,-1
 545 1226 l 1,2,-1
 294 810 l 1,3,-1
 633 264 l 1,0,-1
587 0 m 1,4,-1
 120 738 l 1,5,-1
 587 1510 l 1,6,-1
 1054 741 l 1,7,-1
 587 0 l 1,4,-1
EndSplineSet
Validated: 3073
EndChar

StartChar: Agrave
Encoding: 192 192 194
Width: 1410
Flags: W
HStem: -40 21G<200 252.222 1010 1061.3> 522 130<107 200 400 813> 1370 180<705 870.002>
VStem: 200 200<50 522 652 1160> 1010 200<52 1224.75>
LayerCount: 2
Fore
SplineSet
50 522 m 1,0,-1
 50 532 l 1,1,-1
 107 652 l 1,2,-1
 200 652 l 1,3,-1
 200 1160 l 1,4,-1
 705 1550 l 1,5,6
 933 1550 933 1550 1075 1405 c 0,7,8
 1210 1267 1210 1267 1210 1050 c 2,9,-1
 1210 52 l 1,10,-1
 1020 -40 l 1,11,-1
 1010 -40 l 1,12,-1
 1010 1050 l 2,13,14
 1010 1184 1010 1184 938 1267 c 0,15,16
 849 1370 849 1370 705 1370 c 0,17,18
 558 1370 558 1370 472 1267 c 0,19,20
 400 1181 400 1181 400 1050 c 2,21,-1
 400 652 l 1,22,-1
 870 652 l 1,23,-1
 870 642 l 1,24,-1
 813 522 l 1,25,-1
 400 522 l 1,26,-1
 400 50 l 1,27,-1
 210 -40 l 1,28,-1
 200 -40 l 1,29,-1
 200 522 l 1,30,-1
 50 522 l 1,0,-1
596 1966 m 1,31,-1
 606 1966 l 1,32,-1
 768 1621 l 1,33,-1
 651 1566 l 1,34,-1
 641 1566 l 1,35,-1
 420 1882 l 1,36,-1
 596 1966 l 1,31,-1
EndSplineSet
Validated: 1
EndChar

StartChar: Aacute
Encoding: 193 193 195
Width: 1410
Flags: W
HStem: -40 21G<200 252.222 1010 1061.3> 522 130<107 200 400 813> 1370 180<705 870.002>
VStem: 200 200<50 522 652 1160> 1010 200<52 1224.75>
LayerCount: 2
Fore
SplineSet
50 522 m 1,0,-1
 50 532 l 1,1,-1
 107 652 l 1,2,-1
 200 652 l 1,3,-1
 200 1160 l 1,4,-1
 705 1550 l 1,5,6
 933 1550 933 1550 1075 1405 c 0,7,8
 1210 1267 1210 1267 1210 1050 c 2,9,-1
 1210 52 l 1,10,-1
 1020 -40 l 1,11,-1
 1010 -40 l 1,12,-1
 1010 1050 l 2,13,14
 1010 1184 1010 1184 938 1267 c 0,15,16
 849 1370 849 1370 705 1370 c 0,17,18
 558 1370 558 1370 472 1267 c 0,19,20
 400 1181 400 1181 400 1050 c 2,21,-1
 400 652 l 1,22,-1
 870 652 l 1,23,-1
 870 642 l 1,24,-1
 813 522 l 1,25,-1
 400 522 l 1,26,-1
 400 50 l 1,27,-1
 210 -40 l 1,28,-1
 200 -40 l 1,29,-1
 200 522 l 1,30,-1
 50 522 l 1,0,-1
796 1966 m 1,31,-1
 806 1966 l 1,32,-1
 982 1882 l 1,33,-1
 761 1566 l 1,34,-1
 751 1566 l 1,35,-1
 634 1621 l 1,36,-1
 796 1966 l 1,31,-1
EndSplineSet
Validated: 1
EndChar

StartChar: Acircumflex
Encoding: 194 194 196
Width: 1410
Flags: W
HStem: -40 21G<200 252.222 1010 1061.3> 522 130<107 200 400 813> 1370 180<705 870.002>
VStem: 200 200<50 522 652 1160> 1010 200<52 1224.75>
DStem2: 453 1615 566 1566 0.534229 0.84534<18.9463 287.01>
LayerCount: 2
Fore
SplineSet
50 522 m 1,0,-1
 50 532 l 1,1,-1
 107 652 l 1,2,-1
 200 652 l 1,3,-1
 200 1160 l 1,4,-1
 705 1550 l 1,5,6
 933 1550 933 1550 1075 1405 c 0,7,8
 1210 1267 1210 1267 1210 1050 c 2,9,-1
 1210 52 l 1,10,-1
 1020 -40 l 1,11,-1
 1010 -40 l 1,12,-1
 1010 1050 l 2,13,14
 1010 1184 1010 1184 938 1267 c 0,15,16
 849 1370 849 1370 705 1370 c 0,17,18
 558 1370 558 1370 472 1267 c 0,19,20
 400 1181 400 1181 400 1050 c 2,21,-1
 400 652 l 1,22,-1
 870 652 l 1,23,-1
 870 642 l 1,24,-1
 813 522 l 1,25,-1
 400 522 l 1,26,-1
 400 50 l 1,27,-1
 210 -40 l 1,28,-1
 200 -40 l 1,29,-1
 200 522 l 1,30,-1
 50 522 l 1,0,-1
806 1966 m 1,31,-1
 1031 1648 l 1,32,-1
 858 1566 l 1,33,-1
 848 1566 l 1,34,-1
 707 1794 l 1,35,-1
 566 1566 l 1,36,-1
 556 1566 l 1,37,-1
 453 1615 l 1,38,-1
 623 1884 l 1,39,-1
 796 1966 l 1,40,-1
 806 1966 l 1,31,-1
EndSplineSet
Validated: 1
EndChar

StartChar: Atilde
Encoding: 195 195 197
Width: 1410
Flags: W
HStem: -40 21G<200 252.222 1010 1061.3> 522 130<107 200 400 813> 1370 180<705 870.002> 1639 159<745.318 817> 1737 159<637 708.682>
VStem: 200 200<50 522 652 1160> 1010 200<52 1224.75>
LayerCount: 2
Fore
SplineSet
50 522 m 1,0,-1
 50 532 l 1,1,-1
 107 652 l 1,2,-1
 200 652 l 1,3,-1
 200 1160 l 1,4,-1
 705 1550 l 1,5,6
 933 1550 933 1550 1075 1405 c 0,7,8
 1210 1267 1210 1267 1210 1050 c 2,9,-1
 1210 52 l 1,10,-1
 1020 -40 l 1,11,-1
 1010 -40 l 1,12,-1
 1010 1050 l 2,13,14
 1010 1184 1010 1184 938 1267 c 0,15,16
 849 1370 849 1370 705 1370 c 0,17,18
 558 1370 558 1370 472 1267 c 0,19,20
 400 1181 400 1181 400 1050 c 2,21,-1
 400 652 l 1,22,-1
 870 652 l 1,23,-1
 870 642 l 1,24,-1
 813 522 l 1,25,-1
 400 522 l 1,26,-1
 400 50 l 1,27,-1
 210 -40 l 1,28,-1
 200 -40 l 1,29,-1
 200 522 l 1,30,-1
 50 522 l 1,0,-1
510 1639 m 1,31,-1
 425 1688 l 1,32,-1
 637 1896 l 1,33,34
 701 1896 701 1896 732 1857 c 0,35,36
 779 1798 779 1798 831 1798 c 0,37,38
 892 1798 892 1798 934 1896 c 1,39,-1
 944 1896 l 1,40,-1
 1029 1847 l 1,41,-1
 817 1639 l 1,42,43
 753 1639 753 1639 722 1678 c 0,44,45
 675 1737 675 1737 623 1737 c 0,46,47
 562 1737 562 1737 520 1639 c 1,48,-1
 510 1639 l 1,31,-1
EndSplineSet
Validated: 1
EndChar

StartChar: Adieresis
Encoding: 196 196 198
Width: 1410
Flags: W
HStem: -40 21G<200 252.222 1010 1061.3> 522 130<107 200 400 813> 1370 180<705 870.002>
VStem: 200 200<50 522 652 1160> 471 200<1738 1876> 744 200<1738 1876> 1010 200<52 1224.75>
LayerCount: 2
Fore
SplineSet
50 522 m 1,0,-1
 50 532 l 1,1,-1
 107 652 l 1,2,-1
 200 652 l 1,3,-1
 200 1160 l 1,4,-1
 705 1550 l 1,5,6
 933 1550 933 1550 1075 1405 c 0,7,8
 1210 1267 1210 1267 1210 1050 c 2,9,-1
 1210 52 l 1,10,-1
 1020 -40 l 1,11,-1
 1010 -40 l 1,12,-1
 1010 1050 l 2,13,14
 1010 1184 1010 1184 938 1267 c 0,15,16
 849 1370 849 1370 705 1370 c 0,17,18
 558 1370 558 1370 472 1267 c 0,19,20
 400 1181 400 1181 400 1050 c 2,21,-1
 400 652 l 1,22,-1
 870 652 l 1,23,-1
 870 642 l 1,24,-1
 813 522 l 1,25,-1
 400 522 l 1,26,-1
 400 50 l 1,27,-1
 210 -40 l 1,28,-1
 200 -40 l 1,29,-1
 200 522 l 1,30,-1
 50 522 l 1,0,-1
934 1966 m 1,31,-1
 944 1966 l 1,32,-1
 944 1738 l 1,33,-1
 754 1648 l 1,34,-1
 744 1648 l 1,35,-1
 744 1876 l 1,36,-1
 934 1966 l 1,31,-1
661 1966 m 1,37,-1
 671 1966 l 1,38,-1
 671 1738 l 1,39,-1
 481 1648 l 1,40,-1
 471 1648 l 1,41,-1
 471 1876 l 1,42,-1
 661 1966 l 1,37,-1
EndSplineSet
Validated: 1
EndChar

StartChar: Aring
Encoding: 197 197 199
Width: 1410
Flags: W
HStem: -40 21G<200 252.222 1010 1061.3> 522 130<107 200 400 813> 1370 180<705 870.002> 1862 104<705 761.373>
VStem: 200 200<50 522 652 1160> 519 119<1712.6 1802> 784 118<1753 1842.34> 1010 200<52 1224.75>
LayerCount: 2
Fore
SplineSet
50 522 m 1,0,-1
 50 532 l 1,1,-1
 107 652 l 1,2,-1
 200 652 l 1,3,-1
 200 1160 l 1,4,-1
 705 1550 l 1,5,6
 933 1550 933 1550 1075 1405 c 0,7,8
 1210 1267 1210 1267 1210 1050 c 2,9,-1
 1210 52 l 1,10,-1
 1020 -40 l 1,11,-1
 1010 -40 l 1,12,-1
 1010 1050 l 2,13,14
 1010 1184 1010 1184 938 1267 c 0,15,16
 849 1370 849 1370 705 1370 c 0,17,18
 558 1370 558 1370 472 1267 c 0,19,20
 400 1181 400 1181 400 1050 c 2,21,-1
 400 652 l 1,22,-1
 870 652 l 1,23,-1
 870 642 l 1,24,-1
 813 522 l 1,25,-1
 400 522 l 1,26,-1
 400 50 l 1,27,-1
 210 -40 l 1,28,-1
 200 -40 l 1,29,-1
 200 522 l 1,30,-1
 50 522 l 1,0,-1
705 1966 m 1,31,32
 791 1964 791 1964 844 1920 c 0,33,34
 902 1872 902 1872 902 1777 c 2,35,-1
 902 1753 l 1,36,-1
 716 1589 l 1,37,38
 622 1596 622 1596 577 1635 c 0,39,40
 519 1685 519 1685 519 1777 c 2,41,-1
 519 1802 l 1,42,-1
 705 1966 l 1,31,32
712 1862 m 0,43,44
 678 1862 678 1862 658 1841 c 128,-1,45
 638 1820 638 1820 638 1777 c 0,46,47
 638 1731 638 1731 659 1712 c 0,48,49
 681 1692 681 1692 714 1692 c 0,50,51
 742 1692 742 1692 764 1714 c 0,52,53
 784 1733 784 1733 784 1777 c 0,54,55
 784 1822 784 1822 762 1843 c 0,56,57
 742 1862 742 1862 712 1862 c 0,43,44
EndSplineSet
Validated: 1
EndChar

StartChar: AE
Encoding: 198 198 200
Width: 1943
Flags: W
HStem: -40 21G<200 252.222> 0 130<1210 1836> 522 130<107 200 400 1010 1210 1623> 1370 180<705 870.313> 1380 130<1210 1693>
VStem: 200 200<50 522 652 1160> 1010 200<130 522 652 1228.25>
LayerCount: 2
Fore
SplineSet
200 -40 m 1,0,-1
 200 522 l 1,1,-1
 50 522 l 1,2,-1
 50 532 l 1,3,-1
 107 652 l 1,4,-1
 200 652 l 1,5,-1
 200 1160 l 1,6,-1
 705 1550 l 1,7,8
 884 1550 884 1550 1011 1460 c 1,9,-1
 1116 1510 l 1,10,-1
 1750 1510 l 1,11,-1
 1750 1500 l 1,12,-1
 1693 1380 l 1,13,-1
 1210 1380 l 1,14,-1
 1210 652 l 1,15,-1
 1680 652 l 1,16,-1
 1680 642 l 1,17,-1
 1623 522 l 1,18,-1
 1210 522 l 1,19,-1
 1210 130 l 1,20,-1
 1893 130 l 1,21,-1
 1893 120 l 1,22,-1
 1836 0 l 1,23,-1
 1010 0 l 1,24,-1
 1010 522 l 1,25,-1
 400 522 l 1,26,-1
 400 50 l 1,27,-1
 210 -40 l 1,28,-1
 200 -40 l 1,0,-1
400 652 m 1,29,-1
 1010 652 l 1,30,-1
 1010 1050 l 2,31,32
 1010 1184 1010 1184 938 1267 c 0,33,34
 849 1370 849 1370 705 1370 c 0,35,36
 558 1370 558 1370 472 1267 c 0,37,38
 400 1181 400 1181 400 1050 c 2,39,-1
 400 652 l 1,29,-1
EndSplineSet
Validated: 1
EndChar

StartChar: Amacron
Encoding: 256 256 201
Width: 1410
Flags: W
HStem: -40 21G<200 252.222 1010 1061.3> 522 130<107 200 400 813> 1370 180<705 870.002> 1638 182<548 925>
VStem: 200 200<50 522 652 1160> 1010 200<52 1224.75>
LayerCount: 2
Fore
SplineSet
50 522 m 1,0,-1
 50 532 l 1,1,-1
 107 652 l 1,2,-1
 200 652 l 1,3,-1
 200 1160 l 1,4,-1
 705 1550 l 1,5,6
 933 1550 933 1550 1075 1405 c 0,7,8
 1210 1267 1210 1267 1210 1050 c 2,9,-1
 1210 52 l 1,10,-1
 1020 -40 l 1,11,-1
 1010 -40 l 1,12,-1
 1010 1050 l 2,13,14
 1010 1184 1010 1184 938 1267 c 0,15,16
 849 1370 849 1370 705 1370 c 0,17,18
 558 1370 558 1370 472 1267 c 0,19,20
 400 1181 400 1181 400 1050 c 2,21,-1
 400 652 l 1,22,-1
 870 652 l 1,23,-1
 870 642 l 1,24,-1
 813 522 l 1,25,-1
 400 522 l 1,26,-1
 400 50 l 1,27,-1
 210 -40 l 1,28,-1
 200 -40 l 1,29,-1
 200 522 l 1,30,-1
 50 522 l 1,0,-1
467 1638 m 1,31,-1
 467 1648 l 1,32,-1
 548 1820 l 1,33,-1
 1006 1820 l 1,34,-1
 1006 1810 l 1,35,-1
 925 1638 l 1,36,-1
 467 1638 l 1,31,-1
EndSplineSet
Validated: 1
EndChar

StartChar: Abreve
Encoding: 258 258 202
Width: 1410
Flags: W
HStem: -40 21G<200 252.222 1010 1061.3> 522 130<107 200 400 813> 1370 180<705 870.002> 1638 158<605.7 747>
VStem: 200 200<50 522 652 1160> 1010 200<52 1224.75>
LayerCount: 2
Fore
SplineSet
50 522 m 1,0,-1
 50 532 l 1,1,-1
 107 652 l 1,2,-1
 200 652 l 1,3,-1
 200 1160 l 1,4,-1
 705 1550 l 1,5,6
 933 1550 933 1550 1075 1405 c 0,7,8
 1210 1267 1210 1267 1210 1050 c 2,9,-1
 1210 52 l 1,10,-1
 1020 -40 l 1,11,-1
 1010 -40 l 1,12,-1
 1010 1050 l 2,13,14
 1010 1184 1010 1184 938 1267 c 0,15,16
 849 1370 849 1370 705 1370 c 0,17,18
 558 1370 558 1370 472 1267 c 0,19,20
 400 1181 400 1181 400 1050 c 2,21,-1
 400 652 l 1,22,-1
 870 652 l 1,23,-1
 870 642 l 1,24,-1
 813 522 l 1,25,-1
 400 522 l 1,26,-1
 400 50 l 1,27,-1
 210 -40 l 1,28,-1
 200 -40 l 1,29,-1
 200 522 l 1,30,-1
 50 522 l 1,0,-1
402 1785 m 1,31,-1
 533 1902 l 1,32,-1
 543 1902 l 1,33,34
 627 1796 627 1796 729 1796 c 0,35,36
 832 1796 832 1796 939 1897 c 1,37,-1
 949 1897 l 1,38,-1
 998 1853 l 1,39,-1
 747 1638 l 1,40,41
 558 1638 558 1638 402 1785 c 1,31,-1
EndSplineSet
Validated: 1
EndChar

StartChar: Aogonek
Encoding: 260 260 203
Width: 1410
Flags: W
HStem: -450 21G<963.5 1057.22> -40 21G<200 252.222> 522 130<107 200 400 813> 1370 180<705 870.002>
VStem: 200 200<50 522 652 1160> 1010 200<52 1224.75> 1010 87<-40 -8.94604>
LayerCount: 2
Fore
SplineSet
200 -40 m 1,0,-1
 200 522 l 1,1,-1
 50 522 l 1,2,-1
 50 532 l 1,3,-1
 107 652 l 1,4,-1
 200 652 l 1,5,-1
 200 1160 l 1,6,-1
 705 1550 l 1,7,8
 933 1550 933 1550 1075 1405 c 0,9,10
 1210 1267 1210 1267 1210 1050 c 2,11,-1
 1210 52 l 1,12,-1
 1159 27 l 1,13,14
 1097 -78 1097 -78 1097 -178 c 0,15,16
 1097 -288 1097 -288 1205 -360 c 1,17,-1
 1015 -450 l 1,18,-1
 1005 -450 l 1,19,20
 922 -348 922 -348 909 -159 c 1,21,-1
 1010 -40 l 1,22,-1
 1010 1050 l 2,23,24
 1010 1184 1010 1184 938 1267 c 0,25,26
 849 1370 849 1370 705 1370 c 0,27,28
 558 1370 558 1370 472 1267 c 0,29,30
 400 1181 400 1181 400 1050 c 2,31,-1
 400 652 l 1,32,-1
 870 652 l 1,33,-1
 870 642 l 1,34,-1
 813 522 l 1,35,-1
 400 522 l 1,36,-1
 400 50 l 1,37,-1
 210 -40 l 1,38,-1
 200 -40 l 1,0,-1
EndSplineSet
Validated: 1
EndChar

StartChar: Ccedilla
Encoding: 199 199 204
Width: 1410
Flags: W
HStem: -450 21G<774.778 868.5> -40 180<539.998 718.29> 1370 180<705 870.002>
VStem: 200 200<285.246 1160> 1010 200<350 460 1050 1224.75>
LayerCount: 2
Fore
SplineSet
1210 550 m 1,0,-1
 1210 350 l 1,1,-1
 776 15 l 1,2,-1
 923 -159 l 1,3,4
 910 -348 910 -348 827 -450 c 1,5,-1
 817 -450 l 1,6,-1
 627 -360 l 1,7,8
 735 -284 735 -284 735 -178 c 0,9,10
 735 -106 735 -106 705 -40 c 1,11,12
 477 -40 477 -40 335 105 c 0,13,14
 200 243 200 243 200 460 c 2,15,-1
 200 1160 l 1,16,-1
 705 1550 l 1,17,18
 933 1550 933 1550 1075 1405 c 0,19,20
 1210 1267 1210 1267 1210 1050 c 1,21,-1
 1020 960 l 1,22,-1
 1010 960 l 1,23,-1
 1010 1050 l 2,24,25
 1010 1184 1010 1184 938 1267 c 0,26,27
 849 1370 849 1370 705 1370 c 128,-1,28
 561 1370 561 1370 472 1267 c 0,29,30
 400 1183 400 1183 400 1050 c 2,31,-1
 400 460 l 2,32,33
 400 328 400 328 472 243 c 0,34,35
 559 140 559 140 705 140 c 0,36,37
 848 140 848 140 938 243 c 0,38,39
 1010 326 1010 326 1010 460 c 1,40,-1
 1200 550 l 1,41,-1
 1210 550 l 1,0,-1
EndSplineSet
Validated: 1
EndChar

StartChar: Cacute
Encoding: 262 262 205
Width: 1410
Flags: W
HStem: -40 180<539.998 705> 1370 180<705 870.002>
VStem: 200 200<285.246 1160> 1010 200<350 460 1050 1224.75>
LayerCount: 2
Fore
SplineSet
705 -40 m 1,0,1
 477 -40 477 -40 335 105 c 0,2,3
 200 243 200 243 200 460 c 2,4,-1
 200 1160 l 1,5,-1
 705 1550 l 1,6,7
 933 1550 933 1550 1075 1405 c 0,8,9
 1210 1267 1210 1267 1210 1050 c 1,10,-1
 1020 960 l 1,11,-1
 1010 960 l 1,12,-1
 1010 1050 l 18,13,14
 1010 1184 1010 1184 938 1267 c 0,15,16
 849 1370 849 1370 705 1370 c 0,17,18
 560 1370 560 1370 472 1267 c 0,19,20
 400 1184 400 1184 400 1050 c 2,21,-1
 400 460 l 2,22,23
 400 328 400 328 472 243 c 0,24,25
 559 140 559 140 705 140 c 0,26,27
 848 140 848 140 938 243 c 0,28,29
 1010 326 1010 326 1010 460 c 1,30,-1
 1200 550 l 1,31,-1
 1210 550 l 1,32,-1
 1210 350 l 1,33,-1
 705 -40 l 1,0,1
796 1966 m 1,34,-1
 806 1966 l 1,35,-1
 982 1882 l 1,36,-1
 761 1566 l 1,37,-1
 751 1566 l 1,38,-1
 634 1621 l 1,39,-1
 796 1966 l 1,34,-1
EndSplineSet
Validated: 1
EndChar

StartChar: Ccircumflex
Encoding: 264 264 206
Width: 1410
Flags: W
HStem: -40 180<539.998 705> 1370 180<705 870.002>
VStem: 200 200<285.246 1160> 1010 200<350 460 1050 1224.75>
DStem2: 453 1615 566 1566 0.534229 0.84534<18.9463 287.01>
LayerCount: 2
Fore
SplineSet
705 -40 m 1,0,1
 477 -40 477 -40 335 105 c 0,2,3
 200 243 200 243 200 460 c 2,4,-1
 200 1160 l 1,5,-1
 705 1550 l 1,6,7
 933 1550 933 1550 1075 1405 c 0,8,9
 1210 1267 1210 1267 1210 1050 c 1,10,-1
 1020 960 l 1,11,-1
 1010 960 l 1,12,-1
 1010 1050 l 18,13,14
 1010 1184 1010 1184 938 1267 c 0,15,16
 849 1370 849 1370 705 1370 c 0,17,18
 560 1370 560 1370 472 1267 c 0,19,20
 400 1184 400 1184 400 1050 c 2,21,-1
 400 460 l 2,22,23
 400 328 400 328 472 243 c 0,24,25
 559 140 559 140 705 140 c 0,26,27
 848 140 848 140 938 243 c 0,28,29
 1010 326 1010 326 1010 460 c 1,30,-1
 1200 550 l 1,31,-1
 1210 550 l 1,32,-1
 1210 350 l 1,33,-1
 705 -40 l 1,0,1
806 1966 m 1,34,-1
 1031 1648 l 1,35,-1
 858 1566 l 1,36,-1
 848 1566 l 1,37,-1
 707 1794 l 1,38,-1
 566 1566 l 1,39,-1
 556 1566 l 1,40,-1
 453 1615 l 1,41,-1
 623 1884 l 1,42,-1
 796 1966 l 1,43,-1
 806 1966 l 1,34,-1
EndSplineSet
Validated: 1
EndChar

StartChar: Cdotaccent
Encoding: 266 266 207
Width: 1410
Flags: W
HStem: -40 180<539.998 705> 1370 180<705 870.002>
VStem: 200 200<285.246 1160> 600 200<1738 1876> 1010 200<350 460 1050 1224.75>
LayerCount: 2
Fore
SplineSet
705 -40 m 1,0,1
 477 -40 477 -40 335 105 c 0,2,3
 200 243 200 243 200 460 c 2,4,-1
 200 1160 l 1,5,-1
 705 1550 l 1,6,7
 933 1550 933 1550 1075 1405 c 0,8,9
 1210 1267 1210 1267 1210 1050 c 1,10,-1
 1020 960 l 1,11,-1
 1010 960 l 1,12,-1
 1010 1050 l 18,13,14
 1010 1184 1010 1184 938 1267 c 0,15,16
 849 1370 849 1370 705 1370 c 0,17,18
 560 1370 560 1370 472 1267 c 0,19,20
 400 1184 400 1184 400 1050 c 2,21,-1
 400 460 l 2,22,23
 400 328 400 328 472 243 c 0,24,25
 559 140 559 140 705 140 c 0,26,27
 848 140 848 140 938 243 c 0,28,29
 1010 326 1010 326 1010 460 c 1,30,-1
 1200 550 l 1,31,-1
 1210 550 l 1,32,-1
 1210 350 l 1,33,-1
 705 -40 l 1,0,1
800 1966 m 1,34,-1
 800 1738 l 1,35,-1
 610 1648 l 1,36,-1
 600 1648 l 1,37,-1
 600 1876 l 1,38,-1
 790 1966 l 1,39,-1
 800 1966 l 1,34,-1
EndSplineSet
Validated: 1
EndChar

StartChar: Ccaron
Encoding: 268 268 208
Width: 1410
Flags: W
HStem: -40 180<539.998 705> 1370 180<705 870.002>
VStem: 200 200<285.246 1160> 1010 200<350 460 1050 1224.75>
DStem2: 728 1738 812 1648 0.534229 0.84534<0 268.064>
LayerCount: 2
Fore
SplineSet
705 -40 m 1,0,1
 477 -40 477 -40 335 105 c 0,2,3
 200 243 200 243 200 460 c 2,4,-1
 200 1160 l 1,5,-1
 705 1550 l 1,6,7
 933 1550 933 1550 1075 1405 c 0,8,9
 1210 1267 1210 1267 1210 1050 c 1,10,-1
 1020 960 l 1,11,-1
 1010 960 l 1,12,-1
 1010 1050 l 18,13,14
 1010 1184 1010 1184 938 1267 c 0,15,16
 849 1370 849 1370 705 1370 c 0,17,18
 560 1370 560 1370 472 1267 c 0,19,20
 400 1184 400 1184 400 1050 c 2,21,-1
 400 460 l 2,22,23
 400 328 400 328 472 243 c 0,24,25
 559 140 559 140 705 140 c 0,26,27
 848 140 848 140 938 243 c 0,28,29
 1010 326 1010 326 1010 460 c 1,30,-1
 1200 550 l 1,31,-1
 1210 550 l 1,32,-1
 1210 350 l 1,33,-1
 705 -40 l 1,0,1
577 1966 m 1,34,-1
 587 1966 l 1,35,-1
 728 1738 l 1,36,-1
 869 1966 l 1,37,-1
 879 1966 l 1,38,-1
 982 1917 l 1,39,-1
 812 1648 l 1,40,-1
 639 1566 l 1,41,-1
 629 1566 l 1,42,-1
 404 1884 l 1,43,-1
 577 1966 l 1,34,-1
EndSplineSet
Validated: 1
EndChar

StartChar: Eth
Encoding: 208 208 209
Width: 1338
Flags: W
HStem: -40 21G<200 398.5> 522 130<107 200 400 813> 1530 20G<347.778 400 597.982 766.5>
VStem: 200 200<100 522 652 1460> 1026 192<592.136 1044.61>
LayerCount: 2
Fore
SplineSet
200 -40 m 1,0,-1
 200 522 l 1,1,-1
 50 522 l 1,2,-1
 50 532 l 1,3,-1
 107 652 l 1,4,-1
 200 652 l 1,5,-1
 200 1460 l 1,6,-1
 390 1550 l 1,7,-1
 400 1550 l 1,8,-1
 400 652 l 1,9,-1
 870 652 l 1,10,-1
 870 642 l 1,11,-1
 813 522 l 1,12,-1
 400 522 l 1,13,-1
 400 100 l 1,14,15
 637 189 637 189 797 326 c 0,16,17
 1026 523 1026 523 1026 816 c 0,18,19
 1026 1072 1026 1072 839 1245 c 0,20,21
 705 1369 705 1369 411 1441 c 1,22,-1
 640 1550 l 1,23,-1
 650 1550 l 1,24,25
 883 1488 883 1488 1023 1341 c 0,26,27
 1218 1136 1218 1136 1218 849 c 0,28,29
 1218 464 1218 464 870 220 c 0,30,31
 587 22 587 22 210 -40 c 1,32,-1
 200 -40 l 1,0,-1
EndSplineSet
Validated: 1
EndChar

StartChar: Dcaron
Encoding: 270 270 210
Width: 1338
Flags: W
HStem: -40 21G<200 399> 1530 20G<347.778 400 597.982 767>
VStem: 200 200<100 1460> 1026 192<591.665 1044.84>
DStem2: 677 1738 761 1648 0.534229 0.84534<0 268.064>
LayerCount: 2
Fore
SplineSet
526 1966 m 1,0,-1
 536 1966 l 1,1,-1
 677 1738 l 1,2,-1
 818 1966 l 1,3,-1
 828 1966 l 1,4,-1
 931 1917 l 1,5,-1
 761 1648 l 1,6,-1
 588 1566 l 1,7,-1
 578 1566 l 1,8,-1
 353 1884 l 1,9,-1
 526 1966 l 1,0,-1
200 -40 m 1,10,-1
 200 1460 l 1,11,-1
 390 1550 l 1,12,-1
 400 1550 l 1,13,-1
 400 100 l 1,14,15
 638 189 638 189 797 326 c 0,16,17
 1026 522 1026 522 1026 816 c 0,18,19
 1026 1072 1026 1072 839 1245 c 0,20,21
 705 1369 705 1369 411 1441 c 1,22,-1
 640 1550 l 1,23,-1
 650 1550 l 1,24,25
 884 1488 884 1488 1023 1341 c 0,26,27
 1218 1137 1218 1137 1218 849 c 24,28,29
 1218 463 1218 463 870 220 c 0,30,31
 588 22 588 22 210 -40 c 1,32,-1
 200 -40 l 1,10,-1
EndSplineSet
Validated: 3073
EndChar

StartChar: Dcroat
Encoding: 272 272 211
Width: 1338
Flags: W
HStem: -40 21G<200 398.5> 522 130<107 200 400 813> 1530 20G<347.778 400 597.982 766.5>
VStem: 200 200<100 522 652 1460> 1026 192<592.136 1044.61>
LayerCount: 2
Fore
SplineSet
200 -40 m 1,0,-1
 200 522 l 1,1,-1
 50 522 l 1,2,-1
 50 532 l 1,3,-1
 107 652 l 1,4,-1
 200 652 l 1,5,-1
 200 1460 l 1,6,-1
 390 1550 l 1,7,-1
 400 1550 l 1,8,-1
 400 652 l 1,9,-1
 870 652 l 1,10,-1
 870 642 l 1,11,-1
 813 522 l 1,12,-1
 400 522 l 1,13,-1
 400 100 l 1,14,15
 637 189 637 189 797 326 c 0,16,17
 1026 523 1026 523 1026 816 c 0,18,19
 1026 1072 1026 1072 839 1245 c 0,20,21
 705 1369 705 1369 411 1441 c 1,22,-1
 640 1550 l 1,23,-1
 650 1550 l 1,24,25
 883 1488 883 1488 1023 1341 c 0,26,27
 1218 1136 1218 1136 1218 849 c 0,28,29
 1218 464 1218 464 870 220 c 0,30,31
 587 22 587 22 210 -40 c 1,32,-1
 200 -40 l 1,0,-1
EndSplineSet
Validated: 1
EndChar

StartChar: Egrave
Encoding: 200 200 212
Width: 1133
Flags: W
HStem: 0 130<107 200 400 1026> 522 130<107 200 400 813> 1380 130<400 883>
VStem: 200 200<130 522 652 1380>
LayerCount: 2
Fore
SplineSet
50 0 m 1,0,-1
 50 10 l 1,1,-1
 107 130 l 1,2,-1
 200 130 l 1,3,-1
 200 522 l 1,4,-1
 50 522 l 1,5,-1
 50 532 l 1,6,-1
 107 652 l 1,7,-1
 200 652 l 1,8,-1
 200 1460 l 1,9,-1
 306 1510 l 1,10,-1
 940 1510 l 1,11,-1
 940 1500 l 1,12,-1
 883 1380 l 1,13,-1
 400 1380 l 1,14,-1
 400 652 l 1,15,-1
 870 652 l 1,16,-1
 870 642 l 1,17,-1
 813 522 l 1,18,-1
 400 522 l 1,19,-1
 400 130 l 1,20,-1
 1083 130 l 1,21,-1
 1083 120 l 1,22,-1
 1026 0 l 1,23,-1
 50 0 l 1,0,-1
526 1966 m 1,24,-1
 536 1966 l 1,25,-1
 698 1621 l 1,26,-1
 581 1566 l 1,27,-1
 571 1566 l 1,28,-1
 350 1882 l 1,29,-1
 526 1966 l 1,24,-1
EndSplineSet
Validated: 1
EndChar

StartChar: Eacute
Encoding: 201 201 213
Width: 1133
Flags: W
HStem: 0 130<107 200 400 1026> 522 130<107 200 400 813> 1380 130<400 883>
VStem: 200 200<130 522 652 1380>
LayerCount: 2
Fore
SplineSet
50 0 m 1,0,-1
 50 10 l 1,1,-1
 107 130 l 1,2,-1
 200 130 l 1,3,-1
 200 522 l 1,4,-1
 50 522 l 1,5,-1
 50 532 l 1,6,-1
 107 652 l 1,7,-1
 200 652 l 1,8,-1
 200 1460 l 1,9,-1
 306 1510 l 1,10,-1
 940 1510 l 1,11,-1
 940 1500 l 1,12,-1
 883 1380 l 1,13,-1
 400 1380 l 1,14,-1
 400 652 l 1,15,-1
 870 652 l 1,16,-1
 870 642 l 1,17,-1
 813 522 l 1,18,-1
 400 522 l 1,19,-1
 400 130 l 1,20,-1
 1083 130 l 1,21,-1
 1083 120 l 1,22,-1
 1026 0 l 1,23,-1
 50 0 l 1,0,-1
669 1966 m 1,24,-1
 679 1966 l 1,25,-1
 855 1882 l 1,26,-1
 634 1566 l 1,27,-1
 624 1566 l 1,28,-1
 507 1621 l 1,29,-1
 669 1966 l 1,24,-1
EndSplineSet
Validated: 1
EndChar

StartChar: Ecircumflex
Encoding: 202 202 214
Width: 1133
Flags: W
HStem: 0 130<107 200 400 1026> 522 130<107 200 400 813> 1380 130<400 883>
VStem: 200 200<130 522 652 1380>
DStem2: 295 1615 408 1566 0.534229 0.84534<18.9463 287.01>
LayerCount: 2
Fore
SplineSet
50 0 m 1,0,-1
 50 10 l 1,1,-1
 107 130 l 1,2,-1
 200 130 l 1,3,-1
 200 522 l 1,4,-1
 50 522 l 1,5,-1
 50 532 l 1,6,-1
 107 652 l 1,7,-1
 200 652 l 1,8,-1
 200 1460 l 1,9,-1
 306 1510 l 1,10,-1
 940 1510 l 1,11,-1
 940 1500 l 1,12,-1
 883 1380 l 1,13,-1
 400 1380 l 1,14,-1
 400 652 l 1,15,-1
 870 652 l 1,16,-1
 870 642 l 1,17,-1
 813 522 l 1,18,-1
 400 522 l 1,19,-1
 400 130 l 1,20,-1
 1083 130 l 1,21,-1
 1083 120 l 1,22,-1
 1026 0 l 1,23,-1
 50 0 l 1,0,-1
648 1966 m 1,24,-1
 873 1648 l 1,25,-1
 700 1566 l 1,26,-1
 690 1566 l 1,27,-1
 549 1794 l 1,28,-1
 408 1566 l 1,29,-1
 398 1566 l 1,30,-1
 295 1615 l 1,31,-1
 465 1884 l 1,32,-1
 638 1966 l 1,33,-1
 648 1966 l 1,24,-1
EndSplineSet
Validated: 1
EndChar

StartChar: Edieresis
Encoding: 203 203 215
Width: 1133
Flags: W
HStem: 0 130<107 200 400 1026> 522 130<107 200 400 813> 1380 130<400 883>
VStem: 200 200<130 522 652 1380> 365 200<1738 1876> 638 200<1738 1876>
LayerCount: 2
Fore
SplineSet
50 0 m 1,0,-1
 50 10 l 1,1,-1
 107 130 l 1,2,-1
 200 130 l 1,3,-1
 200 522 l 1,4,-1
 50 522 l 1,5,-1
 50 532 l 1,6,-1
 107 652 l 1,7,-1
 200 652 l 1,8,-1
 200 1460 l 1,9,-1
 306 1510 l 1,10,-1
 940 1510 l 1,11,-1
 940 1500 l 1,12,-1
 883 1380 l 1,13,-1
 400 1380 l 1,14,-1
 400 652 l 1,15,-1
 870 652 l 1,16,-1
 870 642 l 1,17,-1
 813 522 l 1,18,-1
 400 522 l 1,19,-1
 400 130 l 1,20,-1
 1083 130 l 1,21,-1
 1083 120 l 1,22,-1
 1026 0 l 1,23,-1
 50 0 l 1,0,-1
828 1966 m 1,24,-1
 838 1966 l 1,25,-1
 838 1738 l 1,26,-1
 648 1648 l 1,27,-1
 638 1648 l 1,28,-1
 638 1876 l 1,29,-1
 828 1966 l 1,24,-1
555 1966 m 1,30,-1
 565 1966 l 1,31,-1
 565 1738 l 1,32,-1
 375 1648 l 1,33,-1
 365 1648 l 1,34,-1
 365 1876 l 1,35,-1
 555 1966 l 1,30,-1
EndSplineSet
Validated: 1
EndChar

StartChar: Emacron
Encoding: 274 274 216
Width: 1133
Flags: W
HStem: 0 130<107 200 400 1026> 522 130<107 200 400 813> 1380 130<400 883> 1638 182<412 789>
VStem: 200 200<130 522 652 1380>
LayerCount: 2
Fore
SplineSet
50 0 m 1,0,-1
 50 10 l 1,1,-1
 107 130 l 1,2,-1
 200 130 l 1,3,-1
 200 522 l 1,4,-1
 50 522 l 1,5,-1
 50 532 l 1,6,-1
 107 652 l 1,7,-1
 200 652 l 1,8,-1
 200 1460 l 1,9,-1
 306 1510 l 1,10,-1
 940 1510 l 1,11,-1
 940 1500 l 1,12,-1
 883 1380 l 1,13,-1
 400 1380 l 1,14,-1
 400 652 l 1,15,-1
 870 652 l 1,16,-1
 870 642 l 1,17,-1
 813 522 l 1,18,-1
 400 522 l 1,19,-1
 400 130 l 1,20,-1
 1083 130 l 1,21,-1
 1083 120 l 1,22,-1
 1026 0 l 1,23,-1
 50 0 l 1,0,-1
331 1638 m 1,24,-1
 331 1648 l 1,25,-1
 412 1820 l 1,26,-1
 870 1820 l 1,27,-1
 870 1810 l 1,28,-1
 789 1638 l 1,29,-1
 331 1638 l 1,24,-1
EndSplineSet
Validated: 1
EndChar

StartChar: Ebreve
Encoding: 276 276 217
Width: 1133
Flags: W
HStem: 0 130<107 200 400 1026> 522 130<107 200 400 813> 1380 130<400 883> 1638 158<472.7 614>
VStem: 200 200<130 522 652 1380>
LayerCount: 2
Fore
SplineSet
50 0 m 1,0,-1
 50 10 l 1,1,-1
 107 130 l 1,2,-1
 200 130 l 1,3,-1
 200 522 l 1,4,-1
 50 522 l 1,5,-1
 50 532 l 1,6,-1
 107 652 l 1,7,-1
 200 652 l 1,8,-1
 200 1460 l 1,9,-1
 306 1510 l 1,10,-1
 940 1510 l 1,11,-1
 940 1500 l 1,12,-1
 883 1380 l 1,13,-1
 400 1380 l 1,14,-1
 400 652 l 1,15,-1
 870 652 l 1,16,-1
 870 642 l 1,17,-1
 813 522 l 1,18,-1
 400 522 l 1,19,-1
 400 130 l 1,20,-1
 1083 130 l 1,21,-1
 1083 120 l 1,22,-1
 1026 0 l 1,23,-1
 50 0 l 1,0,-1
269 1785 m 1,24,-1
 400 1902 l 1,25,-1
 410 1902 l 1,26,27
 494 1796 494 1796 596 1796 c 0,28,29
 699 1796 699 1796 806 1897 c 1,30,-1
 816 1897 l 1,31,-1
 865 1853 l 1,32,-1
 614 1638 l 1,33,34
 425 1638 425 1638 269 1785 c 1,24,-1
EndSplineSet
Validated: 1
EndChar

StartChar: Edotaccent
Encoding: 278 278 218
Width: 1133
Flags: W
HStem: 0 130<107 200 400 1026> 522 130<107 200 400 813> 1380 130<400 883>
VStem: 200 200<130 522 652 1380> 486 200<1738 1876>
LayerCount: 2
Fore
SplineSet
50 0 m 1,0,-1
 50 10 l 1,1,-1
 107 130 l 1,2,-1
 200 130 l 1,3,-1
 200 522 l 1,4,-1
 50 522 l 1,5,-1
 50 532 l 1,6,-1
 107 652 l 1,7,-1
 200 652 l 1,8,-1
 200 1460 l 1,9,-1
 306 1510 l 1,10,-1
 940 1510 l 1,11,-1
 940 1500 l 1,12,-1
 883 1380 l 1,13,-1
 400 1380 l 1,14,-1
 400 652 l 1,15,-1
 870 652 l 1,16,-1
 870 642 l 1,17,-1
 813 522 l 1,18,-1
 400 522 l 1,19,-1
 400 130 l 1,20,-1
 1083 130 l 1,21,-1
 1083 120 l 1,22,-1
 1026 0 l 1,23,-1
 50 0 l 1,0,-1
686 1966 m 1,24,-1
 686 1738 l 1,25,-1
 496 1648 l 1,26,-1
 486 1648 l 1,27,-1
 486 1876 l 1,28,-1
 676 1966 l 1,29,-1
 686 1966 l 1,24,-1
EndSplineSet
Validated: 1
EndChar

StartChar: Eogonek
Encoding: 280 280 219
Width: 1133
Flags: W
HStem: -450 21G<765.5 859.222> 0 130<107 200 400 846 933.585 1026> 522 130<107 200 400 813> 1380 130<400 883>
VStem: 200 200<130 522 652 1380>
LayerCount: 2
Fore
SplineSet
50 0 m 1,0,-1
 50 10 l 1,1,-1
 107 130 l 1,2,-1
 200 130 l 1,3,-1
 200 522 l 1,4,-1
 50 522 l 1,5,-1
 50 532 l 1,6,-1
 107 652 l 1,7,-1
 200 652 l 1,8,-1
 200 1460 l 1,9,-1
 306 1510 l 1,10,-1
 940 1510 l 1,11,-1
 940 1500 l 1,12,-1
 883 1380 l 1,13,-1
 400 1380 l 1,14,-1
 400 652 l 1,15,-1
 870 652 l 1,16,-1
 870 642 l 1,17,-1
 813 522 l 1,18,-1
 400 522 l 1,19,-1
 400 130 l 1,20,-1
 1083 130 l 1,21,-1
 1083 120 l 1,22,-1
 1026 0 l 1,23,-1
 958 0 l 1,24,25
 899 -92 899 -92 899 -178 c 0,26,27
 899 -290 899 -290 1007 -360 c 1,28,-1
 817 -450 l 1,29,-1
 807 -450 l 1,30,31
 724 -348 724 -348 711 -159 c 1,32,-1
 846 0 l 1,33,-1
 50 0 l 1,0,-1
EndSplineSet
Validated: 1
EndChar

StartChar: Ecaron
Encoding: 282 282 220
Width: 1133
Flags: W
HStem: 0 130<107 200 400 1026> 522 130<107 200 400 813> 1380 130<400 883>
VStem: 200 200<130 522 652 1380>
DStem2: 609 1738 693 1648 0.534229 0.84534<0 268.064>
LayerCount: 2
Fore
SplineSet
50 0 m 1,0,-1
 50 10 l 1,1,-1
 107 130 l 1,2,-1
 200 130 l 1,3,-1
 200 522 l 1,4,-1
 50 522 l 1,5,-1
 50 532 l 1,6,-1
 107 652 l 1,7,-1
 200 652 l 1,8,-1
 200 1460 l 1,9,-1
 306 1510 l 1,10,-1
 940 1510 l 1,11,-1
 940 1500 l 1,12,-1
 883 1380 l 1,13,-1
 400 1380 l 1,14,-1
 400 652 l 1,15,-1
 870 652 l 1,16,-1
 870 642 l 1,17,-1
 813 522 l 1,18,-1
 400 522 l 1,19,-1
 400 130 l 1,20,-1
 1083 130 l 1,21,-1
 1083 120 l 1,22,-1
 1026 0 l 1,23,-1
 50 0 l 1,0,-1
458 1966 m 1,24,-1
 468 1966 l 1,25,-1
 609 1738 l 1,26,-1
 750 1966 l 1,27,-1
 760 1966 l 1,28,-1
 863 1917 l 1,29,-1
 693 1648 l 1,30,-1
 520 1566 l 1,31,-1
 510 1566 l 1,32,-1
 285 1884 l 1,33,-1
 458 1966 l 1,24,-1
EndSplineSet
Validated: 1
EndChar

StartChar: uni0191
Encoding: 401 401 221
Width: 1060
Flags: W
HStem: 522 130<107 200 400 813> 1380 130<400 883>
VStem: 200 200<-122 522 652 1380>
LayerCount: 2
Fore
SplineSet
63 -383 m 1,0,1
 -15 -294 -15 -294 -15 -292 c 1,2,3
 81 -291 81 -291 141 -231 c 0,4,5
 200 -171 200 -171 200 -57 c 2,6,-1
 200 522 l 1,7,-1
 50 522 l 1,8,-1
 50 532 l 1,9,-1
 107 652 l 1,10,-1
 200 652 l 1,11,-1
 200 1460 l 1,12,-1
 306 1510 l 1,13,-1
 940 1510 l 1,14,-1
 940 1500 l 1,15,-1
 883 1380 l 1,16,-1
 400 1380 l 1,17,-1
 400 652 l 1,18,-1
 870 652 l 1,19,-1
 870 642 l 1,20,-1
 813 522 l 1,21,-1
 400 522 l 1,22,-1
 400 -122 l 1,23,-1
 63 -383 l 1,0,1
EndSplineSet
Validated: 1
EndChar

StartChar: Gcircumflex
Encoding: 284 284 222
Width: 1410
Flags: W
HStem: -40 180<539.998 705> 522 130<704 1010> 1370 180<705 870.002>
VStem: 200 200<285.246 1160> 1010 200<350 522 1050 1224.75>
DStem2: 453 1615 566 1566 0.534229 0.84534<18.9463 287.01>
LayerCount: 2
Fore
SplineSet
705 -40 m 1,0,1
 477 -40 477 -40 335 105 c 0,2,3
 200 243 200 243 200 460 c 2,4,-1
 200 1160 l 1,5,-1
 705 1550 l 1,6,7
 933 1550 933 1550 1075 1405 c 0,8,9
 1210 1267 1210 1267 1210 1050 c 1,10,-1
 1020 960 l 1,11,-1
 1010 960 l 1,12,-1
 1010 1050 l 18,13,14
 1010 1184 1010 1184 938 1267 c 0,15,16
 849 1370 849 1370 705 1370 c 0,17,18
 560 1370 560 1370 472 1267 c 0,19,20
 400 1184 400 1184 400 1050 c 2,21,-1
 400 460 l 2,22,23
 400 328 400 328 472 243 c 0,24,25
 559 140 559 140 705 140 c 0,26,27
 848 140 848 140 938 243 c 0,28,29
 1010 326 1010 326 1010 460 c 10,30,-1
 1010 522 l 17,31,-1
 647 522 l 1,32,-1
 647 532 l 1,33,-1
 704 652 l 1,34,-1
 1210 652 l 1,35,-1
 1210 350 l 1,36,-1
 705 -40 l 1,0,1
806 1966 m 1,37,-1
 1031 1648 l 1,38,-1
 858 1566 l 1,39,-1
 848 1566 l 1,40,-1
 707 1794 l 1,41,-1
 566 1566 l 1,42,-1
 556 1566 l 1,43,-1
 453 1615 l 1,44,-1
 623 1884 l 1,45,-1
 796 1966 l 1,46,-1
 806 1966 l 1,37,-1
EndSplineSet
Validated: 1
EndChar

StartChar: Gbreve
Encoding: 286 286 223
Width: 1410
Flags: W
HStem: -40 180<539.998 705> 522 130<704 1010> 1370 180<705 870.002> 1638 158<605.7 747>
VStem: 200 200<285.246 1160> 1010 200<350 522 1050 1224.75>
LayerCount: 2
Fore
SplineSet
705 -40 m 1,0,1
 477 -40 477 -40 335 105 c 0,2,3
 200 243 200 243 200 460 c 2,4,-1
 200 1160 l 1,5,-1
 705 1550 l 1,6,7
 933 1550 933 1550 1075 1405 c 0,8,9
 1210 1267 1210 1267 1210 1050 c 1,10,-1
 1020 960 l 1,11,-1
 1010 960 l 1,12,-1
 1010 1050 l 18,13,14
 1010 1184 1010 1184 938 1267 c 0,15,16
 849 1370 849 1370 705 1370 c 0,17,18
 560 1370 560 1370 472 1267 c 0,19,20
 400 1184 400 1184 400 1050 c 2,21,-1
 400 460 l 2,22,23
 400 328 400 328 472 243 c 0,24,25
 559 140 559 140 705 140 c 0,26,27
 848 140 848 140 938 243 c 0,28,29
 1010 326 1010 326 1010 460 c 10,30,-1
 1010 522 l 17,31,-1
 647 522 l 1,32,-1
 647 532 l 1,33,-1
 704 652 l 1,34,-1
 1210 652 l 1,35,-1
 1210 350 l 1,36,-1
 705 -40 l 1,0,1
402 1785 m 1,37,-1
 533 1902 l 1,38,-1
 543 1902 l 1,39,40
 627 1796 627 1796 729 1796 c 0,41,42
 832 1796 832 1796 939 1897 c 1,43,-1
 949 1897 l 1,44,-1
 998 1853 l 1,45,-1
 747 1638 l 1,46,47
 558 1638 558 1638 402 1785 c 1,37,-1
EndSplineSet
Validated: 1
EndChar

StartChar: Gdotaccent
Encoding: 288 288 224
Width: 1410
Flags: W
HStem: -40 180<539.998 705> 522 130<704 1010> 1370 180<705 870.002>
VStem: 200 200<285.246 1160> 600 200<1738 1876> 1010 200<350 522 1050 1224.75>
LayerCount: 2
Fore
SplineSet
705 -40 m 1,0,1
 477 -40 477 -40 335 105 c 0,2,3
 200 243 200 243 200 460 c 2,4,-1
 200 1160 l 1,5,-1
 705 1550 l 1,6,7
 933 1550 933 1550 1075 1405 c 0,8,9
 1210 1267 1210 1267 1210 1050 c 1,10,-1
 1020 960 l 1,11,-1
 1010 960 l 1,12,-1
 1010 1050 l 18,13,14
 1010 1184 1010 1184 938 1267 c 0,15,16
 849 1370 849 1370 705 1370 c 0,17,18
 560 1370 560 1370 472 1267 c 0,19,20
 400 1184 400 1184 400 1050 c 2,21,-1
 400 460 l 2,22,23
 400 328 400 328 472 243 c 0,24,25
 559 140 559 140 705 140 c 0,26,27
 848 140 848 140 938 243 c 0,28,29
 1010 326 1010 326 1010 460 c 10,30,-1
 1010 522 l 17,31,-1
 647 522 l 1,32,-1
 647 532 l 1,33,-1
 704 652 l 1,34,-1
 1210 652 l 1,35,-1
 1210 350 l 1,36,-1
 705 -40 l 1,0,1
800 1966 m 1,37,-1
 800 1738 l 1,38,-1
 610 1648 l 1,39,-1
 600 1648 l 1,40,-1
 600 1876 l 1,41,-1
 790 1966 l 1,42,-1
 800 1966 l 1,37,-1
EndSplineSet
Validated: 1
EndChar

StartChar: Gcommaaccent
Encoding: 290 290 225
Width: 1410
Flags: W
HStem: -450 21G<543.095 604.391> -40 180<539.998 705> 522 130<704 1010> 1370 180<705 870.002>
VStem: 200 200<285.246 1160> 1010 200<350 522 1050 1224.75>
LayerCount: 2
Fore
SplineSet
705 -40 m 1,0,1
 477 -40 477 -40 335 105 c 0,2,3
 200 243 200 243 200 460 c 2,4,-1
 200 1160 l 1,5,-1
 705 1550 l 1,6,7
 933 1550 933 1550 1075 1405 c 0,8,9
 1210 1267 1210 1267 1210 1050 c 1,10,-1
 1020 960 l 1,11,-1
 1010 960 l 1,12,-1
 1010 1050 l 18,13,14
 1010 1184 1010 1184 938 1267 c 0,15,16
 849 1370 849 1370 705 1370 c 0,17,18
 560 1370 560 1370 472 1267 c 0,19,20
 400 1184 400 1184 400 1050 c 2,21,-1
 400 460 l 2,22,23
 400 328 400 328 472 243 c 0,24,25
 559 140 559 140 705 140 c 0,26,27
 848 140 848 140 938 243 c 0,28,29
 1010 326 1010 326 1010 460 c 10,30,-1
 1010 522 l 17,31,-1
 647 522 l 1,32,-1
 647 532 l 1,33,-1
 704 652 l 1,34,-1
 1210 652 l 1,35,-1
 1210 350 l 1,36,-1
 705 -40 l 1,0,1
595 -450 m 1,37,-1
 585 -450 l 1,38,-1
 409 -366 l 1,39,-1
 630 -50 l 1,40,-1
 640 -50 l 1,41,-1
 757 -105 l 1,42,-1
 595 -450 l 1,37,-1
EndSplineSet
Validated: 1
EndChar

StartChar: uni01E4
Encoding: 484 484 226
Width: 1410
Flags: W
HStem: -40 180<539.998 705> 268 130<800 957 1210 1303> 522 130<704 1010> 1370 180<705 870.002>
VStem: 200 200<285.246 1160> 1010 200<398 522 1050 1224.75>
LayerCount: 2
Fore
SplineSet
705 -40 m 1,0,1
 477 -40 477 -40 335 105 c 0,2,3
 200 243 200 243 200 460 c 2,4,-1
 200 1160 l 1,5,-1
 705 1550 l 1,6,7
 933 1550 933 1550 1075 1405 c 0,8,9
 1210 1267 1210 1267 1210 1050 c 1,10,-1
 1020 960 l 1,11,-1
 1010 960 l 1,12,-1
 1010 1050 l 2,13,14
 1010 1184 1010 1184 938 1267 c 0,15,16
 849 1370 849 1370 705 1370 c 128,-1,17
 561 1370 561 1370 472 1267 c 0,18,19
 400 1183 400 1183 400 1050 c 2,20,-1
 400 460 l 2,21,22
 400 328 400 328 472 243 c 0,23,24
 559 140 559 140 705 140 c 0,25,26
 852 140 852 140 938 243 c 0,27,28
 948 255 948 255 957 268 c 1,29,-1
 743 268 l 1,30,-1
 743 278 l 1,31,-1
 800 398 l 1,32,-1
 1006 398 l 1,33,34
 1010 428 1010 428 1010 460 c 2,35,-1
 1010 522 l 1,36,-1
 647 522 l 1,37,-1
 647 532 l 1,38,-1
 704 652 l 1,39,-1
 1210 652 l 1,40,-1
 1210 398 l 1,41,-1
 1360 398 l 1,42,-1
 1360 388 l 1,43,-1
 1303 268 l 1,44,-1
 1104 268 l 1,45,-1
 705 -40 l 1,0,1
EndSplineSet
Validated: 1
EndChar

StartChar: Hcircumflex
Encoding: 292 292 227
Width: 1390
Flags: W
HStem: -40 21G<200 252.222 990 1042.22> 522 130<107 200 400 813> 1530 20G<347.778 400 1137.78 1190>
VStem: 200 200<50 522 652 1460> 990 200<50 1460>
DStem2: 453 1615 566 1566 0.534229 0.84534<18.9463 287.01>
LayerCount: 2
Fore
SplineSet
990 -40 m 1,0,-1
 990 1460 l 1,1,-1
 1180 1550 l 1,2,-1
 1190 1550 l 1,3,-1
 1190 50 l 1,4,-1
 1000 -40 l 1,5,-1
 990 -40 l 1,0,-1
200 -40 m 1,6,-1
 200 522 l 1,7,-1
 50 522 l 1,8,-1
 50 532 l 1,9,-1
 107 652 l 1,10,-1
 200 652 l 1,11,-1
 200 1460 l 1,12,-1
 390 1550 l 1,13,-1
 400 1550 l 1,14,-1
 400 652 l 1,15,-1
 870 652 l 1,16,-1
 870 642 l 1,17,-1
 813 522 l 1,18,-1
 400 522 l 1,19,-1
 400 50 l 1,20,-1
 210 -40 l 1,21,-1
 200 -40 l 1,6,-1
806 1966 m 1,22,-1
 1031 1648 l 1,23,-1
 858 1566 l 1,24,-1
 848 1566 l 1,25,-1
 707 1794 l 1,26,-1
 566 1566 l 1,27,-1
 556 1566 l 1,28,-1
 453 1615 l 1,29,-1
 623 1884 l 1,30,-1
 796 1966 l 1,31,-1
 806 1966 l 1,22,-1
EndSplineSet
Validated: 1
EndChar

StartChar: Hbar
Encoding: 294 294 228
Width: 1390
Flags: W
HStem: -40 21G<200 252.222 990 1042.22> 522 130<107 200 400 813> 1240 130<107 200 400 990 1190 1283> 1530 20G<347.778 400 1137.78 1190>
VStem: 200 200<50 522 652 1240 1370 1460> 990 200<50 1240 1370 1460>
LayerCount: 2
Fore
SplineSet
200 -40 m 1,0,-1
 200 522 l 1,1,-1
 50 522 l 1,2,-1
 50 532 l 1,3,-1
 107 652 l 1,4,-1
 200 652 l 1,5,-1
 200 1240 l 1,6,-1
 50 1240 l 1,7,-1
 50 1250 l 1,8,-1
 107 1370 l 1,9,-1
 200 1370 l 1,10,-1
 200 1460 l 1,11,-1
 390 1550 l 1,12,-1
 400 1550 l 1,13,-1
 400 1370 l 1,14,-1
 990 1370 l 1,15,-1
 990 1460 l 1,16,-1
 1180 1550 l 1,17,-1
 1190 1550 l 1,18,-1
 1190 1370 l 1,19,-1
 1340 1370 l 1,20,-1
 1340 1360 l 1,21,-1
 1283 1240 l 1,22,-1
 1190 1240 l 1,23,-1
 1190 50 l 1,24,-1
 1000 -40 l 1,25,-1
 990 -40 l 1,26,-1
 990 1240 l 1,27,-1
 400 1240 l 1,28,-1
 400 652 l 1,29,-1
 870 652 l 1,30,-1
 870 642 l 1,31,-1
 813 522 l 1,32,-1
 400 522 l 1,33,-1
 400 50 l 1,34,-1
 210 -40 l 1,35,-1
 200 -40 l 1,0,-1
EndSplineSet
Validated: 1
EndChar

StartChar: Igrave
Encoding: 204 204 229
Width: 600
Flags: W
HStem: -40 21G<200 252.222> 1530 20G<347.778 400>
VStem: 200 200<50 1460>
LayerCount: 2
Fore
SplineSet
241 1966 m 1,0,-1
 251 1966 l 1,1,-1
 413 1621 l 1,2,-1
 296 1566 l 1,3,-1
 286 1566 l 1,4,-1
 65 1882 l 1,5,-1
 241 1966 l 1,0,-1
200 -40 m 1,6,-1
 200 1460 l 1,7,-1
 390 1550 l 1,8,-1
 400 1550 l 1,9,-1
 400 50 l 1,10,-1
 210 -40 l 1,11,-1
 200 -40 l 1,6,-1
EndSplineSet
Validated: 3073
EndChar

StartChar: Iacute
Encoding: 205 205 230
Width: 600
Flags: W
HStem: -40 21G<200 252.222> 1530 20G<347.778 400>
VStem: 200 200<50 1460>
LayerCount: 2
Fore
SplineSet
347 1966 m 1,0,-1
 357 1966 l 1,1,-1
 533 1882 l 1,2,-1
 312 1566 l 1,3,-1
 302 1566 l 1,4,-1
 185 1621 l 1,5,-1
 347 1966 l 1,0,-1
200 -40 m 1,6,-1
 200 1460 l 1,7,-1
 390 1550 l 1,8,-1
 400 1550 l 1,9,-1
 400 50 l 1,10,-1
 210 -40 l 1,11,-1
 200 -40 l 1,6,-1
EndSplineSet
Validated: 3073
EndChar

StartChar: Icircumflex
Encoding: 206 206 231
Width: 600
Flags: W
HStem: -40 21G<200 252.222> 1530 20G<347.778 400>
VStem: 200 200<50 1460>
DStem2: 11 1615 124 1566 0.534229 0.84534<18.9463 287.01>
LayerCount: 2
Fore
SplineSet
364 1966 m 1,0,-1
 589 1648 l 1,1,-1
 416 1566 l 1,2,-1
 406 1566 l 1,3,-1
 265 1794 l 1,4,-1
 124 1566 l 1,5,-1
 114 1566 l 1,6,-1
 11 1615 l 1,7,-1
 181 1884 l 1,8,-1
 354 1966 l 1,9,-1
 364 1966 l 1,0,-1
200 -40 m 1,10,-1
 200 1460 l 1,11,-1
 390 1550 l 1,12,-1
 400 1550 l 1,13,-1
 400 50 l 1,14,-1
 210 -40 l 1,15,-1
 200 -40 l 1,10,-1
EndSplineSet
Validated: 3073
EndChar

StartChar: Idieresis
Encoding: 207 207 232
Width: 600
Flags: W
HStem: -40 21G<200 252.222> 1530 20G<347.778 400>
VStem: 64 200<1738 1876> 200 200<50 1460> 337 200<1738 1876>
LayerCount: 2
Fore
SplineSet
527 1966 m 1,0,-1
 537 1966 l 1,1,-1
 537 1738 l 1,2,-1
 347 1648 l 1,3,-1
 337 1648 l 1,4,-1
 337 1876 l 1,5,-1
 527 1966 l 1,0,-1
254 1966 m 1,6,-1
 264 1966 l 1,7,-1
 264 1738 l 1,8,-1
 74 1648 l 1,9,-1
 64 1648 l 1,10,-1
 64 1876 l 1,11,-1
 254 1966 l 1,6,-1
200 -40 m 1,12,-1
 200 1460 l 1,13,-1
 390 1550 l 1,14,-1
 400 1550 l 1,15,-1
 400 50 l 1,16,-1
 210 -40 l 1,17,-1
 200 -40 l 1,12,-1
EndSplineSet
Validated: 3073
EndChar

StartChar: Itilde
Encoding: 296 296 233
Width: 600
Flags: W
HStem: -40 21G<200 252.222> 1530 20G<347.778 400> 1638 159<318.318 390> 1736 159<210 281.682>
VStem: 200 200<50 1460>
LayerCount: 2
Fore
SplineSet
83 1638 m 1,0,-1
 5 1687 l 1,1,-1
 210 1895 l 1,2,3
 274 1895 274 1895 305 1856 c 0,4,5
 352 1797 352 1797 404 1797 c 0,6,7
 465 1797 465 1797 507 1895 c 1,8,-1
 517 1895 l 1,9,-1
 595 1846 l 1,10,-1
 390 1638 l 1,11,12
 326 1638 326 1638 295 1677 c 0,13,14
 248 1736 248 1736 196 1736 c 0,15,16
 135 1736 135 1736 93 1638 c 1,17,-1
 83 1638 l 1,0,-1
200 -40 m 1,18,-1
 200 1460 l 1,19,-1
 390 1550 l 1,20,-1
 400 1550 l 1,21,-1
 400 50 l 1,22,-1
 210 -40 l 1,23,-1
 200 -40 l 1,18,-1
EndSplineSet
Validated: 1
EndChar

StartChar: Imacron
Encoding: 298 298 234
Width: 600
Flags: W
HStem: -40 21G<200 252.222> 1530 20G<347.778 400> 1638 182<111 488>
VStem: 200 200<50 1460>
LayerCount: 2
Fore
SplineSet
200 -40 m 1,0,-1
 200 1460 l 1,1,-1
 390 1550 l 1,2,-1
 400 1550 l 1,3,-1
 400 50 l 1,4,-1
 210 -40 l 1,5,-1
 200 -40 l 1,0,-1
30 1638 m 1,6,-1
 30 1648 l 1,7,-1
 111 1820 l 1,8,-1
 569 1820 l 1,9,-1
 569 1810 l 1,10,-1
 488 1638 l 1,11,-1
 30 1638 l 1,6,-1
EndSplineSet
Validated: 1
EndChar

StartChar: Ibreve
Encoding: 300 300 235
Width: 600
Flags: W
HStem: -40 21G<200 252.222> 1530 20G<347.778 400> 1638 158<205.7 347>
VStem: 200 200<50 1460>
LayerCount: 2
Fore
SplineSet
2 1785 m 1,0,-1
 133 1902 l 1,1,-1
 143 1902 l 1,2,3
 227 1796 227 1796 329 1796 c 0,4,5
 432 1796 432 1796 539 1897 c 1,6,-1
 549 1897 l 1,7,-1
 598 1853 l 1,8,-1
 347 1638 l 1,9,10
 158 1638 158 1638 2 1785 c 1,0,-1
200 -40 m 1,11,-1
 200 1460 l 1,12,-1
 390 1550 l 1,13,-1
 400 1550 l 1,14,-1
 400 50 l 1,15,-1
 210 -40 l 1,16,-1
 200 -40 l 1,11,-1
EndSplineSet
Validated: 1
EndChar

StartChar: Iogonek
Encoding: 302 302 236
Width: 600
Flags: W
HStem: -450 21G<153.5 247.222> 1530 20G<347.778 400>
VStem: 200 200<50 1460> 200 87<-40 -10.2012>
LayerCount: 2
Fore
SplineSet
200 -40 m 1,0,-1
 200 1460 l 1,1,-1
 390 1550 l 1,2,-1
 400 1550 l 1,3,-1
 400 50 l 1,4,-1
 350 26 l 1,5,6
 287 -80 287 -80 287 -178 c 0,7,8
 287 -290 287 -290 395 -360 c 1,9,-1
 205 -450 l 1,10,-1
 195 -450 l 1,11,12
 112 -348 112 -348 99 -159 c 1,13,-1
 200 -40 l 1,0,-1
EndSplineSet
Validated: 3073
EndChar

StartChar: Idotaccent
Encoding: 304 304 237
Width: 600
Flags: W
HStem: -40 21G<200 252.222> 1530 20G<347.778 400>
VStem: 200 200<50 1460 1738 1876>
LayerCount: 2
Fore
SplineSet
200 -40 m 1,0,-1
 200 1460 l 1,1,-1
 390 1550 l 1,2,-1
 400 1550 l 1,3,-1
 400 50 l 1,4,-1
 210 -40 l 1,5,-1
 200 -40 l 1,0,-1
400 1966 m 1,6,-1
 400 1738 l 1,7,-1
 210 1648 l 1,8,-1
 200 1648 l 1,9,-1
 200 1876 l 1,10,-1
 390 1966 l 1,11,-1
 400 1966 l 1,6,-1
EndSplineSet
Validated: 3073
EndChar

StartChar: IJ
Encoding: 306 306 238
Width: 1693
Flags: W
HStem: -40 180<822.998 988> 1328 182<901 1293> 1530 20G<347.778 400>
VStem: 200 200<50 1460> 483 200<285.246 460> 1293 200<350 1328>
LayerCount: 2
Fore
SplineSet
988 -40 m 1,0,1
 760 -40 760 -40 618 105 c 0,2,3
 483 243 483 243 483 460 c 1,4,-1
 673 550 l 1,5,-1
 683 550 l 1,6,-1
 683 460 l 18,7,8
 683 326 683 326 755 243 c 0,9,10
 844 140 844 140 988 140 c 0,11,12
 1133 140 1133 140 1221 243 c 0,13,14
 1293 326 1293 326 1293 460 c 2,15,-1
 1293 1328 l 1,16,-1
 820 1328 l 1,17,-1
 820 1338 l 1,18,-1
 901 1510 l 1,19,-1
 1493 1510 l 1,20,-1
 1493 350 l 1,21,-1
 988 -40 l 1,0,1
200 -40 m 1,22,-1
 200 1460 l 1,23,-1
 390 1550 l 1,24,-1
 400 1550 l 1,25,-1
 400 50 l 1,26,-1
 210 -40 l 1,27,-1
 200 -40 l 1,22,-1
EndSplineSet
Validated: 1
EndChar

StartChar: Jcircumflex
Encoding: 308 308 239
Width: 1290
Flags: W
HStem: -40 180<419.998 585> 1328 182<498 890>
VStem: 80 200<285.246 460> 890 200<350 1328>
DStem2: 491 1615 604 1566 0.534229 0.84534<18.9463 287.01>
LayerCount: 2
Fore
SplineSet
585 -40 m 1,0,1
 357 -40 357 -40 215 105 c 0,2,3
 80 243 80 243 80 460 c 1,4,-1
 270 550 l 1,5,-1
 280 550 l 1,6,-1
 280 460 l 18,7,8
 280 326 280 326 352 243 c 0,9,10
 441 140 441 140 585 140 c 0,11,12
 730 140 730 140 818 243 c 0,13,14
 890 326 890 326 890 460 c 2,15,-1
 890 1328 l 1,16,-1
 417 1328 l 1,17,-1
 417 1338 l 1,18,-1
 498 1510 l 1,19,-1
 1090 1510 l 1,20,-1
 1090 350 l 1,21,-1
 585 -40 l 1,0,1
844 1966 m 1,22,-1
 1069 1648 l 1,23,-1
 896 1566 l 1,24,-1
 886 1566 l 1,25,-1
 745 1794 l 1,26,-1
 604 1566 l 1,27,-1
 594 1566 l 1,28,-1
 491 1615 l 1,29,-1
 661 1884 l 1,30,-1
 834 1966 l 1,31,-1
 844 1966 l 1,22,-1
EndSplineSet
Validated: 1
EndChar

StartChar: Kcommaaccent
Encoding: 310 310 240
Width: 1364
Flags: W
HStem: -450 21G<543.095 604.391> -40 21G<200 252.222 1014 1080.41> 1530 20G<347.778 400 1107.78 1160>
VStem: 200 200<50 267.125 355 1460> 960 200<906.796 1460>
DStem2: 696 784 510 700 0.572943 -0.819596<0 220.538 339.275 865.564>
LayerCount: 2
Fore
SplineSet
595 -450 m 1,0,-1
 585 -450 l 1,1,-1
 409 -366 l 1,2,-1
 630 -50 l 1,3,-1
 640 -50 l 1,4,-1
 757 -105 l 1,5,-1
 595 -450 l 1,0,-1
200 -40 m 1,6,-1
 200 1460 l 1,7,-1
 390 1550 l 1,8,-1
 400 1550 l 1,9,-1
 400 355 l 1,10,11
 539 402 539 402 663 481 c 1,12,-1
 510 700 l 1,13,-1
 686 784 l 1,14,-1
 696 784 l 1,15,-1
 822 603 l 1,16,17
 960 777 960 777 960 1258 c 2,18,-1
 960 1460 l 1,19,-1
 1150 1550 l 1,20,-1
 1160 1550 l 1,21,-1
 1160 1262 l 2,22,23
 1160 766 1160 766 888 509 c 1,24,-1
 1214 43 l 1,25,-1
 1038 -40 l 1,26,-1
 1028 -40 l 1,27,-1
 729 387 l 1,28,29
 576 301 576 301 400 255 c 1,30,-1
 400 50 l 1,31,-1
 210 -40 l 1,32,-1
 200 -40 l 1,6,-1
EndSplineSet
Validated: 3073
EndChar

StartChar: Lacute
Encoding: 313 313 241
Width: 1088
Flags: W
HStem: 0 130<107 200 400 1026> 1530 20G<347.778 400>
VStem: 200 200<130 1460>
LayerCount: 2
Fore
SplineSet
50 0 m 1,0,-1
 50 10 l 1,1,-1
 107 130 l 1,2,-1
 200 130 l 1,3,-1
 200 1460 l 1,4,-1
 390 1550 l 1,5,-1
 400 1550 l 1,6,-1
 400 130 l 1,7,-1
 1083 130 l 1,8,-1
 1083 120 l 1,9,-1
 1026 0 l 1,10,-1
 50 0 l 1,0,-1
347 1966 m 1,11,-1
 357 1966 l 1,12,-1
 533 1882 l 1,13,-1
 312 1566 l 1,14,-1
 302 1566 l 1,15,-1
 185 1621 l 1,16,-1
 347 1966 l 1,11,-1
EndSplineSet
Validated: 1
EndChar

StartChar: Lcommaaccent
Encoding: 315 315 242
Width: 1088
Flags: W
HStem: -450 21G<468.095 529.391> 0 130<107 200 400 1026> 1530 20G<347.778 400>
VStem: 200 200<130 1460>
LayerCount: 2
Fore
SplineSet
50 0 m 1,0,-1
 50 10 l 1,1,-1
 107 130 l 1,2,-1
 200 130 l 1,3,-1
 200 1460 l 1,4,-1
 390 1550 l 1,5,-1
 400 1550 l 1,6,-1
 400 130 l 1,7,-1
 1083 130 l 1,8,-1
 1083 120 l 1,9,-1
 1026 0 l 1,10,-1
 50 0 l 1,0,-1
520 -450 m 1,11,-1
 510 -450 l 1,12,-1
 334 -366 l 1,13,-1
 555 -50 l 1,14,-1
 565 -50 l 1,15,-1
 682 -105 l 1,16,-1
 520 -450 l 1,11,-1
EndSplineSet
Validated: 1
EndChar

StartChar: Lcaron
Encoding: 317 317 243
Width: 1088
Flags: W
HStem: 0 130<107 200 400 1026> 1530 20G<347.778 400>
VStem: 200 200<130 1460>
LayerCount: 2
Fore
SplineSet
50 0 m 1,0,-1
 50 10 l 1,1,-1
 107 130 l 1,2,-1
 200 130 l 1,3,-1
 200 1460 l 1,4,-1
 390 1550 l 1,5,-1
 400 1550 l 1,6,-1
 400 130 l 1,7,-1
 1083 130 l 1,8,-1
 1083 120 l 1,9,-1
 1026 0 l 1,10,-1
 50 0 l 1,0,-1
663 1556 m 1,11,-1
 673 1556 l 1,12,-1
 849 1472 l 1,13,-1
 628 1156 l 1,14,-1
 618 1156 l 1,15,-1
 501 1211 l 1,16,-1
 663 1556 l 1,11,-1
EndSplineSet
Validated: 1
EndChar

StartChar: Ldot
Encoding: 319 319 244
Width: 1088
Flags: W
HStem: 0 130<107 200 400 1026> 1120 20G<678.778 731> 1530 20G<347.778 400>
VStem: 200 200<130 1460> 531 200<912 1050>
LayerCount: 2
Fore
SplineSet
50 0 m 1,0,-1
 50 10 l 1,1,-1
 107 130 l 1,2,-1
 200 130 l 1,3,-1
 200 1460 l 1,4,-1
 390 1550 l 1,5,-1
 400 1550 l 1,6,-1
 400 130 l 1,7,-1
 1083 130 l 1,8,-1
 1083 120 l 1,9,-1
 1026 0 l 1,10,-1
 50 0 l 1,0,-1
731 1140 m 1,11,-1
 731 912 l 1,12,-1
 541 822 l 1,13,-1
 531 822 l 1,14,-1
 531 1050 l 1,15,-1
 721 1140 l 1,16,-1
 731 1140 l 1,11,-1
EndSplineSet
Validated: 1
EndChar

StartChar: Lslash
Encoding: 321 321 245
Width: 1088
Flags: W
HStem: 0 130<107 200 400 1026> 1120 20G<766.506 816.044> 1530 20G<347.778 400>
VStem: 200 200<130 484 637 652 808 1460>
DStem2: 400 808 400 652 0.761117 0.648614<0 512.176>
LayerCount: 2
Fore
SplineSet
50 0 m 1,0,-1
 50 10 l 1,1,-1
 107 130 l 1,2,-1
 200 130 l 1,3,-1
 200 484 l 1,4,-1
 127 575 l 1,5,-1
 200 637 l 1,6,-1
 200 1460 l 1,7,-1
 390 1550 l 1,8,-1
 400 1550 l 1,9,-1
 400 808 l 1,10,-1
 790 1140 l 1,11,-1
 800 1140 l 1,12,-1
 873 1049 l 1,13,-1
 400 652 l 1,14,-1
 400 130 l 1,15,-1
 1083 130 l 1,16,-1
 1083 120 l 1,17,-1
 1026 0 l 1,18,-1
 50 0 l 1,0,-1
EndSplineSet
Validated: 1
EndChar

StartChar: Ntilde
Encoding: 209 209 246
Width: 1410
Flags: W
HStem: -40 21G<200 252.222 1010 1061.3> 1370 180<705 870.002> 1639 159<745.318 817> 1737 159<637 708.682>
VStem: 200 200<50 1160> 1010 200<52 1224.75>
LayerCount: 2
Fore
SplineSet
200 -40 m 9,0,-1
 200 1160 l 1,1,-1
 705 1550 l 1,2,3
 933 1550 933 1550 1075 1405 c 0,4,5
 1210 1267 1210 1267 1210 1050 c 2,6,-1
 1210 52 l 1,7,-1
 1020 -40 l 1,8,-1
 1010 -40 l 9,9,-1
 1010 1050 l 2,10,11
 1010 1184 1010 1184 938 1267 c 0,12,13
 849 1370 849 1370 705 1370 c 0,14,15
 558 1370 558 1370 472 1267 c 0,16,17
 400 1181 400 1181 400 1050 c 2,18,-1
 400 50 l 17,19,-1
 210 -40 l 1,20,-1
 200 -40 l 9,0,-1
510 1639 m 1,21,-1
 425 1688 l 1,22,-1
 637 1896 l 1,23,24
 701 1896 701 1896 732 1857 c 0,25,26
 779 1798 779 1798 831 1798 c 0,27,28
 892 1798 892 1798 934 1896 c 1,29,-1
 944 1896 l 1,30,-1
 1029 1847 l 1,31,-1
 817 1639 l 1,32,33
 753 1639 753 1639 722 1678 c 0,34,35
 675 1737 675 1737 623 1737 c 0,36,37
 562 1737 562 1737 520 1639 c 1,38,-1
 510 1639 l 1,21,-1
EndSplineSet
Validated: 1
EndChar

StartChar: Nacute
Encoding: 323 323 247
Width: 1410
Flags: W
HStem: -40 21G<200 252.222 1010 1061.3> 1370 180<705 870.002>
VStem: 200 200<50 1160> 1010 200<52 1224.75>
LayerCount: 2
Fore
SplineSet
200 -40 m 9,0,-1
 200 1160 l 1,1,-1
 705 1550 l 1,2,3
 933 1550 933 1550 1075 1405 c 0,4,5
 1210 1267 1210 1267 1210 1050 c 2,6,-1
 1210 52 l 1,7,-1
 1020 -40 l 1,8,-1
 1010 -40 l 9,9,-1
 1010 1050 l 2,10,11
 1010 1184 1010 1184 938 1267 c 0,12,13
 849 1370 849 1370 705 1370 c 0,14,15
 558 1370 558 1370 472 1267 c 0,16,17
 400 1181 400 1181 400 1050 c 2,18,-1
 400 50 l 17,19,-1
 210 -40 l 1,20,-1
 200 -40 l 9,0,-1
796 1966 m 1,21,-1
 806 1966 l 1,22,-1
 982 1882 l 1,23,-1
 761 1566 l 1,24,-1
 751 1566 l 1,25,-1
 634 1621 l 1,26,-1
 796 1966 l 1,21,-1
EndSplineSet
Validated: 1
EndChar

StartChar: Ncommaaccent
Encoding: 325 325 248
Width: 1410
Flags: W
HStem: -450 21G<543.095 604.391> -40 21G<200 252.222 1010 1061.3> 1370 180<705 870.002>
VStem: 200 200<50 1160> 1010 200<52 1224.75>
LayerCount: 2
Fore
SplineSet
200 -40 m 9,0,-1
 200 1160 l 1,1,-1
 705 1550 l 1,2,3
 933 1550 933 1550 1075 1405 c 0,4,5
 1210 1267 1210 1267 1210 1050 c 2,6,-1
 1210 52 l 1,7,-1
 1020 -40 l 1,8,-1
 1010 -40 l 9,9,-1
 1010 1050 l 2,10,11
 1010 1184 1010 1184 938 1267 c 0,12,13
 849 1370 849 1370 705 1370 c 0,14,15
 558 1370 558 1370 472 1267 c 0,16,17
 400 1181 400 1181 400 1050 c 2,18,-1
 400 50 l 17,19,-1
 210 -40 l 1,20,-1
 200 -40 l 9,0,-1
595 -450 m 1,21,-1
 585 -450 l 1,22,-1
 409 -366 l 1,23,-1
 630 -50 l 1,24,-1
 640 -50 l 1,25,-1
 757 -105 l 1,26,-1
 595 -450 l 1,21,-1
EndSplineSet
Validated: 1
EndChar

StartChar: Ncaron
Encoding: 327 327 249
Width: 1410
Flags: W
HStem: -40 21G<200 252.222 1010 1061.3> 1370 180<705 870.002>
VStem: 200 200<50 1160> 1010 200<52 1224.75>
DStem2: 728 1738 812 1648 0.534229 0.84534<0 268.064>
LayerCount: 2
Fore
SplineSet
200 -40 m 9,0,-1
 200 1160 l 1,1,-1
 705 1550 l 1,2,3
 933 1550 933 1550 1075 1405 c 0,4,5
 1210 1267 1210 1267 1210 1050 c 2,6,-1
 1210 52 l 1,7,-1
 1020 -40 l 1,8,-1
 1010 -40 l 9,9,-1
 1010 1050 l 2,10,11
 1010 1184 1010 1184 938 1267 c 0,12,13
 849 1370 849 1370 705 1370 c 0,14,15
 558 1370 558 1370 472 1267 c 0,16,17
 400 1181 400 1181 400 1050 c 2,18,-1
 400 50 l 17,19,-1
 210 -40 l 1,20,-1
 200 -40 l 9,0,-1
577 1966 m 1,21,-1
 587 1966 l 1,22,-1
 728 1738 l 1,23,-1
 869 1966 l 1,24,-1
 879 1966 l 1,25,-1
 982 1917 l 1,26,-1
 812 1648 l 1,27,-1
 639 1566 l 1,28,-1
 629 1566 l 1,29,-1
 404 1884 l 1,30,-1
 577 1966 l 1,21,-1
EndSplineSet
Validated: 1
EndChar

StartChar: Eng
Encoding: 330 330 250
Width: 1410
Flags: W
HStem: -40 21G<200 252.222> 1370 180<705 870.002>
VStem: 200 200<50 1160> 1010 200<-122 1224.75>
LayerCount: 2
Fore
SplineSet
200 -40 m 1,0,-1
 200 1160 l 1,1,-1
 705 1550 l 1,2,3
 933 1550 933 1550 1075 1405 c 0,4,5
 1210 1267 1210 1267 1210 1050 c 2,6,-1
 1210 -122 l 1,7,-1
 873 -383 l 1,8,9
 795 -294 795 -294 795 -292 c 1,10,11
 891 -291 891 -291 951 -231 c 0,12,13
 1010 -171 1010 -171 1010 -57 c 2,14,-1
 1010 1050 l 2,15,16
 1010 1184 1010 1184 938 1267 c 0,17,18
 849 1370 849 1370 705 1370 c 0,19,20
 558 1370 558 1370 472 1267 c 0,21,22
 400 1181 400 1181 400 1050 c 2,23,-1
 400 50 l 1,24,-1
 210 -40 l 1,25,-1
 200 -40 l 1,0,-1
EndSplineSet
Validated: 1
EndChar

StartChar: Ograve
Encoding: 210 210 251
Width: 1410
Flags: W
HStem: -40 180<539.998 705> 1370 180<705 870.002>
VStem: 200 200<285.246 1160> 1010 200<350 1224.75>
LayerCount: 2
Fore
SplineSet
705 140 m 0,0,1
 848 140 848 140 938 243 c 0,2,3
 1010 326 1010 326 1010 460 c 2,4,-1
 1010 1050 l 2,5,6
 1010 1184 1010 1184 938 1267 c 0,7,8
 849 1370 849 1370 705 1370 c 0,9,10
 560 1370 560 1370 472 1267 c 0,11,12
 400 1184 400 1184 400 1050 c 2,13,-1
 400 460 l 2,14,15
 400 328 400 328 472 243 c 0,16,17
 559 140 559 140 705 140 c 0,0,1
705 -40 m 1,18,19
 477 -40 477 -40 335 105 c 0,20,21
 200 243 200 243 200 460 c 2,22,-1
 200 1160 l 1,23,-1
 705 1550 l 1,24,25
 933 1550 933 1550 1075 1405 c 0,26,27
 1210 1267 1210 1267 1210 1050 c 2,28,-1
 1210 350 l 1,29,-1
 705 -40 l 1,18,19
596 1966 m 1,30,-1
 606 1966 l 1,31,-1
 768 1621 l 1,32,-1
 651 1566 l 1,33,-1
 641 1566 l 1,34,-1
 420 1882 l 1,35,-1
 596 1966 l 1,30,-1
EndSplineSet
Validated: 1
EndChar

StartChar: Oacute
Encoding: 211 211 252
Width: 1410
Flags: W
HStem: -40 180<539.998 705> 1370 180<705 870.002>
VStem: 200 200<285.246 1160> 1010 200<350 1224.75>
LayerCount: 2
Fore
SplineSet
705 140 m 0,0,1
 848 140 848 140 938 243 c 0,2,3
 1010 326 1010 326 1010 460 c 2,4,-1
 1010 1050 l 2,5,6
 1010 1184 1010 1184 938 1267 c 0,7,8
 849 1370 849 1370 705 1370 c 0,9,10
 560 1370 560 1370 472 1267 c 0,11,12
 400 1184 400 1184 400 1050 c 2,13,-1
 400 460 l 2,14,15
 400 328 400 328 472 243 c 0,16,17
 559 140 559 140 705 140 c 0,0,1
705 -40 m 1,18,19
 477 -40 477 -40 335 105 c 0,20,21
 200 243 200 243 200 460 c 2,22,-1
 200 1160 l 1,23,-1
 705 1550 l 1,24,25
 933 1550 933 1550 1075 1405 c 0,26,27
 1210 1267 1210 1267 1210 1050 c 2,28,-1
 1210 350 l 1,29,-1
 705 -40 l 1,18,19
796 1966 m 1,30,-1
 806 1966 l 1,31,-1
 982 1882 l 1,32,-1
 761 1566 l 1,33,-1
 751 1566 l 1,34,-1
 634 1621 l 1,35,-1
 796 1966 l 1,30,-1
EndSplineSet
Validated: 1
EndChar

StartChar: Ocircumflex
Encoding: 212 212 253
Width: 1410
Flags: W
HStem: -40 180<539.998 705> 1370 180<705 870.002>
VStem: 200 200<285.246 1160> 1010 200<350 1224.75>
DStem2: 453 1615 566 1566 0.534229 0.84534<18.9463 287.01>
LayerCount: 2
Fore
SplineSet
705 140 m 0,0,1
 848 140 848 140 938 243 c 0,2,3
 1010 326 1010 326 1010 460 c 2,4,-1
 1010 1050 l 2,5,6
 1010 1184 1010 1184 938 1267 c 0,7,8
 849 1370 849 1370 705 1370 c 0,9,10
 560 1370 560 1370 472 1267 c 0,11,12
 400 1184 400 1184 400 1050 c 2,13,-1
 400 460 l 2,14,15
 400 328 400 328 472 243 c 0,16,17
 559 140 559 140 705 140 c 0,0,1
705 -40 m 1,18,19
 477 -40 477 -40 335 105 c 0,20,21
 200 243 200 243 200 460 c 2,22,-1
 200 1160 l 1,23,-1
 705 1550 l 1,24,25
 933 1550 933 1550 1075 1405 c 0,26,27
 1210 1267 1210 1267 1210 1050 c 2,28,-1
 1210 350 l 1,29,-1
 705 -40 l 1,18,19
806 1966 m 1,30,-1
 1031 1648 l 1,31,-1
 858 1566 l 1,32,-1
 848 1566 l 1,33,-1
 707 1794 l 1,34,-1
 566 1566 l 1,35,-1
 556 1566 l 1,36,-1
 453 1615 l 1,37,-1
 623 1884 l 1,38,-1
 796 1966 l 1,39,-1
 806 1966 l 1,30,-1
EndSplineSet
Validated: 1
EndChar

StartChar: Otilde
Encoding: 213 213 254
Width: 1410
Flags: W
HStem: -40 180<539.998 705> 1370 180<705 870.002> 1639 159<745.318 817> 1737 159<637 708.682>
VStem: 200 200<285.246 1160> 1010 200<350 1224.75>
LayerCount: 2
Fore
SplineSet
705 140 m 0,0,1
 848 140 848 140 938 243 c 0,2,3
 1010 326 1010 326 1010 460 c 2,4,-1
 1010 1050 l 2,5,6
 1010 1184 1010 1184 938 1267 c 0,7,8
 849 1370 849 1370 705 1370 c 0,9,10
 560 1370 560 1370 472 1267 c 0,11,12
 400 1184 400 1184 400 1050 c 2,13,-1
 400 460 l 2,14,15
 400 328 400 328 472 243 c 0,16,17
 559 140 559 140 705 140 c 0,0,1
705 -40 m 1,18,19
 477 -40 477 -40 335 105 c 0,20,21
 200 243 200 243 200 460 c 2,22,-1
 200 1160 l 1,23,-1
 705 1550 l 1,24,25
 933 1550 933 1550 1075 1405 c 0,26,27
 1210 1267 1210 1267 1210 1050 c 2,28,-1
 1210 350 l 1,29,-1
 705 -40 l 1,18,19
510 1639 m 1,30,-1
 425 1688 l 1,31,-1
 637 1896 l 1,32,33
 701 1896 701 1896 732 1857 c 0,34,35
 779 1798 779 1798 831 1798 c 0,36,37
 892 1798 892 1798 934 1896 c 1,38,-1
 944 1896 l 1,39,-1
 1029 1847 l 1,40,-1
 817 1639 l 1,41,42
 753 1639 753 1639 722 1678 c 0,43,44
 675 1737 675 1737 623 1737 c 0,45,46
 562 1737 562 1737 520 1639 c 1,47,-1
 510 1639 l 1,30,-1
EndSplineSet
Validated: 1
EndChar

StartChar: Odieresis
Encoding: 214 214 255
Width: 1410
Flags: W
HStem: -40 180<539.998 705> 1370 180<705 870.002>
VStem: 200 200<285.246 1160> 471 200<1738 1876> 744 200<1738 1876> 1010 200<350 1224.75>
LayerCount: 2
Fore
SplineSet
705 140 m 0,0,1
 848 140 848 140 938 243 c 0,2,3
 1010 326 1010 326 1010 460 c 2,4,-1
 1010 1050 l 2,5,6
 1010 1184 1010 1184 938 1267 c 0,7,8
 849 1370 849 1370 705 1370 c 0,9,10
 560 1370 560 1370 472 1267 c 0,11,12
 400 1184 400 1184 400 1050 c 2,13,-1
 400 460 l 2,14,15
 400 328 400 328 472 243 c 0,16,17
 559 140 559 140 705 140 c 0,0,1
705 -40 m 1,18,19
 477 -40 477 -40 335 105 c 0,20,21
 200 243 200 243 200 460 c 2,22,-1
 200 1160 l 1,23,-1
 705 1550 l 1,24,25
 933 1550 933 1550 1075 1405 c 0,26,27
 1210 1267 1210 1267 1210 1050 c 2,28,-1
 1210 350 l 1,29,-1
 705 -40 l 1,18,19
934 1966 m 1,30,-1
 944 1966 l 1,31,-1
 944 1738 l 1,32,-1
 754 1648 l 1,33,-1
 744 1648 l 1,34,-1
 744 1876 l 1,35,-1
 934 1966 l 1,30,-1
661 1966 m 1,36,-1
 671 1966 l 1,37,-1
 671 1738 l 1,38,-1
 481 1648 l 1,39,-1
 471 1648 l 1,40,-1
 471 1876 l 1,41,-1
 661 1966 l 1,36,-1
EndSplineSet
Validated: 1
EndChar

StartChar: Oslash
Encoding: 216 216 256
Width: 1410
Flags: W
HStem: -40 180<539.15 705> 1370 180<705 870.85>
VStem: 200 200<314.363 1160> 1010 200<350 1195.18>
DStem2: 290 10 404 -40 0.421596 0.906784<2.72271 76.5467 331.059 1370.4 1624.49 1698.31>
LayerCount: 2
Fore
SplineSet
404 -40 m 1,0,-1
 394 -40 l 1,1,-1
 290 10 l 1,2,-1
 334 106 l 1,3,4
 200 243 200 243 200 460 c 2,5,-1
 200 1160 l 1,6,-1
 705 1550 l 1,7,8
 860 1550 860 1550 975 1483 c 1,9,-1
 1006 1550 l 1,10,-1
 1016 1550 l 1,11,-1
 1120 1499 l 1,12,-1
 1076 1404 l 1,13,14
 1210 1266 1210 1266 1210 1050 c 2,15,-1
 1210 350 l 1,16,-1
 705 -40 l 1,17,18
 550 -40 550 -40 435 27 c 1,19,-1
 404 -40 l 1,0,-1
705 140 m 0,20,21
 848 140 848 140 938 243 c 0,22,23
 1010 325 1010 325 1010 460 c 2,24,-1
 1010 1050 l 2,25,26
 1010 1135 1010 1135 981 1200 c 1,27,-1
 516 201 l 1,28,29
 593 140 593 140 705 140 c 0,20,21
430 310 m 1,30,-1
 894 1309 l 1,31,32
 816 1370 816 1370 705 1370 c 0,33,34
 561 1370 561 1370 472 1267 c 0,35,36
 400 1183 400 1183 400 1050 c 2,37,-1
 400 460 l 2,38,39
 400 375 400 375 430 310 c 1,30,-1
EndSplineSet
Validated: 1
EndChar

StartChar: Omacron
Encoding: 332 332 257
Width: 1410
Flags: W
HStem: -40 180<539.998 705> 1370 180<705 870.002> 1638 182<548 925>
VStem: 200 200<285.246 1160> 1010 200<350 1224.75>
LayerCount: 2
Fore
SplineSet
705 140 m 0,0,1
 848 140 848 140 938 243 c 0,2,3
 1010 326 1010 326 1010 460 c 2,4,-1
 1010 1050 l 2,5,6
 1010 1184 1010 1184 938 1267 c 0,7,8
 849 1370 849 1370 705 1370 c 0,9,10
 560 1370 560 1370 472 1267 c 0,11,12
 400 1184 400 1184 400 1050 c 2,13,-1
 400 460 l 2,14,15
 400 328 400 328 472 243 c 0,16,17
 559 140 559 140 705 140 c 0,0,1
705 -40 m 1,18,19
 477 -40 477 -40 335 105 c 0,20,21
 200 243 200 243 200 460 c 2,22,-1
 200 1160 l 1,23,-1
 705 1550 l 1,24,25
 933 1550 933 1550 1075 1405 c 0,26,27
 1210 1267 1210 1267 1210 1050 c 2,28,-1
 1210 350 l 1,29,-1
 705 -40 l 1,18,19
467 1638 m 1,30,-1
 467 1648 l 1,31,-1
 548 1820 l 1,32,-1
 1006 1820 l 1,33,-1
 1006 1810 l 1,34,-1
 925 1638 l 1,35,-1
 467 1638 l 1,30,-1
EndSplineSet
Validated: 1
EndChar

StartChar: Obreve
Encoding: 334 334 258
Width: 1410
Flags: W
HStem: -40 180<539.998 705> 1370 180<705 870.002> 1638 158<605.7 747>
VStem: 200 200<285.246 1160> 1010 200<350 1224.75>
LayerCount: 2
Fore
SplineSet
705 140 m 0,0,1
 848 140 848 140 938 243 c 0,2,3
 1010 326 1010 326 1010 460 c 2,4,-1
 1010 1050 l 2,5,6
 1010 1184 1010 1184 938 1267 c 0,7,8
 849 1370 849 1370 705 1370 c 0,9,10
 560 1370 560 1370 472 1267 c 0,11,12
 400 1184 400 1184 400 1050 c 2,13,-1
 400 460 l 2,14,15
 400 328 400 328 472 243 c 0,16,17
 559 140 559 140 705 140 c 0,0,1
705 -40 m 1,18,19
 477 -40 477 -40 335 105 c 0,20,21
 200 243 200 243 200 460 c 2,22,-1
 200 1160 l 1,23,-1
 705 1550 l 1,24,25
 933 1550 933 1550 1075 1405 c 0,26,27
 1210 1267 1210 1267 1210 1050 c 2,28,-1
 1210 350 l 1,29,-1
 705 -40 l 1,18,19
402 1785 m 1,30,-1
 533 1902 l 1,31,-1
 543 1902 l 1,32,33
 627 1796 627 1796 729 1796 c 0,34,35
 832 1796 832 1796 939 1897 c 1,36,-1
 949 1897 l 1,37,-1
 998 1853 l 1,38,-1
 747 1638 l 1,39,40
 558 1638 558 1638 402 1785 c 1,30,-1
EndSplineSet
Validated: 1
EndChar

StartChar: Ohungarumlaut
Encoding: 336 336 259
Width: 1410
Flags: W
HStem: -40 180<539.998 705> 1370 180<705 870.002>
VStem: 200 200<285.246 1160> 1010 200<350 1224.75>
LayerCount: 2
Fore
SplineSet
705 140 m 0,0,1
 848 140 848 140 938 243 c 0,2,3
 1010 326 1010 326 1010 460 c 2,4,-1
 1010 1050 l 2,5,6
 1010 1184 1010 1184 938 1267 c 0,7,8
 849 1370 849 1370 705 1370 c 0,9,10
 560 1370 560 1370 472 1267 c 0,11,12
 400 1184 400 1184 400 1050 c 2,13,-1
 400 460 l 2,14,15
 400 328 400 328 472 243 c 0,16,17
 559 140 559 140 705 140 c 0,0,1
705 -40 m 1,18,19
 477 -40 477 -40 335 105 c 0,20,21
 200 243 200 243 200 460 c 2,22,-1
 200 1160 l 1,23,-1
 705 1550 l 1,24,25
 933 1550 933 1550 1075 1405 c 0,26,27
 1210 1267 1210 1267 1210 1050 c 2,28,-1
 1210 350 l 1,29,-1
 705 -40 l 1,18,19
910 1966 m 1,30,-1
 920 1966 l 1,31,-1
 1096 1882 l 1,32,-1
 875 1566 l 1,33,-1
 865 1566 l 1,34,-1
 748 1621 l 1,35,-1
 910 1966 l 1,30,-1
637 1966 m 1,36,-1
 647 1966 l 1,37,-1
 823 1882 l 1,38,-1
 602 1566 l 1,39,-1
 592 1566 l 1,40,-1
 475 1621 l 1,41,-1
 637 1966 l 1,36,-1
EndSplineSet
Validated: 1
EndChar

